<svg width="60" height="72" viewBox="0 0 60 72" fill="none" xmlns="http://www.w3.org/2000/svg">
<path d="M39.6041 6.51737L42.7022 0.927871C42.7419 0.856249 42.767 0.777523 42.7762 0.696189C42.7854 0.614854 42.7785 0.532504 42.7559 0.45384C42.7332 0.375176 42.6953 0.301739 42.6443 0.237721C42.5933 0.173703 42.5302 0.120359 42.4586 0.0807331C42.387 0.0411077 42.3082 0.0159774 42.2269 0.00677697C42.1456 -0.00242344 42.0632 0.00448637 41.9846 0.0271117C41.9059 0.049737 41.8325 0.0876346 41.7684 0.138641C41.7044 0.189648 41.6511 0.252764 41.6114 0.324386L38.4811 5.97198C35.8088 4.80034 32.9227 4.19543 30.0048 4.19543C27.087 4.19543 24.2009 4.80034 21.5286 5.97198L18.3982 0.324386C18.3182 0.178882 18.1837 0.0711286 18.0242 0.0248296C17.8647 -0.0214695 17.6934 -0.00252133 17.5479 0.0775058C17.4024 0.157533 17.2946 0.292084 17.2483 0.451558C17.202 0.611033 17.221 0.782368 17.301 0.927871L20.3991 6.51737C17.4513 7.97119 14.9608 10.2086 13.2007 12.9844C11.4405 15.7601 10.4787 18.9669 10.4206 22.2532H49.5891C49.5304 18.9662 48.5676 15.759 46.8063 12.9832C45.0449 10.2074 42.5531 7.9703 39.6041 6.51737ZM20.9671 15.0856C20.6433 15.0856 20.3269 14.9895 20.0577 14.8096C19.7886 14.6297 19.5789 14.3739 19.4551 14.0748C19.3314 13.7756 19.2992 13.4465 19.3626 13.129C19.426 12.8115 19.5821 12.52 19.8113 12.2913C20.0404 12.0626 20.3323 11.907 20.6499 11.8442C20.9675 11.7815 21.2965 11.8143 21.5955 11.9387C21.8944 12.063 22.1497 12.2732 22.3291 12.5427C22.5085 12.8122 22.6039 13.1289 22.6033 13.4526C22.6024 13.886 22.4297 14.3013 22.1229 14.6075C21.8162 14.9136 21.4005 15.0856 20.9671 15.0856ZM39.0458 15.0856C38.7221 15.0856 38.4056 14.9895 38.1365 14.8096C37.8673 14.6297 37.6576 14.3739 37.5339 14.0748C37.4101 13.7756 37.3779 13.4465 37.4413 13.129C37.5047 12.8115 37.6609 12.52 37.89 12.2913C38.1192 12.0626 38.411 11.907 38.7286 11.8442C39.0462 11.7815 39.3753 11.8143 39.6742 11.9387C39.9731 12.063 40.2284 12.2732 40.4078 12.5427C40.5872 12.8122 40.6827 13.1289 40.682 13.4526C40.6812 13.886 40.5084 14.3013 40.2016 14.6075C39.8949 14.9136 39.4792 15.0856 39.0458 15.0856ZM10.4142 52.1886C10.4133 52.8117 10.5355 53.4288 10.7736 54.0046C11.0117 54.5804 11.3612 55.1035 11.8019 55.5439C12.2427 55.9843 12.766 56.3334 13.3419 56.5712C13.9179 56.8089 14.5351 56.9306 15.1581 56.9294H18.2982V66.611C18.2982 67.7754 18.7608 68.8922 19.5842 69.7156C20.4076 70.539 21.5243 71.0016 22.6888 71.0016C23.8532 71.0016 24.97 70.539 25.7934 69.7156C26.6168 68.8922 27.0794 67.7754 27.0794 66.611V56.9294H32.9335V66.611C32.9335 67.775 33.3959 68.8913 34.219 69.7144C35.0421 70.5375 36.1585 70.9999 37.3225 70.9999C38.4865 70.9999 39.6029 70.5375 40.426 69.7144C41.2491 68.8913 41.7115 67.775 41.7115 66.611V56.9294H44.8548C45.477 56.9298 46.0933 56.8075 46.6682 56.5696C47.2432 56.3317 47.7657 55.9827 48.2057 55.5427C48.6457 55.1027 48.9946 54.5803 49.2325 54.0053C49.4705 53.4304 49.5927 52.8141 49.5923 52.1919V23.8022H10.4142V52.1886ZM4.38899 23.0471C3.22492 23.0488 2.10907 23.5122 1.28625 24.3356C0.463434 25.159 0.00085342 26.2752 0 27.4393V45.7342C-8.58858e-09 46.3106 0.113524 46.8813 0.334091 47.4138C0.554658 47.9463 0.877949 48.4302 1.2855 48.8377C1.69306 49.2453 2.1769 49.5686 2.70939 49.7891C3.24189 50.0097 3.81262 50.1232 4.38899 50.1232C4.96535 50.1232 5.53608 50.0097 6.06858 49.7891C6.60107 49.5686 7.08491 49.2453 7.49247 48.8377C7.90002 48.4302 8.22331 47.9463 8.44388 47.4138C8.66444 46.8813 8.77797 46.3106 8.77797 45.7342V27.4393C8.77626 26.2758 8.3133 25.1604 7.49058 24.3377C6.66785 23.515 5.55249 23.052 4.38899 23.0503V23.0471ZM55.611 23.0471C54.4469 23.0488 53.3311 23.5122 52.5083 24.3356C51.6855 25.159 51.2229 26.2752 51.222 27.4393V45.7342C51.222 46.3106 51.3356 46.8813 51.5561 47.4138C51.7767 47.9463 52.1 48.4302 52.5075 48.8377C52.9151 49.2453 53.3989 49.5686 53.9314 49.7891C54.4639 50.0097 55.0346 50.1232 55.611 50.1232C56.1874 50.1232 56.7581 50.0097 57.2906 49.7891C57.8231 49.5686 58.3069 49.2453 58.7145 48.8377C59.122 48.4302 59.4453 47.9463 59.6659 47.4138C59.8865 46.8813 60 46.3106 60 45.7342V27.4393C59.9983 26.2758 59.5353 25.1604 58.7126 24.3377C57.8899 23.515 56.7745 23.052 55.611 23.0503V23.0471Z" fill="white"/>
</svg>
