<svg width="40" height="41" viewBox="0 0 40 41" fill="none" xmlns="http://www.w3.org/2000/svg">
<path d="M17.4904 1.06634C14.6825 1.43233 11.3706 2.6823 8.92861 4.31826C6.90865 5.64623 4.13471 8.35817 4.31071 8.82016C4.6967 9.82214 10.8706 20.1359 10.9706 19.9439C11.0466 19.8099 11.1606 19.3859 11.2166 18.9639C11.7165 16.194 14.0665 13.5561 17.0104 12.4581C18.1464 12.0161 18.3764 12.0161 28.0002 11.9181L37.834 11.8241L37.044 10.5321C34.274 6.01222 30.0001 2.89429 24.6503 1.50833C23.1883 1.12233 19.0304 0.87034 17.4904 1.06634Z" fill="white"/>
<path d="M2.40571 11.4234C1.49973 13.0213 0.439758 16.2533 0.191764 18.1392C-0.98421 26.685 3.32769 34.9388 10.9495 38.7688C12.7375 39.6727 15.2974 40.5387 16.4134 40.6347L17.1254 40.6927L20.4733 35.0168C22.3033 31.8989 23.7832 29.319 23.7452 29.281C23.7052 29.243 23.2832 29.359 22.7833 29.531C19.6453 30.5909 16.0094 29.703 13.6435 27.299C12.7955 26.451 11.6395 24.5851 7.96359 18.2152C5.42565 13.8093 3.28969 10.1914 3.2117 10.1914C3.1557 10.1914 2.78971 10.7494 2.40571 11.4234Z" fill="white"/>
<path d="M26.3057 14.5969C28.7497 17.0809 29.6156 20.6028 28.5377 23.7767C28.3657 24.2967 26.1137 28.3186 23.5358 32.7465C20.9558 37.1524 18.8379 40.8083 18.8379 40.8663C18.8379 41.0963 21.4938 40.9803 23.1878 40.6923C31.8276 39.2124 38.3335 32.6885 39.7174 24.1407C40.2374 21.0248 40.0454 18.2908 39.1034 15.1349L38.6034 13.4609H25.1897L26.3057 14.5969Z" fill="white"/>
<path d="M17.2227 14.1154C15.2027 14.9634 13.8168 16.3894 13.0668 18.4093C12.7208 19.3153 12.6628 19.8353 12.7208 21.2573C12.7808 22.7572 12.8568 23.1832 13.4148 24.2792C14.1468 25.7792 15.3387 26.9371 16.9167 27.6851C17.8407 28.1271 18.2247 28.1851 19.9966 28.1851C21.7866 28.1851 22.1506 28.1271 23.1146 27.6651C24.5385 27.0131 26.0385 25.5112 26.6945 24.0852C27.1545 23.1252 27.2125 22.7592 27.2125 20.9693C27.2125 19.1973 27.1545 18.8133 26.7125 17.8893C25.9625 16.3134 24.8085 15.1174 23.3065 14.3894C22.1706 13.8294 21.8226 13.7534 20.1866 13.6934C18.6107 13.6554 18.2067 13.7134 17.2267 14.1174L17.2227 14.1154Z" fill="white"/>
</svg>
