<svg width="60" height="55" viewBox="0 0 60 55" fill="none" xmlns="http://www.w3.org/2000/svg">
<path d="M40.4441 53.0056C40.4441 52.8628 40.4917 52.7201 40.4441 52.5773C40.3489 52.4346 40.3013 52.3394 40.2062 52.2443C39.9683 51.9588 39.7304 51.7209 39.4449 51.4354L36.6376 48.5805L38.8263 46.3442L40.0159 45.0595C40.2062 44.8691 40.4441 44.4885 40.4441 44.203V44.0127C40.4441 43.5845 40.2538 43.3466 39.8255 43.2514L39.9207 43.299H39.5876C39.3021 43.299 38.4933 44.0603 38.3029 44.2982C37.5892 45.0119 37.1134 45.678 36.1618 46.3918V40.7296C36.1618 40.2062 35.8763 39.9683 35.3529 39.9683H35.2102C34.6868 39.9683 34.2585 40.2062 34.2585 40.7296V53.0531C34.2585 53.5765 34.6868 53.7669 35.2102 53.7669H35.3529C35.8763 53.7669 36.1618 53.5289 36.1618 53.0531V50.8644L37.5892 52.2443C38.0174 52.6725 38.4457 52.958 38.8263 53.3386C39.0167 53.5289 39.3973 53.7669 39.6828 53.7669H39.8255C40.3013 53.7669 40.4441 53.5289 40.5393 53.1483L40.4441 53.1959V53.0056ZM59.0484 43.299H58.858C57.8113 43.299 56.8596 43.5845 56.0032 44.203C54.5757 45.2498 53.7669 46.6297 53.7669 48.4377V53.1007C53.7669 53.6241 53.9572 53.7669 54.4806 53.7669H54.6233C55.1467 53.7669 55.6701 53.5765 55.6701 53.1007V48.7232C55.6701 47.7716 55.8604 46.8676 56.5742 46.1538C57.1451 45.5829 57.8588 45.1071 58.6677 45.1071C59.2863 45.1071 60 44.9643 60 44.203C60 43.632 59.5718 43.299 59.0484 43.299ZM51.7209 45.678C51.1975 44.8216 50.4837 44.1554 49.5797 43.7272C47.9144 42.9183 46.1538 42.8232 44.5361 43.7748L44.2982 43.9175C43.632 44.2982 43.0611 44.774 42.6328 45.3925C41.3957 47.2006 41.253 49.2466 42.3473 51.1499L42.4425 51.3402C42.9183 52.1491 43.5369 52.8152 44.3458 53.2435C46.0587 54.1951 47.9144 54.2902 49.6273 53.3386L49.77 53.2435C50.2458 52.958 50.341 52.4822 50.1031 52.0063C50.0079 51.816 49.8176 51.6733 49.6273 51.5781H49.5321C49.199 51.5305 48.295 51.9112 47.9619 52.0539C47.2958 52.1491 46.5345 52.1967 45.8684 51.9588L49.4845 48.8184C50.0079 48.3426 50.5789 47.8192 51.1499 47.391C51.6257 47.0103 52.1015 46.4869 51.7209 45.8208V45.678ZM48.4377 47.391L44.3933 50.8644C44.2506 50.7217 44.1554 50.5313 44.0603 50.3886C43.7748 49.9128 43.5845 49.3418 43.5845 48.7708C43.5369 47.3434 44.0603 46.1538 45.345 45.4401C46.2966 44.8692 47.3434 44.774 48.3902 45.1546C48.9136 45.345 49.5321 45.678 49.8652 46.1538C49.3894 46.5821 48.866 46.9627 48.4377 47.391ZM9.99207 39.9683H9.84933C9.32593 39.9683 9.04044 40.1586 9.04044 40.682V44.5361C8.08882 43.6796 6.94687 43.3465 5.61459 43.3465H5.23394C4.3299 43.3465 3.47343 43.4893 2.66455 43.9651C0.951626 44.9643 0 46.4393 0 48.4377V48.8184C0 49.7224 0.237906 50.4837 0.713719 51.2926C1.71293 53.0056 3.28311 53.862 5.23394 53.862H5.61459C6.51864 53.862 7.47026 53.7193 8.23156 53.291C9.94449 52.2918 10.9437 50.8168 10.9437 48.866V40.7772C10.9437 40.1586 10.5155 39.9683 9.99207 39.9683ZM8.51705 50.341C7.80333 51.5305 6.75654 52.1967 5.37669 52.1967C4.80571 52.1967 4.23473 52.0539 3.75892 51.7684C2.52181 51.1023 1.80809 50.0079 1.80809 48.5805C1.80809 48.0571 1.90325 47.5813 2.14116 47.1055C2.8073 45.7256 3.90167 44.9643 5.42427 44.9643C6.18557 44.9643 6.85171 45.2022 7.42268 45.6305C8.42189 46.3442 8.99286 47.2958 8.99286 48.5329C9.04044 49.199 8.85012 49.77 8.51705 50.341ZM17.4147 43.299H17.1293C16.2252 43.299 15.3212 43.4417 14.5599 43.9175C12.8469 44.9167 11.8953 46.3918 11.8953 48.3902V48.7708C11.8953 49.6749 12.1332 50.4362 12.609 51.245C13.6082 52.958 15.1784 53.8144 17.1768 53.8144H17.5575C18.4615 53.8144 19.3656 53.6717 20.1745 53.2435C21.8874 52.2443 22.8866 50.7692 22.8866 48.8184V48.4377C22.8866 47.5813 22.6011 46.8676 22.2205 46.1538C21.1737 44.2506 19.5083 43.299 17.4147 43.299ZM20.46 50.341C19.7462 51.483 18.747 52.1967 17.3672 52.1967C16.7486 52.1967 16.1301 52.0539 15.5591 51.7209C14.3695 51.0071 13.7034 50.0079 13.7034 48.6281C13.7034 48.1047 13.7986 47.6289 14.0365 47.1531C14.7026 45.7732 15.797 45.0119 17.3196 45.0119C18.0333 45.0119 18.6519 45.2022 19.2228 45.5829C20.2696 46.2966 20.8882 47.2958 20.8882 48.5805C20.9358 49.1515 20.793 49.77 20.46 50.341ZM32.1174 43.9651L32.0698 44.0127C31.2609 43.4893 30.3569 43.299 29.4052 43.299H29.0246C28.1205 43.299 27.2165 43.4417 26.4552 43.9175C24.7423 44.9167 23.7906 46.3918 23.7906 48.3426V48.7232C23.7906 49.199 23.8858 49.6273 23.981 50.1031C24.7423 52.7201 26.7883 54.1951 29.548 54.0048C30.3093 53.9572 32.3553 53.7193 32.3553 52.5773V52.387C32.3553 51.9588 32.0222 51.5781 31.6416 51.4829L31.594 51.3878H31.2609L31.1657 51.5305C30.7375 51.7209 30.0238 52.1015 29.548 52.1015C28.977 52.1015 28.3584 52.1015 27.8351 51.816C26.4552 51.1499 25.6463 50.0555 25.6463 48.5329C25.6463 48.0095 25.7415 47.5337 25.9794 47.0579C26.6455 45.7256 27.7399 44.8692 29.2625 44.9167C29.548 44.9167 30.0714 45.0595 30.3569 45.2022C30.5948 45.2974 31.2133 45.678 31.4988 45.678H31.594L31.6416 45.5829C32.0698 45.4877 32.4029 45.1546 32.4029 44.7264V44.5361C32.4029 44.3458 32.3077 44.203 32.2125 44.0603L32.1174 43.9651ZM2.2839 29.1197L2.33148 29.2149C6.0904 35.5908 12.6566 38.2554 19.8414 38.2554C33.7351 38.2554 45.2022 32.0222 50.4362 18.9374C53.9572 19.1277 57.5734 18.0809 59.2863 14.7026L59.7145 13.8462L58.858 13.3703C56.8121 12.1808 54.0999 12.0381 51.816 12.7042C51.5305 10.23 49.9128 8.08882 48.0095 6.56622L47.2482 5.94766L46.6297 6.70896C45.345 8.18398 44.9643 10.6582 45.1546 12.5615C45.2974 13.9413 45.7256 15.3688 46.5821 16.5107C45.9159 16.8914 45.2022 17.4148 44.5361 17.6527C43.2038 18.1285 41.7288 18.6043 40.3013 18.6043H37.1134V11.8953H30.9278V0H23.7906V5.70975H11.8953V11.8953H5.70975V18.5567H0.38065L0.285488 19.2704C0.0475813 22.3156 0.428232 25.2657 1.71293 28.073L2.2839 29.1197ZM30.9278 13.3228H36.1618V18.5567H30.9278V13.3228ZM24.7423 0.951626H29.9762V6.18557H24.7423V0.951626ZM24.7423 7.13719H29.9762V12.3711H24.7423V7.13719ZM24.7423 13.3228H29.9762V18.5567H24.7423V13.3228ZM18.5567 7.13719H23.7906V12.3711H18.5567V7.13719ZM18.5567 13.3228H23.7906V18.5567H18.5567V13.3228ZM19.0801 28.1681C19.0801 28.977 18.414 29.6431 17.6051 29.6431C16.7962 29.6431 16.1301 28.977 16.1301 28.1681C16.1301 27.3592 16.7962 26.6931 17.6051 26.6931C18.414 26.7407 19.0801 27.3592 19.0801 28.1681ZM12.8469 7.13719H17.6051V12.3711H12.8469V7.13719ZM12.8469 13.3228H17.6051V18.5567H12.8469V13.3228ZM6.66138 13.3228H11.8953V18.5567H6.66138V13.3228ZM7.80333 31.4036C8.56463 31.4036 9.32593 31.4036 10.0397 31.3561C11.8953 31.2609 13.5131 31.023 14.8454 30.6423C15.9397 33.1642 17.9381 35.4956 21.5067 37.2086L19.8414 37.2561C12.3236 37.2086 8.27914 34.6868 4.94845 31.3561C5.94766 31.4036 6.89929 31.4036 7.80333 31.4036ZM17.6051 29.2149C18.1761 29.2149 18.6519 28.7391 18.6519 28.1681C18.6519 28.0254 18.6043 27.8826 18.5567 27.7875C18.4615 27.9302 18.3664 28.0254 18.1761 28.0254C17.9381 28.0254 17.7478 27.8351 17.7478 27.5971C17.7478 27.4544 17.843 27.3117 17.9381 27.2165C17.8906 27.1689 17.7478 27.1213 17.6051 27.1213C17.0341 27.1213 16.5583 27.5971 16.5583 28.1681C16.6059 28.7391 17.0341 29.2149 17.6051 29.2149Z" fill="white"/>
</svg>
