<svg width="29" height="40" viewBox="0 0 29 40" fill="none" xmlns="http://www.w3.org/2000/svg">
<path d="M25.1843 13.3317C26.4279 12.399 27.3465 11.0987 27.81 9.61488C28.2735 8.1311 28.2584 6.53909 27.7668 5.06436C27.2752 3.58964 26.3321 2.30697 25.0711 1.39804C23.81 0.489106 22.2949 0 20.7404 0H7.40869C5.85419 0 4.3391 0.489106 3.07803 1.39804C1.81696 2.30697 0.873836 3.58964 0.382261 5.06436C-0.109313 6.53909 -0.124421 8.1311 0.339079 9.61488C0.80258 11.0987 1.72119 12.399 2.96479 13.3317C2.0232 14.0374 1.26329 14.9572 0.74799 16.015C0.232696 17.0728 -0.02315 18.2382 0.00164482 19.4146C0.0264397 20.591 0.331161 21.7446 0.89057 22.7798C1.44998 23.8149 2.24797 24.7019 3.21846 25.3673C2.11459 26.2065 1.24319 27.3137 0.686792 28.5838C0.130389 29.854 -0.0926084 31.2451 0.0389134 32.6256C0.170435 34.006 0.652123 35.33 1.43837 36.4723C2.22461 37.6145 3.2894 38.5371 4.53189 39.1529C5.77439 39.7686 7.15348 40.0569 8.53857 39.9907C9.92367 39.9244 11.2689 39.5058 12.447 38.7743C13.6251 38.0428 14.5969 37.0227 15.2706 35.8107C15.9442 34.5986 16.2973 33.2347 16.2965 31.848V25.1821C17.0746 25.7657 17.96 26.1903 18.9022 26.4317C19.8444 26.6731 20.825 26.7265 21.7878 26.589C22.7507 26.4514 23.677 26.1256 24.514 25.63C25.3509 25.1345 26.082 24.4789 26.6656 23.7008C27.2492 22.9227 27.6738 22.0373 27.9152 21.0951C28.1566 20.1529 28.21 19.1723 28.0725 18.2095C27.9349 17.2466 27.6091 16.3203 27.1135 15.4833C26.618 14.6464 25.9624 13.9153 25.1843 13.3317ZM25.1843 7.4065C25.1843 8.5851 24.7161 9.71543 23.8827 10.5488C23.0493 11.3822 21.919 11.8504 20.7404 11.8504H16.2965V2.9626H20.7404C21.919 2.9626 23.0493 3.4308 23.8827 4.26419C24.7161 5.09758 25.1843 6.22791 25.1843 7.4065ZM2.96479 7.4065C2.96479 6.22791 3.43298 5.09758 4.26637 4.26419C5.09977 3.4308 6.23009 2.9626 7.40869 2.9626H13.3339V11.8504H7.40869C6.23009 11.8504 5.09977 11.3822 4.26637 10.5488C3.43298 9.71543 2.96479 8.5851 2.96479 7.4065ZM7.40869 23.7008C6.23009 23.7008 5.09977 23.2326 4.26637 22.3992C3.43298 21.5658 2.96479 20.4355 2.96479 19.2569C2.96479 18.0783 3.43298 16.948 4.26637 16.1146C5.09977 15.2812 6.23009 14.813 7.40869 14.813H13.3339V23.7008H7.40869ZM13.3339 31.848C13.3339 32.8734 13.0298 33.8758 12.4601 34.7284C11.8905 35.5809 11.0807 36.2455 10.1334 36.6379C9.18603 37.0303 8.14359 37.133 7.13788 36.9329C6.13218 36.7329 5.20838 36.2391 4.48331 35.514C3.75823 34.7889 3.26445 33.8651 3.0644 32.8594C2.86436 31.8537 2.96703 30.8113 3.35944 29.8639C3.75184 28.9166 4.41636 28.1069 5.26895 27.5372C6.12155 26.9675 7.12393 26.6634 8.14934 26.6634H13.3339V31.848ZM20.7404 23.7008C19.8615 23.7008 19.0023 23.4402 18.2715 22.9519C17.5407 22.4636 16.9711 21.7695 16.6348 20.9575C16.2984 20.1455 16.2104 19.252 16.3819 18.39C16.5534 17.5279 16.9766 16.7361 17.5981 16.1146C18.2196 15.4931 19.0114 15.0699 19.8734 14.8984C20.7355 14.7269 21.629 14.8149 22.441 15.1513C23.253 15.4876 23.9471 16.0572 24.4354 16.788C24.9237 17.5188 25.1843 18.378 25.1843 19.2569C25.1843 20.4355 24.7161 21.5658 23.8827 22.3992C23.0493 23.2326 21.919 23.7008 20.7404 23.7008Z" fill="white"/>
</svg>
