<svg width="60" height="61" viewBox="0 0 60 61" fill="none" xmlns="http://www.w3.org/2000/svg">
<path d="M7.89369 33.2213C7.96397 33.3091 8.05433 33.3945 8.13966 33.4748L8.1999 33.53L8.21998 33.54C8.36204 33.6136 8.51306 33.6685 8.66926 33.7032C8.3939 32.2493 8.27776 30.7698 8.32289 29.2907C8.39065 27.2903 8.76965 25.6012 9.48247 24.1228C9.72947 23.6788 9.9932 23.2443 10.2731 22.8202C10.2731 22.8202 9.83135 25.8371 9.76609 27.0193C9.69223 28.593 9.82727 30.1696 10.1677 31.7078L10.3484 31.5823C10.2405 30.6059 10.243 29.5744 10.3584 28.5202C10.5243 27.0416 10.8777 25.59 11.4101 24.2006C12.0391 22.5292 12.8586 20.9358 13.8522 19.4519C8.87005 19.9764 7.78325 24.7227 7.78325 24.7227C7.78325 24.7227 7.82592 23.8517 7.84349 23.6334C7.98656 22.0044 8.15221 21.2214 8.35803 20.4031C8.03174 21.0005 7.82592 21.628 7.67784 22.1299C7.32896 23.3096 7.1357 24.5119 6.99263 25.5334C6.83506 26.6047 6.75454 27.6859 6.75168 28.7687C6.7567 29.7224 6.81192 30.8469 7.19342 31.9387C7.37665 32.4532 7.60505 32.8749 7.89369 33.2213ZM11.508 31.3715C11.9572 31.0878 12.4743 30.8695 13.0792 30.6988C14.1459 30.4001 15.3105 30.0989 16.7462 29.7475L17.2231 29.6321C18.4228 29.3409 19.6677 29.0372 20.8348 28.5905C21.5451 28.3194 22.2203 27.963 22.903 27.4961C23.8568 26.8436 24.7126 26.0429 25.443 25.1092C25.8296 24.6173 26.0253 24.2333 26.2186 23.5907L26.5047 22.642C26.5047 22.642 27.6693 23.9446 26.4947 26.2462C27.2401 25.9776 27.9555 25.2096 28.4976 24.2684C28.9519 23.4778 29.73 20.6265 29.73 20.6265C29.73 20.6265 31.1581 22.8227 29.4664 25.6739C29.7883 25.5246 30.0888 25.333 30.36 25.1042C36.6523 18.8545 31.2359 15.318 30.1014 14.4722C29.3429 13.924 28.5139 13.4807 27.6367 13.1545L27.4911 13.0967C27.4158 13.0641 27.3732 13.0139 27.3531 12.9913L26.5474 12.1129L27.9605 12.5019C28.1588 12.5546 28.347 12.6073 28.5327 12.6625C30.0738 13.1193 31.2485 13.6665 32.2273 14.3843C33.3443 15.2001 37.6036 18.7792 33.1008 24.0149C34.4963 23.5355 37.1317 22.0772 38.0252 20.8223C42.3247 14.7859 37.3877 11.2645 37.5986 11.2645C37.6463 11.2645 37.709 11.2695 37.847 11.2896C37.9043 11.2992 37.9622 11.3042 38.0202 11.3047C38.1106 11.3047 38.2637 11.2896 38.2938 11.2018C38.3315 11.0963 38.2587 10.8956 38.1106 10.7801C37.7241 10.4864 37.3049 10.2731 36.7728 10.3559C32.3252 11.0436 30.754 9.66318 30.754 9.66318C30.754 9.66318 36.9836 9.98696 37.1844 8.96041C36.2849 8.04201 35.2476 7.26969 34.1098 6.67136C32.3702 5.72518 30.477 5.09385 28.5177 4.80649C25.4882 4.35722 23.1716 4.93952 23.1716 4.93952C23.4125 4.63582 24.6123 3.2654 29.5869 3.65695C31.5999 3.81507 33.5124 4.45008 35.2844 5.33608C35.7412 5.56449 36.0123 5.02234 36.0198 4.77637C36.0299 4.49024 36.5243 5.72763 36.5293 5.79289C36.577 5.6699 36.7703 5.01983 36.8105 5.01983C36.9284 5.01983 37.4128 6.53332 37.4128 6.53332C37.4179 6.47308 38.0579 5.81548 38.0579 5.81548C38.2486 6.67638 38.2235 7.10558 38.1758 7.22605C38.1809 7.20346 38.846 6.79435 38.846 6.79435C38.846 6.79435 39.2275 8.39567 39.8801 9.03068C40.0909 9.2365 40.4774 9.77362 40.7033 10.3534C41.1802 10.0196 41.76 8.34799 41.76 8.34799C41.76 8.34799 42.0587 9.23399 41.8077 10.8278C41.8253 10.8077 42.5632 10.2781 42.5632 10.2781C42.5632 10.2781 42.6686 11.4051 42.1867 12.8081C42.1615 12.8859 42.1431 12.9656 42.1315 13.0466C42.5381 12.8181 43.1455 12.0727 43.1455 12.0727L43.0401 12.5446C42.9196 13.0817 42.6962 14.1233 42.2193 14.9365C41.8937 15.4717 41.6485 16.0518 41.4914 16.6583C41.6144 16.5454 41.7399 16.445 41.873 16.3571C42.1239 16.194 42.3724 16.0635 42.6084 15.9781L43.1907 15.7648C44.1745 15.4084 45.1685 14.9892 46.1348 14.5625C48.1728 13.6615 47.7185 12.404 47.7185 12.404C47.194 13.4281 45.294 14.4521 45.294 14.4521C45.294 14.4521 47.7537 12.2484 46.7045 9.67071C46.4159 10.3484 46.1423 11.021 45.8838 11.6586C45.5224 12.5446 45.0957 13.4808 44.403 14.3065C44.0491 14.7282 43.6851 15.0344 43.2835 15.2427C43.1912 15.2916 43.0946 15.3319 42.9949 15.3632L42.887 15.4034C42.887 15.4034 43.3187 14.6931 43.3488 12.7353C43.3588 12.0275 43.3789 11.3022 43.3789 10.6621V10.5266C43.3789 10.1953 43.3714 9.86649 43.3739 9.53518C43.3864 8.13464 43.4115 7.07044 43.7052 6.08906C43.6751 6.03384 43.6926 5.97611 43.66 5.91839C43.5922 5.80293 43.542 5.6699 43.4818 5.52433C43.3915 5.30095 43.3162 5.07756 43.2283 4.8341C42.9095 3.93053 42.4553 3.48377 42.3122 3.35827C42.2168 3.64691 41.632 4.84163 41.632 4.84163C41.632 4.84163 41.6345 3.92551 41.6295 3.85523C41.4613 2.57267 38.2913 1.41559 38.226 1.37543L38.3942 2.38191C38.3942 2.38191 37.4354 2.31163 37.0263 1.6691C36.941 1.53858 36.8155 1.4432 36.7 1.35536L36.9259 2.12339L37.1593 2.66051C37.1593 2.66051 36.4164 2.60027 36.0675 1.98534C35.9847 1.84228 35.8793 1.68164 35.7864 1.51097C35.6454 1.24048 35.4404 1.00853 35.1893 0.835305C34.9383 0.662081 34.6486 0.552826 34.3457 0.517043C33.8449 0.447084 33.3418 0.395179 32.8373 0.361428C32.4226 0.346615 32.0146 0.252913 31.635 0.0853372L31.4392 0L31.5547 0.218363C31.5923 0.29115 31.6174 0.363938 31.6551 0.456805L31.6752 0.512023L31.7555 0.707797L31.876 1.1395C31.876 1.1395 30.99 1.10436 29.9559 0.389037C29.7325 0.233422 29.4514 0.233422 29.1401 0.208323L29.0523 0.200793C28.7751 0.178072 28.4971 0.16635 28.219 0.165655C27.3894 0.159054 26.5641 0.28531 25.7743 0.539632C25.8622 0.534612 25.9525 0.532103 26.0404 0.532103L26.2086 0.534612C27.9078 0.564731 28.4349 1.57121 28.4349 1.57121C28.4349 1.57121 26.9138 1.57121 26.4646 1.62894C25.94 1.6967 25.4104 1.75945 24.9185 1.89499C23.4534 2.31345 22.0747 2.99002 20.8474 3.89288C20.5361 4.11375 20.2124 4.31957 19.871 4.53542C19.2937 4.90438 18.8068 5.3913 18.4253 5.98364C18.3909 6.03734 18.3623 6.09455 18.34 6.15432C18.3048 6.24467 18.3199 6.2522 18.3776 6.28232C18.5118 6.34935 18.6533 6.40072 18.7993 6.43543C19.9705 6.71697 21.0277 7.34994 21.8289 8.24943C22.6302 9.14893 23.1372 10.2719 23.282 11.4678L23.3196 11.7765C23.4075 12.5471 23.5004 13.3402 23.4602 14.1459C23.3872 16.1902 22.585 18.1409 21.1988 19.6451C19.7179 21.2665 17.8781 21.377 17.8957 21.3644C18.9875 20.3454 19.7079 18.98 20.0944 17.198C20.2372 16.4999 20.1637 15.7749 19.8836 15.1197C19.8691 15.1587 19.8557 15.198 19.8434 15.2377C19.5999 15.9304 19.2912 16.7286 18.7215 17.3887C18.3902 17.7652 17.9384 18.1969 17.4138 18.6964C15.1273 20.8725 11.3022 24.5119 11.3674 30.2997C11.3674 30.6386 11.4352 31.0527 11.508 31.3715ZM46.564 16.7236C46.2804 16.9696 45.9967 17.2155 45.7081 17.4565C45.1936 17.8857 44.8271 18.1593 44.0365 18.4454C43.3438 18.6939 42.8117 18.1342 42.8117 18.1342C43.2558 17.8994 43.6398 17.5653 43.9336 17.1578C42.9193 17.6685 41.9503 18.2647 41.0371 18.9398C40.6804 19.1987 40.353 19.4958 40.0608 19.8258C39.7496 20.2174 39.5463 20.624 39.5463 21.0406V21.0457C39.5463 21.0381 39.6567 21.0331 39.6793 21.0281C40.7463 20.7303 41.7781 20.3179 42.7564 19.7982C44.2828 18.9953 45.7558 18.0949 47.1664 17.1026C47.2389 17.0499 47.3194 17.0093 47.4048 16.9821L48.336 16.7161L47.7637 17.5042C47.7433 17.5343 47.7207 17.5628 47.696 17.5895C45.8261 19.4494 43.8884 20.7821 41.7726 21.6606C41.3693 21.8288 40.957 21.9746 40.5377 22.0973C41.8394 21.7693 43.1101 21.3284 44.3352 20.7796C45.683 20.1672 46.6267 19.5673 47.3973 18.842C48.5895 17.7125 49.4404 16.3797 49.9298 14.8863C49.9557 14.8042 49.9759 14.7203 49.99 14.6353L49.7114 14.7182C49.3927 14.811 49.0639 14.9039 48.7752 15.0444C48.393 15.2441 48.0336 15.4848 47.7035 15.7623C47.3069 16.081 46.8978 16.4374 46.564 16.7236ZM3.84268 37.6161C4.16395 38.1307 4.51534 38.6377 4.85418 39.1271L4.90689 39.2049C4.02591 36.1027 5.4666 34.2303 5.4666 34.2303L5.82301 35.2116C5.91337 35.4651 6.05141 35.7111 6.24216 35.9696C6.61112 35.2794 7.0604 34.6193 7.58246 34.0019C7.11559 33.7462 6.71104 33.3905 6.39778 32.9602C5.8958 32.2976 5.56449 31.502 5.35616 30.4604C5.11227 29.1684 5.05396 27.8483 5.18298 26.5399C5.22063 26.1031 5.27334 25.6664 5.33106 25.2222C3.54982 27.2145 2.16472 29.5281 1.24994 32.0391C1.24831 32.057 1.25089 32.0751 1.25747 32.0918C1.87755 34.037 2.74649 35.8938 3.84268 37.6161ZM45.6152 8.41575C45.6001 6.75392 45.9122 5.10535 46.5339 3.56408L46.579 3.46118C46.3352 3.63123 46.1257 3.84583 45.9616 4.09368C45.5399 4.70108 45.2312 5.42393 44.9652 6.43292C44.5084 8.15723 44.2373 10.0146 44.1193 12.2258C44.6012 11.7113 45.3919 10.5768 45.555 9.17626C45.5826 8.94033 45.6152 8.67678 45.6152 8.41575ZM54.0686 56.1343C53.0747 55.9712 50.9714 55.2307 50.3841 53.7624C49.6612 55.5369 51.1521 56.827 52.2665 57.4043C52.4598 57.5047 52.5175 57.5298 52.7208 57.6101C52.9316 57.703 52.3067 58.85 52.8338 59.3771C53.3608 59.9042 53.8603 59.7486 54.0561 59.7486C54.0561 59.7486 54.9622 60.5894 55.4792 60.0272C55.6122 59.8816 55.7252 59.3696 55.552 59.0609C55.3361 58.6794 54.8116 58.7496 54.7614 58.7496C53.7323 58.7622 53.8252 58.2778 53.9808 58.072C54.0937 57.9239 54.3121 57.9339 54.4953 57.9339C54.538 57.9339 54.5807 57.9364 54.6284 57.944C54.8643 57.9716 55.0902 57.9841 55.301 57.9841C56.1418 57.9841 57.1232 57.8963 57.7733 57.5348C58.2401 57.2738 59.0057 56.3903 58.9655 55.798C58.9228 55.813 56.8948 56.5986 54.0686 56.1343ZM59.9017 36.5946C59.8063 36.3511 59.6883 36.1027 59.5854 35.8843L59.4348 35.568C59.3821 35.4501 59.3244 35.3346 59.2692 35.2192C59.1311 34.9406 58.9881 34.6519 58.8902 34.3407C58.8049 34.0746 58.7823 33.7986 58.7597 33.5375C58.637 32.0861 58.1352 30.6924 57.3044 29.496C56.4736 28.2996 55.3431 27.3425 54.026 26.7206C53.9138 27.1004 53.7307 27.4555 53.4863 27.7672C53.2604 28.0684 53.1249 28.1136 52.8287 28.1136C52.4347 28.1136 52.377 27.6618 52.4949 27.4485C52.7486 27.0317 52.9159 26.5682 52.9869 26.0856C53.0697 25.1393 52.5426 24.1128 51.8951 23.405C51.2952 22.7499 50.2661 21.9894 49.4378 21.7409C49.2396 22.5114 49.4805 23.779 49.7491 24.5244C50.0804 25.428 51.1145 27.2075 50.866 28.2868C50.866 28.2868 50.7932 28.977 50.103 29.4112C49.719 29.6522 49.5633 29.5442 49.5633 29.5442C50.3013 27.9705 50.3088 27.3079 49.4931 25.817C48.8781 24.6951 48.5945 23.5606 48.8154 22.3081C48.8229 22.2579 48.8405 22.2078 48.8505 22.1576C48.7851 22.3276 48.7114 22.4942 48.6297 22.657C48.0022 23.7589 47.4098 24.3311 47.0534 25.4706C46.6794 26.7457 47.0785 28.1286 47.8691 29.4815C47.513 29.2568 47.2064 28.9621 46.9678 28.6152C46.7291 28.2682 46.5636 27.8764 46.4812 27.4635C45.175 28.1974 44.035 29.1939 43.1329 30.3901C42.9321 30.6511 42.6937 30.8695 42.4829 31.0627C41.0648 32.3554 39.365 33.2999 37.5182 33.8211C36.2809 34.1851 35.0058 34.4913 33.7484 34.795L33.4196 34.8728C31.7053 35.2869 29.8831 35.7538 28.1563 36.5218C26.1684 37.4053 24.5922 38.4218 23.3422 39.6316C21.5282 41.3618 20.3548 43.6562 20.0141 46.1398C19.728 48.1001 19.876 50.1431 20.4659 52.3895C20.4859 52.4698 17.8807 50.0277 19.226 42.9999C19.0286 42.9904 18.8312 42.9845 18.6336 42.9823L18.4655 42.9848C13.6138 43.1304 11.5958 45.8035 11.5958 45.8035C11.5958 45.8035 11.9121 42.8368 16.583 41.8403C16.9344 41.765 19.876 41.1049 19.9764 41.0723C20.363 40.2842 20.8323 39.5362 21.3745 38.841L20.9578 38.9062C20.1571 39.0317 19.3314 39.1572 18.5106 39.2651L17.8781 39.3404C16.4299 39.5262 14.9315 39.7144 13.5109 40.1336C12.02 40.5703 10.8529 41.2028 9.94178 42.0612C8.96543 42.9798 8.26516 44.167 7.80333 45.6805L7.74561 45.8963C7.71298 46.0218 7.68035 46.1499 7.63266 46.2753C7.58246 46.4059 7.57242 46.5514 7.67784 46.8275C8.55129 49.1442 10.0497 51.1521 12.1304 52.7911C13.7536 54.0635 15.5727 55.0638 17.5167 55.7528C17.582 55.7754 17.6924 55.813 17.7903 55.9134L18.6637 56.7593L17.2984 56.433C17.1377 56.3953 16.9796 56.3602 16.819 56.315C14.0229 55.547 11.5858 54.2544 9.57785 52.4698C8.89264 52.2213 5.3913 50.477 3.90543 47.6106L3.65695 47.1337C3.65695 47.1337 5.55696 49.0061 6.88972 49.2797C6.29642 48.3197 5.82112 47.2915 5.47413 46.2176C5.4464 46.1381 5.40476 46.0642 5.35114 45.9993C3.07716 43.1605 1.44822 40.2942 0.373978 37.2321C0.296465 37.015 0.22532 36.7957 0.160635 36.5745C0.0527083 37.4655 0 38.3566 0 39.2275C0 39.5036 2.39697 45.8712 2.39697 45.8712C2.39697 45.8712 1.34281 44.6991 0.469355 43.2132C0.469355 43.2132 0.31625 42.7138 0.29617 42.6811C0.670148 44.9325 1.39802 47.0484 2.46223 49.0086C5.3913 54.3974 9.88155 57.9289 16.1915 59.5804C17.7931 60.0023 19.4421 60.2174 21.0984 60.2205L40.8138 60.238C41.7399 60.238 42.4502 60.1828 43.1103 60.0623L43.2132 60.0448C43.4451 59.9937 43.6812 59.9651 43.9185 59.9594C44.1846 59.9619 44.4682 59.9946 44.7845 60.0699L44.9401 60.1075C45.2312 60.1728 45.5023 60.238 45.7709 60.238C49.0839 60.2631 48.6246 58.2677 48.6246 58.2677C48.4866 57.7482 47.8842 57.3868 47.2266 57.2311C46.9964 57.1761 46.7605 57.1483 46.5238 57.1483C46.0746 57.1483 45.6027 57.2512 45.1208 57.4495L44.3979 57.7582L43.9662 57.9465C43.8855 57.9815 43.8035 58.0133 43.7202 58.0418C43.5838 58.0948 43.4397 58.1253 43.2936 58.1322C42.7941 58.1322 42.7715 57.6428 42.759 57.3491C42.7526 57.1709 42.7875 56.9936 42.8611 56.8312C42.9347 56.6688 43.0449 56.5256 43.1831 56.4129C43.4166 56.2146 43.6701 56.0214 43.9411 55.8406C44.4306 55.5093 44.935 55.168 45.3241 54.7212C45.7778 54.2281 46.0908 53.6222 46.2302 52.9668C46.3085 52.572 46.2702 52.163 46.1197 51.7896C46.0846 51.7018 46.052 51.6842 46.0193 51.6742C45.7135 51.5739 45.4055 51.4802 45.0957 51.3931C43.8708 51.0492 42.9698 50.5347 42.267 49.7792C41.8209 49.2735 41.4498 48.7063 41.1652 48.095C40.7248 47.2158 40.375 46.2941 40.121 45.3442C39.722 43.8357 38.7757 42.6259 37.2346 41.6496C36.0533 40.9105 34.7145 40.4599 33.3267 40.3344C32.9828 40.2967 32.6339 40.2817 32.265 40.2641C32.1721 40.2591 31.9588 40.2315 31.7429 40.2039C31.5497 40.1788 31.3589 40.1512 31.2711 40.1486L30.744 40.116C30.744 40.116 30.8795 39.9253 31.9713 39.5086C32.1771 39.4308 32.3905 39.4107 32.5988 39.3731C33.1033 39.2852 33.6028 39.24 34.0797 39.24C35.2292 39.24 36.316 39.5061 37.3124 40.0282C38.5523 40.6807 39.5412 41.6747 40.3394 43.0677C40.7736 43.8257 41.115 44.6389 41.3835 45.5575C41.4362 45.7332 41.4789 45.9089 41.5291 46.0997C41.6169 46.436 41.7073 46.7798 41.8353 47.0936C42.6058 48.9911 44.034 50.1005 46.0771 50.3941C46.6192 50.4719 47.1463 50.5096 47.6483 50.5096C48.5655 50.5143 49.4777 50.3746 50.3515 50.0954C51.4935 49.7215 52.3669 49.1367 53.017 48.3084C53.3099 47.9413 53.5274 47.5199 53.657 47.0685L53.7449 46.7648L54.2544 46.8853C54.3623 46.9129 54.4702 46.938 54.5807 46.9606C54.6584 46.9758 54.7374 46.9833 54.8166 46.9831C55.0475 46.9831 55.2834 46.9279 55.5395 46.8727L55.5821 46.8627C55.7729 46.82 55.9586 46.8125 56.1393 46.8049L56.2924 46.7974C56.4731 46.7974 56.6237 46.9179 56.6915 47.0308C56.7693 47.1639 56.8948 47.2392 57.1307 47.2919C57.1927 47.3042 57.2558 47.3101 57.319 47.3094C57.8938 47.3094 58.4986 46.7824 58.5137 46.2653C58.5212 46.067 58.4685 45.9466 58.338 45.8562C58.2351 45.7859 58.1297 45.7207 58.0092 45.6454L57.4369 45.2864L57.8185 44.9953C57.9243 44.9137 58.0538 44.8687 58.1874 44.8673C58.3004 44.8673 58.4008 44.8999 58.4886 44.9376C58.4886 44.9376 58.0092 42.4025 54.656 43.1405C54.656 43.1405 54.1113 43.3638 53.8327 43.4693L53.7022 43.5195C53.6215 43.5514 53.5355 43.5676 53.4487 43.5671C53.3023 43.5624 53.1592 43.5219 53.032 43.4492C51.8574 42.8594 50.7079 43.1204 50.5171 43.1204C50.0627 43.1248 49.6094 43.0751 49.1668 42.9723C49.0547 42.9476 48.953 42.8888 48.8756 42.8041L48.6598 42.5607C47.6452 42.6264 46.6291 42.4572 45.6905 42.0662C44.5962 41.5994 43.7228 40.8866 43.1932 39.7998C42.9324 39.2649 42.8033 38.6754 42.8167 38.0805L42.8819 38.2486C43.0928 38.8711 43.404 39.4383 43.8206 39.9504C44.5887 40.9016 45.5801 41.5416 46.7071 41.9909C47.317 42.2344 47.9495 42.4051 48.6246 42.518C48.6246 42.518 51.0216 42.6084 52.0883 41.7224C52.899 41.2706 53.6294 41.0597 54.3899 41.0597H54.548C57.1257 41.0572 57.3541 39.8098 57.3541 39.8098C57.3541 39.8098 57.6478 40.0006 58.0594 39.9378C58.4601 39.9008 58.834 39.7206 59.1125 39.4301C59.391 39.1396 59.5554 38.7585 59.5754 38.3566L58.722 37.5885L58.5413 37.4304L58.205 37.1643L58.4359 36.9008C58.4994 36.8243 58.5787 36.7625 58.6684 36.7196C58.7581 36.6767 58.856 36.6537 58.9554 36.6523C59.0709 36.6523 59.1839 36.6824 59.2918 36.7402C59.4449 36.8255 59.5804 36.9334 59.7034 37.0338L59.8314 37.1342L59.992 37.2597C60.0162 37.034 59.9852 36.8057 59.9017 36.5946ZM56.7216 35.9094C56.6262 36.1754 56.5008 36.2181 56.2222 36.1579C56.0729 36.1261 55.9202 36.1143 55.7679 36.1227C55.4893 36.1353 55.2132 36.183 54.9346 36.188C54.2393 36.2005 53.5717 36.075 53.0195 35.6233C52.2364 34.9807 52.0858 34.2202 52.5752 33.2564L52.5853 33.3493C52.5926 33.6564 52.6754 33.9569 52.8264 34.2244C52.9774 34.4919 53.192 34.718 53.4512 34.8828C53.903 35.1865 54.4175 35.3095 54.9446 35.3748C55.3713 35.4275 55.793 35.5003 56.1669 35.7312L56.2698 35.7839C56.2742 35.7775 56.2793 35.7716 56.2849 35.7663C56.2121 35.6634 56.187 35.307 56.2247 35.1589C56.2928 34.9153 56.2945 34.658 56.2297 34.4135C56.1086 34.729 55.8884 34.9968 55.6022 35.1765C55.566 35.2097 55.5183 35.2277 55.4692 35.2267C54.8977 35.1081 54.3454 34.9113 53.8277 34.6419C53.3608 34.3859 53.1174 33.9868 53.2404 33.4271C53.2604 33.3426 53.258 33.2544 53.2333 33.1712C53.2087 33.0879 53.1626 33.0126 53.0998 32.9527C53.0421 32.895 52.9919 32.8272 52.9316 32.7569C53.0697 32.6289 53.1877 32.5059 53.3207 32.398C53.4462 32.2976 53.5767 32.2022 53.7173 32.1244C54.8015 31.5095 56.2673 31.9713 56.7492 33.1008C56.8722 33.3869 56.9375 33.7032 56.9726 34.0119C57.0429 34.662 56.94 35.2945 56.7216 35.9094ZM4.84163 43.2534C4.79143 42.6586 4.7588 42.0637 4.72617 41.3559C4.7273 41.2979 4.70872 41.2413 4.67347 41.1953C3.09222 38.9138 1.94017 36.9385 1.04413 34.9807C0.893072 34.6553 0.751619 34.3255 0.61995 33.9918C1.17828 37.4026 2.63551 40.603 4.84163 43.2634V43.2534ZM52.5075 53.5516C52.9492 53.8453 53.4989 54.0611 54.3447 54.2719C55.1981 54.4853 55.9837 54.5857 56.7693 54.5857C57.2336 54.5857 57.6076 54.538 57.949 54.4376C58.3228 54.3388 58.6606 54.1354 58.9229 53.8513C59.1852 53.5672 59.361 53.2142 59.4298 52.8338C59.5727 52.2442 59.68 51.6466 59.7511 51.0442C59.8919 49.8574 59.5561 48.6631 58.8174 47.7236C58.7296 47.8014 58.6417 47.8767 58.5514 47.947C58.3968 48.0654 58.2303 48.1672 58.0544 48.2507C57.8281 48.3663 57.5781 48.4281 57.324 48.4314C57.0776 48.4304 56.8352 48.3684 56.6187 48.2507C56.2608 48.0686 55.8631 47.9789 55.4616 47.9896C55.3035 47.9896 55.1328 48.0022 54.9396 48.0223C54.8718 48.0298 54.8417 48.0448 54.804 48.1226C54.1565 49.4554 53.0898 50.4017 51.5462 51.0191L51.5035 51.0367L51.496 51.0693C51.4194 51.4452 51.4186 51.8326 51.4935 52.2088C51.629 52.7509 51.9578 53.1902 52.5075 53.5516ZM37.5057 23.8743C36.2106 25.192 34.6419 26.2788 32.5762 27.2979C31.2711 27.9404 29.8153 28.4047 27.9931 28.7586C26.9515 28.9619 25.9124 29.1577 24.8733 29.3535L24.6574 29.3911L22.007 29.8931C19.6752 30.3399 17.1879 30.8695 14.7985 31.6752C13.0641 32.2625 11.7263 32.8824 10.5893 33.6304C9.47494 34.3608 8.7069 35.1137 8.16727 35.9972C8.0302 36.2329 7.90781 36.4768 7.80082 36.7276C7.74013 36.8616 7.67738 36.9946 7.61258 37.1267C7.56509 37.2319 7.50064 37.3285 7.42183 37.4128C6.20703 38.6 5.68998 40.0834 5.88325 41.8202C5.9987 42.8644 6.32499 43.8809 6.87466 44.9225C7.19342 42.7991 8.31536 41.1777 10.2078 40.1035C11.2369 39.5187 12.3739 39.092 13.6791 38.8058C14.9993 38.5122 16.3396 38.2687 17.597 38.0428L18.3676 37.9073C19.6627 37.6789 21.0055 37.4455 22.278 37.0414C22.5792 36.946 22.8754 36.8406 23.1515 36.7377C23.5204 36.5996 23.8417 36.4365 24.1329 36.2206C24.4868 35.9571 24.8582 35.7186 25.2473 35.4902C23.6083 35.4526 20.8298 35.4476 19.9664 35.4425C18.0338 35.4325 16.7035 35.5931 15.0369 36.2256C13.295 36.8883 8.32038 39.4157 8.32038 39.4157C8.32038 39.4157 10.7926 36.7703 15.441 34.7875C17.7836 33.88 20.278 33.4285 22.7901 33.4572C23.4803 33.4572 24.1981 33.4848 24.9787 33.54C26.2638 33.6354 27.5489 33.7283 28.8314 33.8161L28.8666 33.8186C28.9268 33.8186 28.9921 33.8086 29.0548 33.791C30.3476 33.4201 31.6665 33.1474 33.0004 32.9753C33.4396 32.9125 33.8864 32.8222 34.3256 32.7318C34.2403 32.7042 34.1524 32.6816 34.0671 32.6565C33.9664 32.6253 33.8675 32.5884 33.7709 32.5461L33.5501 32.4583L32.6841 31.8734L35.937 31.9437C36.6373 31.9437 43.5471 30.8318 46.5038 22.5993C46.6995 22.0496 46.9053 21.5025 47.0635 20.9026C45.0201 22.2091 42.7466 23.1146 40.3645 23.5706C39.4212 23.7481 38.4652 23.8497 37.5057 23.8743ZM53.7825 33.289C53.7825 33.378 53.8 33.4662 53.8341 33.5484C53.8682 33.6306 53.9181 33.7053 53.981 33.7682C54.0439 33.8312 54.1186 33.8811 54.2009 33.9151C54.2831 33.9492 54.3712 33.9667 54.4602 33.9667C54.5492 33.9667 54.6373 33.9492 54.7195 33.9151C54.8017 33.8811 54.8764 33.8312 54.9394 33.7682C55.0023 33.7053 55.0522 33.6306 55.0863 33.5484C55.1203 33.4662 55.1379 33.378 55.1379 33.289C55.1379 33.1093 55.0665 32.9369 54.9394 32.8098C54.8123 32.6828 54.6399 32.6114 54.4602 32.6114C54.2805 32.6114 54.1081 32.6828 53.981 32.8098C53.8539 32.9369 53.7825 33.1093 53.7825 33.289Z" fill="white"/>
</svg>
