<svg width="60" height="60" viewBox="0 0 60 60" fill="none" xmlns="http://www.w3.org/2000/svg">
<g clip-path="url(#clip0_398_1470)">
<path d="M57.3045 17.567L57.047 16.992L56.6245 17.462C55.6045 18.622 54.3045 19.512 52.862 20.052L52.4645 20.2045L52.6295 20.592C53.8704 23.5695 54.5078 26.7638 54.5045 29.9895C54.5045 43.502 43.512 54.5045 29.9895 54.5045C16.467 54.5045 5.48445 43.512 5.48445 29.9995C5.48445 16.487 16.4895 5.48454 29.9995 5.48454C33.667 5.48454 37.207 6.28204 40.4995 7.85204L40.887 8.03954L41.052 7.65204C41.6618 6.23276 42.6113 4.98528 43.817 4.01954L44.3095 3.62204L43.747 3.32954C39.4992 1.13215 34.7844 -0.00923629 30.002 0.00203581C13.4545 0.00203581 0.00195312 13.4545 0.00195312 30.002C0.00195312 46.5495 13.4545 60.002 30.002 60.002C46.5495 60.002 60.002 46.5495 60.002 30.002C60.002 25.677 59.0995 21.4945 57.307 17.5695L57.3045 17.567ZM29.9995 16.3245C26.3738 16.3285 22.8979 17.7705 20.3342 20.3342C17.7705 22.8979 16.3284 26.3739 16.3245 29.9995C16.3284 33.6252 17.7705 37.1011 20.3342 39.6648C22.8979 42.2285 26.3738 43.6706 29.9995 43.6745C33.6251 43.6706 37.1011 42.2285 39.6648 39.6648C42.2285 37.1011 43.6705 33.6252 43.6745 29.9995C43.6685 26.3745 42.2258 22.8997 39.6626 20.3364C37.0993 17.7731 33.6245 16.3305 29.9995 16.3245ZM55.862 11.307C55.862 12.1258 55.7007 12.9366 55.3873 13.6931C55.074 14.4495 54.6147 15.1369 54.0358 15.7158C53.4568 16.2948 52.7695 16.7541 52.013 17.0674C51.2565 17.3808 50.4457 17.542 49.627 17.542C48.8082 17.542 47.9974 17.3808 47.2409 17.0674C46.4845 16.7541 45.7971 16.2948 45.2181 15.7158C44.6392 15.1369 44.1799 14.4495 43.8666 13.6931C43.5532 12.9366 43.392 12.1258 43.392 11.307C43.392 9.65341 44.0489 8.06751 45.2181 6.89822C46.3874 5.72894 47.9733 5.07204 49.627 5.07204C51.2806 5.07204 52.8665 5.72894 54.0358 6.89822C55.2051 8.06751 55.862 9.65341 55.862 11.307Z" fill="white"/>
</g>
<defs>
<clipPath id="clip0_398_1470">
<rect width="60" height="60" fill="white"/>
</clipPath>
</defs>
</svg>
