<svg width="38" height="60" viewBox="0 0 38 60" fill="none" xmlns="http://www.w3.org/2000/svg">
<path d="M29.34 32.91C27.3 32.91 25.44 33.66 24 34.92L20.13 32.67C20.4 31.8 20.52 30.87 20.52 29.91C20.52 28.95 20.4 28.02 20.22 27.15L23.91 24.96C25.35 26.28 27.27 27 29.34 27C33.81 27 37.44 23.43 37.44 18.96C37.44 14.49 33.81 10.89 29.34 10.89C24.87 10.89 21.24 14.52 21.24 18.99C21.24 19.5 21.3 20.1 21.39 20.64L17.64 22.8C16.35 21.45 14.64 20.46 12.72 19.95V15.78C14.3547 15.2565 15.7813 14.2282 16.7947 12.8428C17.8081 11.4575 18.3561 9.78645 18.36 8.07C18.36 3.6 14.73 0 10.26 0C5.79 0 2.22 3.6 2.22 8.07C2.22 11.67 4.5 14.7 7.74 15.78V19.98C5.53023 20.5404 3.56995 21.8207 2.16845 23.6187C0.766949 25.4168 0.00400971 27.6303 0 29.91C0 34.71 3.3 38.73 7.74 39.84V44.19C6.1245 44.729 4.72072 45.7648 3.72932 47.1496C2.73792 48.5343 2.20965 50.197 2.22 51.9C2.22 56.37 5.79 60 10.26 60C14.73 60 18.36 56.37 18.36 51.9C18.36 48.3 15.99 45.24 12.72 44.19V39.87C14.64 39.39 16.32 38.4 17.64 37.05L21.42 39.24C21.3 39.81 21.24 40.38 21.24 40.98C21.24 45.45 24.87 49.08 29.34 49.08C33.81 49.08 37.44 45.45 37.44 40.98C37.44 36.51 33.81 32.91 29.34 32.91ZM29.34 15C31.56 15 33.33 16.77 33.33 18.96C33.33 21.15 31.56 22.98 29.34 22.98C27.12 22.98 25.35 21.18 25.35 18.96C25.35 16.74 27.12 15 29.34 15ZM6.27 8.07C6.27 5.85 8.04 4.05 10.26 4.05C12.48 4.05 14.22 5.85 14.22 8.07C14.22 10.29 12.48 12.09 10.26 12.09C8.04 12.09 6.27 10.29 6.27 8.07ZM14.22 51.9C14.22 54.12 12.48 55.92 10.26 55.92C8.04 55.92 6.27 54.12 6.27 51.9C6.27 49.68 8.04 47.88 10.26 47.88C12.48 47.88 14.22 49.68 14.22 51.9ZM10.26 35.67C9.50339 35.6698 8.75422 35.5206 8.05528 35.2309C7.35634 34.9411 6.72131 34.5166 6.18644 33.9814C5.65158 33.4463 5.22735 32.811 4.93799 32.1119C4.64863 31.4129 4.4998 30.6636 4.5 29.907C4.5002 29.1504 4.64942 28.4012 4.93914 27.7023C5.22887 27.0033 5.65342 26.3683 6.18856 25.8334C6.72371 25.2986 7.35896 24.8744 8.05805 24.585C8.75715 24.2956 9.50639 24.1468 10.263 24.147C11.791 24.1474 13.2563 24.7548 14.3366 25.8356C15.4168 26.9163 16.0234 28.382 16.023 29.91C16.0226 31.438 15.4152 32.9033 14.3344 33.9836C13.2537 35.0638 11.788 35.6704 10.26 35.67ZM29.34 45C27.12 45 25.35 43.2 25.35 40.98C25.35 38.76 27.12 36.99 29.34 36.99C31.56 36.99 33.33 38.79 33.33 40.98C33.33 43.17 31.56 45 29.34 45Z" fill="white"/>
</svg>
