<svg width="60" height="58" viewBox="0 0 60 58" fill="none" xmlns="http://www.w3.org/2000/svg">
<path d="M60 33.9512L52.5037 32.2405C53.1841 26.9776 51.9566 21.6451 49.0437 17.2093L54.8066 12.6149L51.9773 9.06636L46.2167 13.6585C42.505 9.84063 37.5656 7.45444 32.2677 6.92002V0H27.73V6.92002C22.4322 7.45444 17.4927 9.84063 13.7811 13.6585L8.01815 9.06636L5.19115 12.6149L10.9541 17.2093C8.04193 21.6454 6.81526 26.9779 7.49631 32.2405L0 33.9512L1.01191 38.3755L8.49234 36.667C10.1951 41.7299 13.6236 46.0329 18.1781 48.8236L15.1605 55.0925L19.249 57.0596L22.2643 50.7975C27.2562 52.6479 32.746 52.6479 37.7379 50.7975L40.7555 57.0596L44.844 55.0902L41.8264 48.8236C46.3809 46.0329 49.8094 41.7299 51.5122 36.667L58.9926 38.3732L60 33.9512ZM48.1497 29.4952C48.1497 30.0783 48.1157 30.6546 48.0613 31.2263L36.717 28.6353C36.6599 28.1766 36.5557 27.7249 36.4061 27.2876L45.4725 20.0567C47.2209 22.8946 48.1477 26.1619 48.1497 29.4952ZM27.73 29.4952C27.73 29.0464 27.8631 28.6078 28.1124 28.2347C28.3617 27.8616 28.716 27.5708 29.1306 27.399C29.5452 27.2273 30.0014 27.1824 30.4415 27.2699C30.8816 27.3575 31.2859 27.5735 31.6032 27.8909C31.9205 28.2082 32.1366 28.6124 32.2241 29.0525C32.3117 29.4927 32.2667 29.9489 32.095 30.3634C31.9233 30.778 31.6325 31.1324 31.2594 31.3817C30.8863 31.631 30.4476 31.764 29.9989 31.764C29.3971 31.764 28.82 31.525 28.3945 31.0995C27.969 30.674 27.73 30.0969 27.73 29.4952ZM42.65 16.5037L33.5837 23.7345C33.1688 23.4786 32.7276 23.2679 32.2677 23.1061V11.5031C36.1812 11.9947 39.8269 13.7492 42.65 16.5037ZM27.73 11.5031V23.1083C27.2701 23.2702 26.829 23.4808 26.4141 23.7368L17.3477 16.506C20.1708 13.7515 23.8165 11.9947 27.73 11.5031ZM11.848 29.4952C11.85 26.1619 12.7768 22.8946 14.5252 20.0567L23.5916 27.2876C23.442 27.7249 23.3378 28.1766 23.2808 28.6353L11.9365 31.2241C11.8797 30.6495 11.8502 30.0725 11.848 29.4952ZM12.9438 35.6483L24.2337 33.0709C24.5 33.5111 24.8151 33.9198 25.173 34.2893L20.152 44.7192C16.8272 42.56 14.2973 39.3753 12.9461 35.6483H12.9438ZM29.9989 47.6461C28.0389 47.6429 26.0926 47.3211 24.236 46.6931L29.2728 36.2292C29.5134 36.2663 29.7557 36.2906 29.9989 36.3018C30.2412 36.2905 30.4828 36.2662 30.7226 36.2292L35.7618 46.6931C33.9053 47.3216 31.9588 47.6434 29.9989 47.6461ZM39.8457 44.7192L34.8247 34.287C35.1825 33.9182 35.4976 33.5103 35.764 33.0709L47.0539 35.6483C45.7027 39.3753 43.1705 42.56 39.8457 44.7192Z" fill="white"/>
</svg>
