<svg width="60" height="62" viewBox="0 0 60 62" fill="none" xmlns="http://www.w3.org/2000/svg">
<path d="M59.9691 13.965C60 14.0268 60 14.1195 60 14.2122V27.4665C60 27.7755 59.8146 28.1462 59.5366 28.3007L48.3831 34.7271V47.4253C48.3831 47.7652 48.2286 48.0741 47.9197 48.2595L24.6859 61.6375C24.6241 61.6684 24.5623 61.7611 24.5005 61.7611H23.8208C23.8208 61.7611 23.8208 61.6684 23.6972 61.6375L0.463454 48.2595C0.321076 48.172 0.203644 48.0492 0.122473 47.9031C0.0413026 47.757 -0.000871981 47.5925 1.36662e-05 47.4253V7.6931C1.36662e-05 7.53862 1.36361e-05 7.44593 0.0309096 7.38414C0.0309096 7.35324 0.0618056 7.32235 0.0618056 7.29145C0.0618056 7.22966 0.0927015 7.19876 0.123597 7.13697C0.123597 7.10608 0.154493 7.07518 0.185389 7.04428L0.278078 6.9516L0.370766 6.85891C0.401662 6.82801 0.432558 6.79712 0.463454 6.79712L12.0803 0.0926879C12.3893 -0.030896 12.7601 -0.030896 13.0072 0.0926879L24.6859 6.79712C24.7168 6.82801 24.7477 6.82801 24.7786 6.85891L24.8713 6.9516L24.964 7.04428C24.9949 7.07518 25.0258 7.10608 25.0258 7.13697C25.0567 7.19876 25.0875 7.22966 25.0875 7.29145C25.0875 7.32235 25.1184 7.35324 25.1184 7.38414C25.1493 7.47683 25.1493 7.53862 25.1493 7.6931V32.4099L34.8507 26.9104V14.2122C34.8507 14.1195 34.8507 14.0268 34.8816 13.965L34.9125 13.8723C34.9125 13.8723 34.9434 13.7796 34.9743 13.7178C34.9743 13.6869 35.0052 13.656 35.0361 13.6251L35.1287 13.5324L35.2214 13.4398C35.2523 13.4089 35.2832 13.378 35.3141 13.378L46.9928 6.67353C47.24 6.48816 47.6107 6.48816 47.9197 6.67353L59.5366 13.378C59.5675 13.378 59.5984 13.4089 59.6293 13.4398L59.7219 13.5324L59.8146 13.6251C59.8455 13.656 59.8455 13.6869 59.8764 13.7178C59.9073 13.7796 59.9073 13.8723 59.9382 13.8723C59.9691 13.8723 59.9691 13.8723 59.9691 13.965ZM58.0845 26.9104V15.8805L48.3831 21.4418V32.4099L58.0845 26.9104ZM46.4676 46.8692V35.8084L25.1493 47.9815V59.1349L46.4676 46.8692ZM1.91556 9.2379V46.8692L23.2338 59.1349V47.9815L12.1112 41.6787H12.0803C12.0494 41.6787 12.0185 41.6787 11.9877 41.586C11.9568 41.586 11.9259 41.5551 11.895 41.5242L11.8023 41.4315C11.7714 41.4006 11.7714 41.3697 11.7405 41.3388C11.7096 41.277 11.7096 41.2461 11.6787 41.2152C11.6787 41.1534 11.6478 41.1225 11.6478 41.0917C11.6169 41.0608 11.6169 40.999 11.6169 40.9681V14.861L1.91556 9.2379ZM12.5747 2.07003L2.90424 7.6931L12.5747 13.1926L22.276 7.6931L12.5747 2.07003ZM23.2338 33.5839V9.2379L13.5325 14.861V39.1761L23.2338 33.5839ZM47.4253 8.61998L37.724 14.2122L47.4253 19.7734L57.0958 14.2122L47.4253 8.61998ZM46.4676 21.4418L36.7662 15.8805V26.9104L46.4676 32.4099V21.4418ZM24.1916 46.3131L45.448 34.1401L35.8085 28.5788L14.552 40.8445L24.1916 46.3131Z" fill="white"/>
</svg>
