<svg width="60" height="52" viewBox="0 0 60 52" fill="none" xmlns="http://www.w3.org/2000/svg">
<path d="M34.1546 0C41.0236 0 47.4849 2.66344 52.366 7.50634C57.2597 12.3745 59.9743 18.8487 59.9998 25.756C60.0251 32.6635 57.3617 39.1629 52.4933 44.0567C47.6253 48.9504 41.1511 51.665 34.2436 51.6903H34.1417C21.4868 51.6903 10.7815 42.6675 8.66602 30.2037C8.63581 30.0263 8.64086 29.8447 8.68088 29.6692C8.72091 29.4938 8.79512 29.3279 8.89927 29.1812C9.00342 29.0344 9.13548 28.9096 9.28789 28.814C9.4403 28.7183 9.61008 28.6536 9.78751 28.6235C10.5394 28.5087 11.2404 28.9932 11.3679 29.745C13.2668 40.8835 22.8375 48.9504 34.1417 48.9504H34.2307C40.399 48.9249 46.1979 46.5036 50.5435 42.1196C54.8893 37.7356 57.2724 31.9242 57.2469 25.756C57.2215 19.5879 54.8 13.7892 50.416 9.44345C46.0575 5.11032 40.2844 2.74008 34.1417 2.74008H34.0526C22.7611 2.77828 13.2031 10.8834 11.3424 22.0092C11.3132 22.1871 11.249 22.3574 11.1535 22.5103C11.0581 22.6632 10.9333 22.7956 10.7863 22.8999C10.6393 23.0042 10.4731 23.0783 10.2972 23.1179C10.1214 23.1576 9.93948 23.1619 9.76196 23.1307C9.58411 23.1015 9.41381 23.0374 9.26092 22.9419C9.10804 22.8465 8.97561 22.7216 8.87131 22.5746C8.767 22.4277 8.69289 22.2614 8.65327 22.0856C8.61365 21.9098 8.6093 21.7278 8.64048 21.5503C10.7433 9.11204 21.4231 0.0510938 34.0526 0H34.1546ZM35.6583 7.12407L37.7611 9.03563C38.0541 9.30329 45.038 15.7519 45.3821 25.2462C45.5986 31.2999 43.05 37.1365 37.8249 42.6167L35.6201 44.9234L35.7092 41.7244C35.7221 41.2402 35.8493 30.1146 24.7238 27.2982C24.061 27.1324 23.6023 26.5334 23.5894 25.8579C23.5894 25.1698 24.0356 24.5707 24.6982 24.3924C35.4035 21.4997 35.6888 10.7529 35.6963 10.0059V9.9661L35.6583 7.12407ZM22.1494 33.3516C22.1494 35.9133 24.2267 37.9777 26.7755 37.9777C24.2267 37.9777 22.1621 40.0423 22.1494 42.6038C22.1494 40.0421 20.0721 37.9777 17.5233 37.9777C20.085 37.9777 22.1494 35.9004 22.1494 33.3516ZM37.8631 12.7824C37.1876 16.4785 35.021 22.7485 28.0627 25.8071C35.0846 28.7637 37.2385 35.0593 37.8884 38.806C41.3932 34.4604 43.0882 29.9489 42.9225 25.3355C42.7313 19.741 39.8257 15.2166 37.8631 12.7824ZM50.9766 27.0821L50.9775 27.1561C51.0169 29.1096 52.6074 30.6755 54.5705 30.6755C52.5825 30.6755 50.9768 32.2812 50.9768 34.2694C50.9774 33.7973 50.8848 33.3297 50.7044 32.8934C50.524 32.4571 50.2593 32.0607 49.9255 31.7269C49.5916 31.3931 49.1952 31.1284 48.7589 30.9479C48.3226 30.7675 47.8551 30.6749 47.3829 30.6755C47.8551 30.6761 48.3226 30.5835 48.7589 30.4031C49.1952 30.2226 49.5916 29.9579 49.9255 29.6241C50.2593 29.2903 50.524 28.8939 50.7044 28.4576C50.8848 28.0213 50.9774 27.5537 50.9768 27.0816L50.9766 27.0821ZM9.55806 24.6094C10.2335 24.6094 10.7944 25.1574 10.7944 25.8455C10.7944 26.521 10.2464 27.0816 9.55806 27.0816H7.37884C6.70337 27.0816 6.14274 26.5336 6.14274 25.8455C6.14274 25.17 6.69071 24.6094 7.37884 24.6094H9.55806ZM3.42821 24.6094C4.10368 24.6094 4.6643 25.1574 4.6643 25.8455C4.65164 26.521 4.10368 27.0816 3.42821 27.0816H1.23609C0.56086 27.0816 0 26.5336 0 25.8455C0 25.17 0.547969 24.6094 1.23609 24.6094H3.42821ZM15.4587 24.6094C16.1342 24.6094 16.695 25.1574 16.695 25.8455C16.6821 26.521 16.1342 27.0816 15.4587 27.0816H12.8461C12.1706 27.0816 11.61 26.5336 11.61 25.8455C11.61 25.17 12.158 24.6094 12.8461 24.6094H15.4587ZM20.9133 24.6094C21.5888 24.6094 22.1494 25.1574 22.1494 25.8455C22.1494 26.521 21.6014 27.0816 20.9133 27.0816H18.7212C18.0457 27.0816 17.4851 26.5336 17.4851 25.8455C17.4851 25.17 18.0331 24.6094 18.7212 24.6094H20.9133ZM26.7755 8.6536C26.7748 9.09228 26.8608 9.52676 27.0284 9.93217C27.1959 10.3376 27.4419 10.7059 27.7521 11.0161C28.0623 11.3263 28.4306 11.5722 28.8361 11.7397C29.2415 11.9073 29.676 11.9932 30.1146 11.9925C29.676 11.9918 29.2415 12.0777 28.8361 12.2453C28.4306 12.4128 28.0623 12.6587 27.7521 12.9689C27.4419 13.2791 27.1959 13.6475 27.0284 14.0529C26.8608 14.4583 26.7748 14.8927 26.7755 15.3314V15.3263L26.7748 15.2578C26.7572 14.3975 26.4076 13.5773 25.7991 12.9688C25.1907 12.3603 24.3705 12.0106 23.5102 11.993L23.4364 11.9923C23.875 11.9929 24.3095 11.907 24.7149 11.7394C25.1203 11.5719 25.4886 11.326 25.7988 11.0158C26.1089 10.7056 26.3549 10.3373 26.5224 9.93188C26.69 9.52649 26.7759 9.09202 26.7753 8.65337L26.7755 8.6536Z" fill="white"/>
</svg>
