<svg width="40" height="40" viewBox="0 0 40 40" fill="none" xmlns="http://www.w3.org/2000/svg">
<path fill-rule="evenodd" clip-rule="evenodd" d="M5.71429 4.28571H34.2857C34.6646 4.28571 35.028 4.43622 35.2959 4.70413C35.5638 4.97204 35.7143 5.33541 35.7143 5.71429V34.2857C35.7143 34.6646 35.5638 35.028 35.2959 35.2959C35.028 35.5638 34.6646 35.7143 34.2857 35.7143H5.71429C5.33541 35.7143 4.97204 35.5638 4.70413 35.2959C4.43622 35.028 4.28571 34.6646 4.28571 34.2857V5.71429C4.28571 5.33541 4.43622 4.97204 4.70413 4.70413C4.97204 4.43622 5.33541 4.28571 5.71429 4.28571ZM0 5.71429C0 4.19876 0.602039 2.74531 1.67368 1.67368C2.74531 0.602039 4.19876 0 5.71429 0H34.2857C35.8012 0 37.2547 0.602039 38.3263 1.67368C39.398 2.74531 40 4.19876 40 5.71429V34.2857C40 35.8012 39.398 37.2547 38.3263 38.3263C37.2547 39.398 35.8012 40 34.2857 40H5.71429C4.19876 40 2.74531 39.398 1.67368 38.3263C0.602039 37.2547 0 35.8012 0 34.2857V5.71429ZM27.24 17.6343C27.6266 17.8961 27.9431 18.2486 28.1619 18.661C28.3807 19.0734 28.4951 19.5331 28.4951 20C28.4951 20.4669 28.3807 20.9266 28.1619 21.339C27.9431 21.7514 27.6266 22.1039 27.24 22.3657L18.7429 28.1171C18.313 28.4077 17.8122 28.5757 17.2941 28.6032C16.776 28.6306 16.2602 28.5165 15.8021 28.273C15.344 28.0296 14.9608 27.666 14.6936 27.2212C14.4265 26.7765 14.2855 26.2674 14.2857 25.7486V14.2514C14.2855 13.7326 14.4265 13.2235 14.6936 12.7788C14.9608 12.334 15.344 11.9704 15.8021 11.727C16.2602 11.4835 16.776 11.3694 17.2941 11.3968C17.8122 11.4243 18.313 11.5923 18.7429 11.8829L27.24 17.6343Z" fill="white"/>
</svg>
