<svg width="60" height="41" viewBox="0 0 60 41" fill="none" xmlns="http://www.w3.org/2000/svg">
<path d="M41.015 4.13065C40.7225 4.13065 40.5275 4.17003 40.3306 4.21878V4.24878H40.3606C40.4975 4.50191 40.7225 4.69879 40.8969 4.93318C41.0338 5.19756 41.15 5.46944 41.2775 5.73383L41.3169 5.69445C41.5513 5.52757 41.6694 5.26506 41.6694 4.8638C41.5719 4.74567 41.5513 4.62004 41.465 4.51129C41.3675 4.34441 41.1519 4.25815 41.015 4.13065ZM14.423 37.1186H12.1091C12.0391 33.4356 11.8145 29.7573 11.436 26.0932H11.4172L7.89212 37.1186H6.12394L2.62696 26.0932H2.59696C2.3252 29.7627 2.16262 33.4394 2.10944 37.1186H0C0.114221 32.495 0.456523 27.8798 1.02566 23.29H3.89637L7.23585 33.4472H7.2546L10.6241 23.29H13.3579C13.9636 28.3302 14.3254 32.939 14.4323 37.1186H14.423ZM24.462 26.9145C23.5245 32.0315 22.2738 35.7535 20.7419 38.0673C19.5306 39.8543 18.2124 40.7524 16.7761 40.7524C16.3955 40.7524 15.9267 40.6343 15.3605 40.3999V39.1699C15.6436 39.2092 15.9661 39.2374 16.328 39.2374C17.0012 39.2374 17.5393 39.0424 17.9499 38.6805C18.4375 38.2305 18.6831 37.7242 18.6831 37.1673C18.6831 36.7773 18.4975 35.9954 18.1074 34.8047L15.578 26.9145H17.8543L19.6712 32.8134C20.0819 34.1616 20.2581 35.0897 20.1794 35.626C21.1844 32.969 21.8782 30.059 22.2701 26.9145H24.462ZM55.2824 37.1186H48.7009V23.29H50.9172V35.4197H55.2824V37.1186ZM46.9815 37.4523L44.4426 36.2017C44.6676 36.016 44.8814 35.8116 45.0783 35.5773C46.1621 34.3172 46.7002 32.4328 46.7002 29.9521C46.7002 25.3713 44.9039 23.0875 41.3094 23.0875C39.5506 23.0875 38.1743 23.6631 37.188 24.8257C36.1136 26.0951 35.5661 27.9701 35.5661 30.4415C35.5661 32.8734 36.0443 34.651 37.0024 35.7929C37.8818 36.8092 39.2 37.3267 40.9682 37.3267C41.6226 37.3267 42.2282 37.2479 42.7757 37.0829L46.0871 39.0161L46.9946 37.4542L46.9815 37.4523ZM38.75 34.3453C38.1837 33.4472 37.9099 32.0015 37.9099 30.0083C37.9099 26.5226 38.9656 24.7844 41.0844 24.7844C42.1888 24.7844 43.0082 25.2044 43.5257 26.0351C44.0826 26.9426 44.3658 28.3695 44.3658 30.3421C44.3658 33.8485 43.3007 35.6166 41.1913 35.6166C40.0775 35.6166 39.2675 35.1966 38.7406 34.366L38.75 34.3453ZM34.608 33.2916C34.608 34.4635 34.1786 35.431 33.3085 36.1716C32.4498 36.9235 31.306 37.3042 29.8509 37.3042C28.4934 37.3042 27.194 36.8748 25.9152 36.0141L26.5115 34.8235C27.6046 35.371 28.5909 35.6448 29.4909 35.6448C30.3216 35.6448 30.976 35.4591 31.4447 35.0972C31.9135 34.726 32.1966 34.2085 32.1966 33.5541C32.1966 32.7328 31.621 32.0296 30.5747 31.4446C29.6072 30.9084 27.6646 29.804 27.6646 29.804C26.609 29.0333 26.0914 28.212 26.0914 26.8545C26.0914 25.7313 26.4815 24.8332 27.2634 24.1488C28.0546 23.4456 29.0597 23.1044 30.3103 23.1044C31.5546 23.0936 32.7744 23.4504 33.8167 24.13L33.2804 25.3207C32.4426 24.9517 31.5388 24.7559 30.6235 24.745C29.9109 24.745 29.3634 24.9213 28.9828 25.2626C28.6021 25.6038 28.3678 26.0332 28.3678 26.5713C28.3678 27.3926 28.9547 28.0958 30.0272 28.6995C31.0135 29.2358 32.9954 30.3702 32.9954 30.3702C34.0792 31.1315 34.6173 31.9528 34.6173 33.2897L34.608 33.2916ZM58.0574 18.653C56.7186 18.623 55.6836 18.7599 54.8155 19.1311C54.5717 19.2286 54.1704 19.2286 54.1311 19.5418C54.2679 19.6786 54.2867 19.8943 54.4048 20.078C54.6092 20.4099 54.9523 20.8599 55.2749 21.0943C55.6274 21.3681 55.978 21.6418 56.3399 21.8762C56.9943 22.2775 57.7274 22.5118 58.3706 22.9112C58.7325 23.1456 59.1037 23.4475 59.4637 23.6931C59.6494 23.8206 59.7656 24.0456 60 24.1225V24.0738C59.8819 23.9275 59.8537 23.7119 59.7356 23.5375C59.5687 23.3706 59.4037 23.2244 59.2369 23.0594C58.7478 22.4101 58.1615 21.8403 57.4987 21.3699C56.9624 21.0081 55.7905 20.4999 55.5749 19.8849L55.5449 19.8455C55.9067 19.8155 56.3361 19.6786 56.6868 19.5811C57.253 19.4349 57.7799 19.463 58.3668 19.3167C58.6361 19.2469 58.9031 19.1687 59.1675 19.0824V18.9361C58.8656 18.6342 58.6406 18.2236 58.3274 17.9405C57.4646 17.1854 56.5436 16.4995 55.573 15.8891C55.0461 15.5479 54.3823 15.3323 53.8254 15.0491C53.6304 14.9516 53.2892 14.9029 53.1804 14.736C52.8785 14.3647 52.7023 13.8866 52.4866 13.4459C51.9962 12.4927 51.5402 11.522 51.1197 10.5359C50.8178 9.88146 50.6416 9.23644 50.2703 8.63079C48.5509 5.7882 46.6758 4.07065 43.8051 2.38122C43.1901 2.02871 42.4476 1.88246 41.6657 1.69683C41.2457 1.67807 40.835 1.64807 40.415 1.62932C40.1413 1.5112 39.8787 1.19994 39.6444 1.04243C38.6881 0.436786 36.2261 -0.862629 35.5324 0.856799C35.0823 1.94996 36.1961 3.01499 36.588 3.56251C36.8712 3.95252 37.233 4.38378 37.4374 4.81317C37.5555 5.10568 37.5837 5.40944 37.7018 5.71133C37.9662 6.44447 38.2193 7.26387 38.5718 7.94827C38.7575 8.30078 38.9525 8.67017 39.1868 8.9833C39.3237 9.16893 39.5581 9.24769 39.6069 9.54957C39.3725 9.89083 39.3537 10.3896 39.2262 10.8002C38.6206 12.694 38.855 15.0285 39.7044 16.4254C39.9781 16.8454 40.6119 17.7642 41.4632 17.4117C42.2151 17.1098 42.0501 16.161 42.2638 15.321C42.3126 15.1166 42.2826 14.9891 42.3819 14.8522V14.8916C42.6257 15.3604 42.8601 15.8104 43.0757 16.2792C43.5839 17.1004 44.4914 17.9498 45.2433 18.5161C45.6445 18.818 45.9558 19.3374 46.4546 19.5211V19.4724H46.4152C46.3083 19.3261 46.1714 19.2567 46.0346 19.1405C45.7179 18.8268 45.424 18.491 45.1552 18.1355C44.4614 17.1979 43.837 16.1629 43.2895 15.0979C43.0257 14.5716 42.7849 14.0342 42.5676 13.4872C42.4701 13.2922 42.4701 12.9884 42.3032 12.8909C42.0501 13.2528 41.6788 13.5641 41.5025 14.0235C41.18 14.736 41.15 15.6248 41.0244 16.5435C40.9663 16.5623 40.9944 16.5435 40.9663 16.5829C40.43 16.446 40.2444 15.8985 40.0475 15.4298C39.5394 14.2391 39.4606 12.334 39.8919 10.9671C40.01 10.6146 40.5069 9.51207 40.3119 9.18018C40.205 8.85767 39.8731 8.67204 39.6969 8.41891C39.4719 8.10577 39.2469 7.70639 39.0912 7.35388C38.69 6.41635 38.495 5.38132 38.0562 4.44379C37.8612 4.0144 37.5087 3.56438 37.2255 3.165C36.903 2.71498 36.5524 2.39435 36.3068 1.86558C36.2186 1.67995 36.1024 1.37807 36.2393 1.18118C36.2693 1.04431 36.3368 0.995554 36.4736 0.956178C36.6893 0.770547 37.3137 1.00493 37.5293 1.11181C38.1443 1.35557 38.6618 1.58995 39.1793 1.94246C39.4137 2.10934 39.6669 2.4206 39.9706 2.50873H40.3231C40.8594 2.62685 41.4557 2.53873 41.9544 2.69436C42.8432 2.97749 43.6439 3.38813 44.3658 3.83627C46.5734 5.25343 48.3687 7.22724 49.5709 9.55895C49.7753 9.93958 49.8634 10.2921 50.0491 10.6915C50.3903 11.5221 50.831 12.3509 51.1816 13.1422C51.5322 13.9335 51.866 14.7341 52.3723 15.3885C52.6254 15.741 53.6229 15.9248 54.0804 16.101C54.4123 16.2567 54.9298 16.3935 55.2223 16.5698C55.798 16.9223 56.3643 17.3217 56.9024 17.7117C57.1762 17.8973 58.0068 18.3173 58.0556 18.6492L58.0574 18.653Z" fill="white"/>
</svg>
