<svg width="60" height="60" viewBox="0 0 60 60" fill="none" xmlns="http://www.w3.org/2000/svg">
<path d="M11.4844 23.6719C10.7812 23.6719 10.3125 24.2344 10.3125 24.9375V31.5469L2.85937 24.0469C2.48437 23.6719 1.82813 23.5781 1.35938 23.7656C0.890625 23.9531 0.46875 24.4219 0.46875 24.9375V34.6406C0.46875 35.3438 1.17188 35.9062 1.875 35.9062C2.57812 35.9062 3.28125 35.3438 3.28125 34.6406V28.0312L10.8281 35.5313C11.0625 35.7656 11.3906 35.9062 11.7188 35.9062C11.8594 35.9062 11.9063 35.8594 12.0469 35.8125C12.5156 35.625 12.6562 35.1563 12.6562 34.6406V24.9844C12.6562 24.2812 12.1875 23.6719 11.4844 23.6719ZM20.7188 29.2031C20.0625 29.2031 19.4531 29.8594 19.4531 30.5156C19.4531 31.1719 20.0625 31.8281 20.7188 31.8281L23.8125 32.0156L23.1094 33.75H19.125L17.1562 30.0469L19.1719 26.25H23.4375L24.4219 28.125H27L25.3125 24.4219L24.9375 23.9062H17.625L17.2969 24.4688L14.5312 29.2969L14.2031 29.9062L14.5312 30.5156L17.25 35.3438L17.625 36.0938H24.7031L25.0313 35.2969L27.0469 31.0781L27.9375 29.0625H25.875L20.7188 29.2031ZM30.4688 23.6719C29.8125 23.6719 29.0625 24.2813 29.0625 24.9375V28.125H31.875V24.9844C31.875 24.2812 31.125 23.6719 30.4688 23.6719ZM44.7188 23.8125C44.25 23.625 43.5938 23.7188 43.2656 24.0938L35.625 31.5938V24.9844C35.625 24.2812 35.1562 23.7187 34.4531 23.7187C33.75 23.7187 33.2812 24.2812 33.2812 24.9844V34.6875C33.2812 35.2031 33.6094 35.6719 34.0781 35.8594C34.2187 35.9063 34.4062 35.9531 34.5469 35.9531C34.875 35.9531 35.2969 35.8125 35.5313 35.5781L43.125 28.0781V34.6875C43.125 35.3906 43.5938 35.9531 44.2969 35.9531C45 35.9531 45.4688 35.3906 45.4688 34.6875V24.9844C45.4688 24.4687 45.1875 24 44.7188 23.8125ZM54.9375 29.8125L58.875 25.875C59.3906 25.3594 59.3906 24.5625 58.875 24.0938C58.3594 23.5781 57.5625 23.5781 57.0938 24.0938L53.1563 28.0312L49.2188 24.0938C48.7031 23.5781 47.9062 23.5781 47.4375 24.0938C46.9219 24.6094 46.9219 25.4063 47.4375 25.875L51.375 29.8125L47.4375 33.75C46.9219 34.2656 46.9219 35.0625 47.4375 35.5313C47.6719 35.7656 48 35.9062 48.3281 35.9062C48.6562 35.9062 48.9844 35.7656 49.2188 35.5313L53.1563 31.5938L57.0938 35.5313C57.3281 35.7656 57.6562 35.9062 57.9844 35.9062C58.3125 35.9062 58.6406 35.7656 58.875 35.5313C59.3906 35.0156 59.3906 34.2188 58.875 33.75L54.9375 29.8125ZM29.0625 34.6406C29.0625 35.2969 29.7656 35.9062 30.4688 35.9062C31.125 35.9062 31.875 35.2969 31.875 34.6406V29.0625H29.0625V34.6406Z" fill="white"/>
</svg>
