<svg width="60" height="39" viewBox="0 0 60 39" fill="none" xmlns="http://www.w3.org/2000/svg">
<path d="M41.2258 0C41.0718 0 40.9241 0.0611745 40.8152 0.170067C40.7063 0.278959 40.6452 0.426649 40.6452 0.580646V11.22L38.2335 9.8129C38.0847 9.72486 37.9149 9.67842 37.7419 9.67842C37.569 9.67842 37.3992 9.72486 37.2503 9.8129L31.4555 13.1923C31.3073 13.2778 31.1843 13.4008 31.0987 13.5489C31.0131 13.697 30.9679 13.8651 30.9677 14.0361V20.8026C30.9677 21.151 31.1535 21.4723 31.4555 21.6465L37.2503 25.0258C37.3992 25.1138 37.569 25.1603 37.7419 25.1603C37.9149 25.1603 38.0847 25.1138 38.2335 25.0258L44.0284 21.6465C44.1765 21.5609 44.2996 21.4379 44.3852 21.2898C44.4708 21.1417 44.516 20.9737 44.5161 20.8026V2.38065C44.5156 2.21185 44.4711 2.0461 44.3869 1.89979C44.3027 1.75349 44.1818 1.63169 44.0361 1.54645L41.5142 0.0793546C41.4274 0.028077 41.3286 0.00069785 41.2277 0H41.2258ZM22.2581 9.68129C22.0855 9.68107 21.9159 9.72648 21.7665 9.8129L15.9716 13.1923C15.8235 13.2778 15.7004 13.4008 15.6148 13.5489C15.5292 13.697 15.484 13.8651 15.4839 14.0361V20.8026C15.4839 21.151 15.6697 21.4723 15.9716 21.6465L21.7665 25.0258C22.0703 25.2 22.4439 25.2 22.7497 25.0258L28.5445 21.6465C28.6927 21.5609 28.8157 21.4379 28.9013 21.2898C28.9869 21.1417 29.0321 20.9737 29.0323 20.8026V14.0361C29.0325 13.865 28.9875 13.6968 28.9019 13.5486C28.8162 13.4004 28.6929 13.2775 28.5445 13.1923L22.7497 9.8129C22.6003 9.72648 22.4307 9.68107 22.2581 9.68129ZM53.2258 9.68129C53.0531 9.68042 52.8833 9.72587 52.7342 9.8129L46.9394 13.1923C46.7912 13.2778 46.6681 13.4008 46.5825 13.5489C46.4969 13.697 46.4518 13.8651 46.4516 14.0361V20.8026C46.4516 21.151 46.6374 21.4723 46.9394 21.6465L52.56 25.0432C52.7086 25.1334 52.8787 25.1817 53.0525 25.183C53.2262 25.1844 53.3971 25.1388 53.5471 25.051L56.311 23.4445C56.376 23.4062 56.4299 23.3516 56.4673 23.2861C56.5048 23.2206 56.5245 23.1464 56.5245 23.071C56.5245 22.9955 56.5048 22.9214 56.4673 22.8558C56.4299 22.7903 56.376 22.7357 56.311 22.6974L50.3226 19.169V15.6968L53.2258 14.0071L56.129 15.6968V18.1161C56.129 18.4394 56.4 18.4897 56.5819 18.3813C57.5604 17.81 58.5397 17.2404 59.52 16.6723C59.6658 16.5872 59.7868 16.4654 59.8711 16.3191C59.9553 16.1727 59.9997 16.0069 60 15.8381V14.0381C60.0002 13.8669 59.9552 13.6987 59.8696 13.5505C59.784 13.4024 59.6607 13.2794 59.5123 13.1942L53.7174 9.81484C53.5682 9.72807 53.3985 9.68264 53.2258 9.68323V9.68129ZM6.77419 9.68516C6.6015 9.68429 6.43174 9.72974 6.28258 9.81677L0.487742 13.1923C0.339412 13.2786 0.216313 13.4023 0.130729 13.551C0.0451454 13.6998 6.95453e-05 13.8684 0 14.04V22.6781C0 23.1 0.456774 23.3613 0.820645 23.1503L3.39097 21.6542C3.53694 21.5688 3.65804 21.4467 3.74225 21.3C3.82645 21.1533 3.87082 20.9872 3.87097 20.8181V15.7026L6.77419 14.009L9.67742 15.7026V20.8181C9.67771 20.9869 9.72216 21.1527 9.80637 21.2991C9.89057 21.4454 10.0116 21.5672 10.1574 21.6523L12.7277 23.1503C12.8107 23.1987 12.905 23.2243 13.0011 23.2246C13.0971 23.2248 13.1916 23.1997 13.2748 23.1518C13.3581 23.1039 13.4272 23.0349 13.4752 22.9517C13.5233 22.8685 13.5485 22.7741 13.5484 22.6781V14.04C13.5483 13.8684 13.5032 13.6998 13.4177 13.551C13.3321 13.4023 13.209 13.2786 13.0606 13.1923L7.26581 9.81677C7.11665 9.72974 6.94688 9.68429 6.77419 9.68516ZM37.7419 14.0052L40.6452 15.6987V19.14L37.7419 20.8335L34.8387 19.14V15.6968L37.7419 14.0032V14.0052ZM53.2258 15.4916L51.5671 16.4594V18.391L53.2258 19.3548L54.8845 18.391V16.4594L53.2258 15.4916ZM29.8181 23.2219C29.617 23.2208 29.419 23.2715 29.2432 23.369L23.8006 26.5161C23.6255 26.6154 23.4799 26.7595 23.3789 26.9337C23.2779 27.1079 23.225 27.3058 23.2258 27.5071V33.7897C23.2258 34.1942 23.4523 34.5755 23.8006 34.7806L25.2329 35.5974C25.92 35.9361 26.1735 35.9361 26.4852 35.9361C27.511 35.9361 28.0955 35.3226 28.0955 34.2387V28.0316C28.096 28.0104 28.0923 27.9894 28.0845 27.9697C28.0768 27.95 28.0652 27.932 28.0504 27.9169C28.0356 27.9017 28.0179 27.8897 27.9984 27.8815C27.9789 27.8733 27.9579 27.869 27.9368 27.869H27.2477C27.2046 27.869 27.1633 27.8862 27.1328 27.9167C27.1023 27.9471 27.0852 27.9885 27.0852 28.0316V34.2387C27.0852 34.709 26.5877 35.1929 25.7768 34.7884L24.2865 33.929C24.2621 33.9137 24.242 33.8926 24.2278 33.8676C24.2136 33.8426 24.2058 33.8145 24.2052 33.7858V27.5032C24.2052 27.4471 24.2323 27.3813 24.2884 27.3523L29.731 24.2148C29.757 24.2004 29.7863 24.1929 29.8161 24.1929C29.8459 24.1929 29.8752 24.2004 29.9013 24.2148L35.3497 27.3503C35.4058 27.3813 35.4329 27.4374 35.4329 27.5032V33.7858C35.4328 33.8159 35.4251 33.8455 35.4105 33.8719C35.396 33.8983 35.3751 33.9206 35.3497 33.9368L29.9013 37.0858C29.8752 37.1002 29.8459 37.1078 29.8161 37.1078C29.7863 37.1078 29.757 37.1002 29.731 37.0858L28.3413 36.2574C28.3026 36.2381 28.2445 36.2284 28.2077 36.2477C27.953 36.411 27.6768 36.5381 27.3871 36.6252C27.2923 36.6542 27.1645 36.7123 27.4374 36.8632L29.2432 37.9374C29.4198 38.0335 29.6171 38.0853 29.8181 38.0884C30.0183 38.0904 30.215 38.0353 30.3852 37.9297L35.8297 34.7806C36.0048 34.6814 36.1504 34.5372 36.2514 34.3631C36.3524 34.1889 36.4053 33.991 36.4045 33.7897V27.5071C36.402 27.3064 36.3477 27.1098 36.2471 26.9362C36.1464 26.7626 36.0026 26.618 35.8297 26.5161L30.3852 23.371C30.2123 23.2729 30.0167 23.2222 29.8181 23.2239V23.2219ZM38.309 26.1213C38.1718 26.1215 38.0359 26.1488 37.9092 26.2016C37.7825 26.2543 37.6674 26.3315 37.5706 26.4288C37.3749 26.6251 37.2653 26.8912 37.2658 27.1684C37.2663 27.4456 37.3769 27.7112 37.5733 27.9069C37.7697 28.1025 38.0357 28.2121 38.3129 28.2116C38.5901 28.2111 38.8557 28.1005 39.0514 27.9041C39.247 27.7078 39.3566 27.4417 39.3561 27.1645C39.3556 26.8873 39.245 26.6217 39.0486 26.426C38.8523 26.2304 38.5862 26.1208 38.309 26.1213ZM38.2974 26.2877C38.789 26.2877 39.1877 26.6748 39.1877 27.1645C39.1842 27.3996 39.0893 27.624 38.9231 27.7902C38.7569 27.9564 38.5325 28.0513 38.2974 28.0548C38.0637 28.0523 37.8405 27.9571 37.6768 27.7902C37.5132 27.6233 37.4225 27.3983 37.4245 27.1645C37.4237 27.0495 37.4458 26.9354 37.4893 26.829C37.5329 26.7225 37.5971 26.6257 37.6782 26.5442C37.7594 26.4627 37.8559 26.3981 37.9622 26.354C38.0684 26.31 38.1824 26.2875 38.2974 26.2877ZM37.9161 26.5723V27.7471H38.1387V27.2787H38.3477C38.4329 27.2787 38.4523 27.3135 38.4716 27.3794C38.4716 27.389 38.5064 27.6948 38.5161 27.751H38.7581C38.7273 27.649 38.7085 27.5437 38.7019 27.4374C38.6748 27.2865 38.6671 27.1819 38.5065 27.1723C38.5916 27.1432 38.7329 27.0987 38.7329 26.8819C38.7329 26.5703 38.4619 26.5723 38.3206 26.5723H37.9161ZM38.1387 26.76H38.3284C38.3864 26.76 38.4987 26.76 38.4987 26.9187C38.4987 26.9845 38.4697 27.0929 38.3168 27.089H38.1387V26.76ZM31.2774 27.72C29.7232 27.72 28.8 28.3839 28.8 29.4755C28.8 30.6716 29.7252 30.991 31.2135 31.14C32.9942 31.32 33.1335 31.5755 33.1335 31.9239C33.1335 32.5355 32.6419 32.789 31.4923 32.789C30.0503 32.789 29.7348 32.4329 29.6303 31.7168C29.6206 31.6394 29.5529 31.5832 29.4677 31.5832H28.7594C28.7382 31.5832 28.7172 31.5874 28.6977 31.5957C28.6782 31.6039 28.6605 31.6159 28.6457 31.6311C28.6309 31.6462 28.6193 31.6642 28.6116 31.6839C28.6039 31.7036 28.6001 31.7246 28.6006 31.7458C28.6006 32.6594 29.1 33.7529 31.4826 33.7529C33.2303 33.7529 34.2194 33.0755 34.2194 31.8871C34.2194 30.7103 33.4258 30.3968 31.7497 30.1703C30.0542 29.9439 29.8858 29.8297 29.8858 29.4329C29.8858 29.1039 30.0252 28.6723 31.2794 28.6723C32.3981 28.6723 32.8161 28.9181 32.9864 29.671C33.0058 29.7484 33.0581 29.7929 33.1335 29.7929H33.84C33.8864 29.7929 33.9271 29.7735 33.9542 29.7464C33.9832 29.7097 34.0006 29.6729 33.9929 29.6264C33.8806 28.3258 33.0213 27.72 31.2774 27.72Z" fill="white"/>
</svg>
