<svg width="38" height="40" viewBox="0 0 38 40" fill="none" xmlns="http://www.w3.org/2000/svg">
<path d="M0 2.4547V37.5435C0.000235076 37.6196 0.0229407 37.694 0.0652696 37.7573C0.107599 37.8206 0.167667 37.8699 0.237941 37.8992C0.308216 37.9285 0.385569 37.9363 0.460301 37.9218C0.535033 37.9073 0.603817 37.8711 0.658027 37.8176L18.9283 20L0.658027 2.18059C0.603817 2.12715 0.535033 2.09089 0.460301 2.07638C0.385569 2.06187 0.308216 2.06974 0.237941 2.09901C0.167667 2.12829 0.107599 2.17766 0.0652696 2.24093C0.0229407 2.30421 0.000235076 2.37857 0 2.4547ZM26.5889 12.6787L3.68031 0.0574083L3.66602 0.0493727C3.27138 -0.16491 2.89639 0.369011 3.2196 0.679722L21.1774 17.8509L26.5889 12.6787ZM3.22139 39.3203C2.89639 39.631 3.27139 40.1649 3.66781 39.9506L3.68209 39.9426L26.5889 27.3213L21.1774 22.1473L3.22139 39.3203ZM35.837 17.7679L29.4398 14.2447L23.4247 20L29.4398 25.7526L35.837 22.2321C37.5772 21.2705 37.5772 18.7295 35.837 17.7679Z" fill="white"/>
</svg>
