<?xml version="1.0" encoding="UTF-8" standalone="no"?>
<!-- Created with Inkscape (http://www.inkscape.org/) -->

<svg
   width="191.99989"
   height="242.78168"
   viewBox="0 0 50.799971 64.235985"
   version="1.1"
   id="svg5"
   inkscape:version="1.2.2 (1:1.2.2+202212051551+b0a8486541)"
   sodipodi:docname="portrait_final.svg"
   xmlns:inkscape="http://www.inkscape.org/namespaces/inkscape"
   xmlns:sodipodi="http://sodipodi.sourceforge.net/DTD/sodipodi-0.dtd"
   xmlns:xlink="http://www.w3.org/1999/xlink"
   xmlns="http://www.w3.org/2000/svg"
   xmlns:svg="http://www.w3.org/2000/svg">
  <sodipodi:namedview
     id="namedview7"
     pagecolor="#ffffff"
     bordercolor="#000000"
     borderopacity="0.25"
     inkscape:showpageshadow="2"
     inkscape:pageopacity="0.0"
     inkscape:pagecheckerboard="0"
     inkscape:deskcolor="#d1d1d1"
     inkscape:document-units="px"
     showgrid="false"
     inkscape:zoom="0.70021044"
     inkscape:cx="-3.5703552"
     inkscape:cy="126.39057"
     inkscape:window-width="1920"
     inkscape:window-height="952"
     inkscape:window-x="0"
     inkscape:window-y="27"
     inkscape:window-maximized="1"
     inkscape:current-layer="layer1" />
  <defs
     id="defs2">
    <linearGradient
       inkscape:collect="always"
       xlink:href="#linearGradient71407"
       id="linearGradient61612"
       gradientUnits="userSpaceOnUse"
       gradientTransform="translate(758.50091,-41.309059)"
       x1="851.78571"
       y1="13.350354"
       x2="855.30164"
       y2="227.17912" />
    <linearGradient
       inkscape:collect="always"
       id="linearGradient71407">
      <stop
         style="stop-color:#e8937d;stop-opacity:1;"
         offset="0"
         id="stop71401" />
      <stop
         style="stop-color:#e8887d;stop-opacity:1;"
         offset="0.89257884"
         id="stop71403" />
      <stop
         style="stop-color:#c34322;stop-opacity:1;"
         offset="1"
         id="stop71405" />
    </linearGradient>
    <linearGradient
       inkscape:collect="always"
       xlink:href="#linearGradient71443"
       id="linearGradient61610"
       gradientUnits="userSpaceOnUse"
       gradientTransform="translate(542.23709,254.76988)"
       x1="1004.215"
       y1="-148.61186"
       x2="1091.1804"
       y2="-166.62071" />
    <linearGradient
       inkscape:collect="always"
       id="linearGradient71443">
      <stop
         style="stop-color:#bf4d40;stop-opacity:1;"
         offset="0"
         id="stop71439" />
      <stop
         style="stop-color:#e8887d;stop-opacity:1;"
         offset="1"
         id="stop71441" />
    </linearGradient>
    <linearGradient
       inkscape:collect="always"
       xlink:href="#linearGradient71473"
       id="linearGradient61608"
       gradientUnits="userSpaceOnUse"
       gradientTransform="translate(758.50091,-41.309059)"
       x1="902.67914"
       y1="74.288338"
       x2="819.4483"
       y2="78.289162" />
    <linearGradient
       inkscape:collect="always"
       id="linearGradient71473">
      <stop
         style="stop-color:#f0afa8;stop-opacity:1;"
         offset="0"
         id="stop71469" />
      <stop
         style="stop-color:#e47267;stop-opacity:1;"
         offset="1"
         id="stop71471" />
    </linearGradient>
    <linearGradient
       inkscape:collect="always"
       xlink:href="#linearGradient61894"
       id="linearGradient61606"
       gradientUnits="userSpaceOnUse"
       gradientTransform="translate(542.23709,254.76988)"
       x1="1018.0152"
       y1="-226.54669"
       x2="1133.5049"
       y2="-246.19409" />
    <linearGradient
       inkscape:collect="always"
       id="linearGradient61894">
      <stop
         style="stop-color:#41160c;stop-opacity:1;"
         offset="0"
         id="stop61890" />
      <stop
         style="stop-color:#6d2513;stop-opacity:1;"
         offset="1"
         id="stop61892" />
    </linearGradient>
    <linearGradient
       inkscape:collect="always"
       xlink:href="#linearGradient82670"
       id="linearGradient82672"
       x1="1650.3845"
       y1="122.06617"
       x2="1631.4094"
       y2="113.88447"
       gradientUnits="userSpaceOnUse" />
    <linearGradient
       inkscape:collect="always"
       id="linearGradient82670">
      <stop
         style="stop-color:#f0afa8;stop-opacity:1;"
         offset="0"
         id="stop82666" />
      <stop
         style="stop-color:#e6877f;stop-opacity:1;"
         offset="1"
         id="stop82668" />
    </linearGradient>
    <linearGradient
       inkscape:collect="always"
       xlink:href="#linearGradient74033"
       id="linearGradient61604"
       gradientUnits="userSpaceOnUse"
       gradientTransform="translate(758.50091,-41.309059)"
       x1="791.75305"
       y1="118.52565"
       x2="802.82544"
       y2="115.95657" />
    <linearGradient
       inkscape:collect="always"
       id="linearGradient74033">
      <stop
         style="stop-color:#d9938c;stop-opacity:1;"
         offset="0"
         id="stop74027" />
      <stop
         style="stop-color:#d9938c;stop-opacity:1;"
         offset="0.4395909"
         id="stop74029" />
      <stop
         style="stop-color:#d9938b;stop-opacity:0;"
         offset="1"
         id="stop74031" />
    </linearGradient>
    <linearGradient
       inkscape:collect="always"
       xlink:href="#linearGradient71399"
       id="linearGradient61602"
       gradientUnits="userSpaceOnUse"
       gradientTransform="translate(758.50091,-41.309059)"
       x1="890.87915"
       y1="158.61551"
       x2="910.39941"
       y2="148.13184" />
    <linearGradient
       inkscape:collect="always"
       id="linearGradient71399">
      <stop
         style="stop-color:#bf4d40;stop-opacity:1;"
         offset="0"
         id="stop71395" />
      <stop
         style="stop-color:#e47367;stop-opacity:1;"
         offset="1"
         id="stop71397" />
    </linearGradient>
    <linearGradient
       inkscape:collect="always"
       xlink:href="#linearGradient71393"
       id="linearGradient61600"
       gradientUnits="userSpaceOnUse"
       gradientTransform="translate(758.50091,-41.309059)"
       x1="819.4483"
       y1="161.21854"
       x2="784.37311"
       y2="139.37463" />
    <linearGradient
       inkscape:collect="always"
       id="linearGradient71393">
      <stop
         style="stop-color:#ac4539;stop-opacity:1;"
         offset="0"
         id="stop71389" />
      <stop
         style="stop-color:#dd4d3c;stop-opacity:1;"
         offset="1"
         id="stop71391" />
    </linearGradient>
    <linearGradient
       inkscape:collect="always"
       xlink:href="#linearGradient71449"
       id="linearGradient61598"
       gradientUnits="userSpaceOnUse"
       gradientTransform="translate(758.50091,-41.309059)"
       x1="856.09674"
       y1="190.35684"
       x2="856.09674"
       y2="179.09706" />
    <linearGradient
       inkscape:collect="always"
       id="linearGradient71449">
      <stop
         style="stop-color:#cc7066;stop-opacity:1;"
         offset="0"
         id="stop71445" />
      <stop
         style="stop-color:#e8887d;stop-opacity:1;"
         offset="1"
         id="stop71447" />
    </linearGradient>
    <linearGradient
       inkscape:collect="always"
       xlink:href="#linearGradient71431"
       id="linearGradient61596"
       gradientUnits="userSpaceOnUse"
       gradientTransform="translate(758.50091,-42.468709)"
       x1="846.84387"
       y1="141.03365"
       x2="842.21277"
       y2="147.92078" />
    <linearGradient
       inkscape:collect="always"
       id="linearGradient71431">
      <stop
         style="stop-color:#602620;stop-opacity:1;"
         offset="0"
         id="stop71427" />
      <stop
         style="stop-color:#993c33;stop-opacity:1;"
         offset="1"
         id="stop71429" />
    </linearGradient>
    <linearGradient
       inkscape:collect="always"
       xlink:href="#linearGradient71437"
       id="linearGradient61594"
       gradientUnits="userSpaceOnUse"
       gradientTransform="translate(758.50091,-41.309059)"
       x1="865.3938"
       y1="140.21333"
       x2="871.84003"
       y2="146.46823" />
    <linearGradient
       inkscape:collect="always"
       id="linearGradient71437">
      <stop
         style="stop-color:#602620;stop-opacity:1;"
         offset="0"
         id="stop71433" />
      <stop
         style="stop-color:#993d33;stop-opacity:1;"
         offset="1"
         id="stop71435" />
    </linearGradient>
    <linearGradient
       inkscape:collect="always"
       xlink:href="#linearGradient83185"
       id="linearGradient83187"
       x1="1570.6337"
       y1="71.886734"
       x2="1596.3315"
       y2="69.897202"
       gradientUnits="userSpaceOnUse" />
    <linearGradient
       inkscape:collect="always"
       id="linearGradient83185">
      <stop
         style="stop-color:#e0d4d1;stop-opacity:1;"
         offset="0"
         id="stop83181" />
      <stop
         style="stop-color:#bc9e9a;stop-opacity:1;"
         offset="1"
         id="stop83183" />
    </linearGradient>
    <linearGradient
       inkscape:collect="always"
       xlink:href="#linearGradient71419"
       id="linearGradient61592"
       gradientUnits="userSpaceOnUse"
       gradientTransform="translate(758.50091,-41.309059)"
       x1="916.59198"
       y1="152.50691"
       x2="903.08148"
       y2="187.39114" />
    <linearGradient
       inkscape:collect="always"
       id="linearGradient71419">
      <stop
         style="stop-color:#ea9b94;stop-opacity:1;"
         offset="0"
         id="stop71415" />
      <stop
         style="stop-color:#e37568;stop-opacity:1;"
         offset="1"
         id="stop71417" />
    </linearGradient>
    <linearGradient
       inkscape:collect="always"
       xlink:href="#linearGradient71467"
       id="linearGradient61590"
       gradientUnits="userSpaceOnUse"
       gradientTransform="translate(758.50091,-41.309059)"
       x1="881.82733"
       y1="171.43005"
       x2="881.63696"
       y2="204.90092" />
    <linearGradient
       inkscape:collect="always"
       id="linearGradient71467">
      <stop
         style="stop-color:#f0b6a8;stop-opacity:1;"
         offset="0"
         id="stop71463" />
      <stop
         style="stop-color:#e8887d;stop-opacity:1;"
         offset="1"
         id="stop71465" />
    </linearGradient>
    <linearGradient
       inkscape:collect="always"
       xlink:href="#linearGradient54042"
       id="linearGradient61588"
       gradientUnits="userSpaceOnUse"
       gradientTransform="matrix(1.1678868,0,0,1.1678868,616.4268,-60.563587)"
       x1="846.24951"
       y1="111.42981"
       x2="834.25757"
       y2="111.42981" />
    <linearGradient
       inkscape:collect="always"
       id="linearGradient54042">
      <stop
         style="stop-color:#b2b2b2;stop-opacity:1;"
         offset="0"
         id="stop54038" />
      <stop
         style="stop-color:#a6a6a6;stop-opacity:0;"
         offset="1"
         id="stop54040" />
    </linearGradient>
    <linearGradient
       inkscape:collect="always"
       xlink:href="#linearGradient83177"
       id="linearGradient83179"
       x1="1633.415"
       y1="67.817856"
       x2="1655.3398"
       y2="70.0271"
       gradientUnits="userSpaceOnUse" />
    <linearGradient
       inkscape:collect="always"
       id="linearGradient83177">
      <stop
         style="stop-color:#cd9189;stop-opacity:1;"
         offset="0"
         id="stop83173" />
      <stop
         style="stop-color:#e8ccc9;stop-opacity:1;"
         offset="1"
         id="stop83175" />
    </linearGradient>
    <linearGradient
       inkscape:collect="always"
       xlink:href="#linearGradient71413"
       id="linearGradient61586"
       gradientUnits="userSpaceOnUse"
       gradientTransform="translate(758.50091,-41.309059)"
       x1="894.12457"
       y1="161.33109"
       x2="898.13263"
       y2="155.96593" />
    <linearGradient
       inkscape:collect="always"
       id="linearGradient71413">
      <stop
         style="stop-color:#6d1c13;stop-opacity:1;"
         offset="0"
         id="stop71409" />
      <stop
         style="stop-color:#bf4d40;stop-opacity:1;"
         offset="1"
         id="stop71411" />
    </linearGradient>
    <linearGradient
       inkscape:collect="always"
       xlink:href="#linearGradient71449"
       id="linearGradient61584"
       gradientUnits="userSpaceOnUse"
       gradientTransform="translate(758.50091,-41.309059)"
       x1="855.37244"
       y1="160.76062"
       x2="855.27844"
       y2="153.53311" />
    <linearGradient
       inkscape:collect="always"
       xlink:href="#linearGradient65099"
       id="linearGradient61582"
       gradientUnits="userSpaceOnUse"
       gradientTransform="translate(542.23709,254.76988)"
       x1="1131.1971"
       y1="-202.79004"
       x2="1138.9056"
       y2="-205.24518" />
    <linearGradient
       inkscape:collect="always"
       id="linearGradient65099">
      <stop
         style="stop-color:#822d17;stop-opacity:1;"
         offset="0"
         id="stop65095" />
      <stop
         style="stop-color:#ad3b1f;stop-opacity:1;"
         offset="1"
         id="stop65097" />
    </linearGradient>
    <linearGradient
       inkscape:collect="always"
       xlink:href="#linearGradient62314"
       id="linearGradient61580"
       gradientUnits="userSpaceOnUse"
       gradientTransform="translate(542.23709,254.76988)"
       x1="1132.4861"
       y1="-249.87833"
       x2="1031.5819"
       y2="-277.20828" />
    <linearGradient
       inkscape:collect="always"
       id="linearGradient62314">
      <stop
         style="stop-color:#c34322;stop-opacity:1;"
         offset="0"
         id="stop62310" />
      <stop
         style="stop-color:#733626;stop-opacity:1;"
         offset="1"
         id="stop62312" />
    </linearGradient>
    <linearGradient
       inkscape:collect="always"
       xlink:href="#linearGradient74025"
       id="linearGradient61578"
       gradientUnits="userSpaceOnUse"
       gradientTransform="translate(758.50091,-41.309059)"
       x1="789.62781"
       y1="134.65746"
       x2="797.76373"
       y2="133.45126" />
    <linearGradient
       inkscape:collect="always"
       id="linearGradient74025">
      <stop
         style="stop-color:#dd8e88;stop-opacity:1;"
         offset="0"
         id="stop74021" />
      <stop
         style="stop-color:#cf6363;stop-opacity:1;"
         offset="1"
         id="stop74023" />
    </linearGradient>
    <linearGradient
       inkscape:collect="always"
       xlink:href="#linearGradient71479"
       id="linearGradient71481"
       x1="1684.1147"
       y1="74.517883"
       x2="1699.9819"
       y2="76.477821"
       gradientUnits="userSpaceOnUse" />
    <linearGradient
       inkscape:collect="always"
       id="linearGradient71479">
      <stop
         style="stop-color:#c34222;stop-opacity:1;"
         offset="0"
         id="stop71475" />
      <stop
         style="stop-color:#de7154;stop-opacity:1;"
         offset="1"
         id="stop71477" />
    </linearGradient>
    <linearGradient
       inkscape:collect="always"
       xlink:href="#linearGradient83105"
       id="linearGradient83107"
       x1="1671.9658"
       y1="158.98712"
       x2="1670.4496"
       y2="183.91858"
       gradientUnits="userSpaceOnUse" />
    <linearGradient
       inkscape:collect="always"
       id="linearGradient83105">
      <stop
         style="stop-color:#f4c3be;stop-opacity:1;"
         offset="0"
         id="stop83101" />
      <stop
         style="stop-color:#e8887d;stop-opacity:1;"
         offset="1"
         id="stop83103" />
    </linearGradient>
    <linearGradient
       inkscape:collect="always"
       xlink:href="#linearGradient71425"
       id="linearGradient61576"
       gradientUnits="userSpaceOnUse"
       gradientTransform="translate(758.50091,-41.309059)"
       x1="923.63428"
       y1="130.36386"
       x2="895.76538"
       y2="191.21875" />
    <linearGradient
       inkscape:collect="always"
       id="linearGradient71425">
      <stop
         style="stop-color:#edb0ab;stop-opacity:1;"
         offset="0"
         id="stop71421" />
      <stop
         style="stop-color:#d63829;stop-opacity:1;"
         offset="1"
         id="stop71423" />
    </linearGradient>
    <linearGradient
       inkscape:collect="always"
       xlink:href="#linearGradient68112"
       id="linearGradient61574"
       gradientUnits="userSpaceOnUse"
       gradientTransform="translate(758.50091,-41.309059)"
       x1="827.99481"
       y1="169.29637"
       x2="849.01569"
       y2="166.78246" />
    <linearGradient
       inkscape:collect="always"
       id="linearGradient68112">
      <stop
         style="stop-color:#993d33;stop-opacity:1;"
         offset="0"
         id="stop68108" />
      <stop
         style="stop-color:#ac4439;stop-opacity:1;"
         offset="1"
         id="stop68110" />
    </linearGradient>
    <linearGradient
       inkscape:collect="always"
       xlink:href="#linearGradient68112"
       id="linearGradient61572"
       gradientUnits="userSpaceOnUse"
       gradientTransform="translate(758.50091,-41.309059)"
       x1="886.9339"
       y1="167.52985"
       x2="871.82727"
       y2="164.88573" />
    <linearGradient
       inkscape:collect="always"
       xlink:href="#linearGradient68394"
       id="linearGradient61570"
       gradientUnits="userSpaceOnUse"
       gradientTransform="translate(758.50091,-41.309059)"
       x1="828.22235"
       y1="170.58313"
       x2="836.30957"
       y2="173.43933" />
    <linearGradient
       inkscape:collect="always"
       id="linearGradient68394">
      <stop
         style="stop-color:#732e26;stop-opacity:1;"
         offset="0"
         id="stop68390" />
      <stop
         style="stop-color:#993d33;stop-opacity:1;"
         offset="1"
         id="stop68392" />
    </linearGradient>
    <linearGradient
       inkscape:collect="always"
       xlink:href="#linearGradient69861"
       id="linearGradient61568"
       gradientUnits="userSpaceOnUse"
       gradientTransform="translate(542.23709,254.76988)"
       x1="1095.7881"
       y1="-127.87862"
       x2="1078.3804"
       y2="-122.68719" />
    <linearGradient
       inkscape:collect="always"
       id="linearGradient69861">
      <stop
         style="stop-color:#c65e53;stop-opacity:1;"
         offset="0"
         id="stop69857" />
      <stop
         style="stop-color:#c33222;stop-opacity:1;"
         offset="1"
         id="stop69859" />
    </linearGradient>
    <linearGradient
       inkscape:collect="always"
       xlink:href="#linearGradient68394"
       id="linearGradient61566"
       gradientUnits="userSpaceOnUse"
       gradientTransform="translate(758.50091,-41.309059)"
       x1="882.85968"
       y1="170.26486"
       x2="869.3017"
       y2="172.60324" />
    <linearGradient
       inkscape:collect="always"
       xlink:href="#linearGradient71461"
       id="linearGradient61564"
       gradientUnits="userSpaceOnUse"
       gradientTransform="translate(542.23709,254.76988)"
       x1="1138.1105"
       y1="-74.369072"
       x2="1136.2347"
       y2="-89.896248" />
    <linearGradient
       inkscape:collect="always"
       id="linearGradient71461">
      <stop
         style="stop-color:#85352d;stop-opacity:1;"
         offset="0"
         id="stop71457" />
      <stop
         style="stop-color:#ac4539;stop-opacity:1;"
         offset="1"
         id="stop71459" />
    </linearGradient>
    <linearGradient
       inkscape:collect="always"
       xlink:href="#linearGradient65312"
       id="linearGradient61562"
       gradientUnits="userSpaceOnUse"
       gradientTransform="translate(542.23709,254.76988)"
       x1="1148.17"
       y1="-183.83325"
       x2="1155.9471"
       y2="-177.62903" />
    <linearGradient
       inkscape:collect="always"
       id="linearGradient65312">
      <stop
         style="stop-color:#571d0f;stop-opacity:1;"
         offset="0"
         id="stop65308" />
      <stop
         style="stop-color:#822d17;stop-opacity:1;"
         offset="1"
         id="stop65310" />
    </linearGradient>
    <linearGradient
       inkscape:collect="always"
       xlink:href="#linearGradient65312"
       id="linearGradient61560"
       gradientUnits="userSpaceOnUse"
       gradientTransform="translate(542.23709,254.76988)"
       x1="1143.4825"
       y1="-175.70192"
       x2="1154.9373"
       y2="-170.69612" />
    <linearGradient
       inkscape:collect="always"
       xlink:href="#linearGradient65312"
       id="linearGradient61558"
       gradientUnits="userSpaceOnUse"
       gradientTransform="translate(542.23709,254.76988)"
       x1="1142.0811"
       y1="-165.24408"
       x2="1150.3435"
       y2="-158.67139" />
    <linearGradient
       inkscape:collect="always"
       xlink:href="#linearGradient74039"
       id="linearGradient61556"
       gradientUnits="userSpaceOnUse"
       gradientTransform="translate(542.23709,254.76988)"
       x1="1132.5082"
       y1="-192.23381"
       x2="1139.7308"
       y2="-192.23381" />
    <linearGradient
       inkscape:collect="always"
       id="linearGradient74039">
      <stop
         style="stop-color:#57160f;stop-opacity:1;"
         offset="0"
         id="stop74035" />
      <stop
         style="stop-color:#97271b;stop-opacity:1;"
         offset="1"
         id="stop74037" />
    </linearGradient>
    <linearGradient
       inkscape:collect="always"
       xlink:href="#linearGradient74045"
       id="linearGradient61554"
       gradientUnits="userSpaceOnUse"
       gradientTransform="translate(494.73744,337.88108)"
       x1="1016.0921"
       y1="-22.576904"
       x2="1022.6838"
       y2="-22.576904" />
    <linearGradient
       inkscape:collect="always"
       id="linearGradient74045">
      <stop
         style="stop-color:#822217;stop-opacity:1;"
         offset="0"
         id="stop74041" />
      <stop
         style="stop-color:#57160f;stop-opacity:1;"
         offset="1"
         id="stop74043" />
    </linearGradient>
    <linearGradient
       inkscape:collect="always"
       xlink:href="#linearGradient83097"
       id="linearGradient83099"
       x1="1655.875"
       y1="214.00462"
       x2="1670.4496"
       y2="183.91858"
       gradientUnits="userSpaceOnUse" />
    <linearGradient
       inkscape:collect="always"
       id="linearGradient83097">
      <stop
         style="stop-color:#bf4d40;stop-opacity:1;"
         offset="0"
         id="stop83093" />
      <stop
         style="stop-color:#d9948c;stop-opacity:1;"
         offset="1"
         id="stop83095" />
    </linearGradient>
    <linearGradient
       inkscape:collect="always"
       xlink:href="#linearGradient83169"
       id="linearGradient83171"
       x1="1663.0162"
       y1="172.702"
       x2="1647.8816"
       y2="184.70233"
       gradientUnits="userSpaceOnUse" />
    <linearGradient
       inkscape:collect="always"
       id="linearGradient83169">
      <stop
         style="stop-color:#ea9b94;stop-opacity:1;"
         offset="0"
         id="stop83165" />
      <stop
         style="stop-color:#e58780;stop-opacity:1;"
         offset="1"
         id="stop83167" />
    </linearGradient>
  </defs>
  <g
     inkscape:label="Layer 1"
     inkscape:groupmode="layer"
     id="layer1"
     transform="translate(-36.947337,-115.24842)">
    <g
       id="g83311"
       transform="matrix(0.26458333,0,0,0.26458333,-364.80922,122.86235)">
      <path
         style="fill:#990033;fill-opacity:1;stroke-width:0.2"
         d="m 1518.45,165.95968 c 0,0 3.7558,0.0539 5.5826,-0.31579 3.8175,-0.77264 11.0046,-3.92851 11.0046,-3.92851 0,0 4.9351,1.18163 7.4312,1.02926 2.0888,-0.12751 6.0679,-1.61139 6.0679,-1.61139 0,0 5.047,0.0143 7.3863,-0.79833 2.9208,-1.01456 7.8544,-4.93489 7.8544,-4.93489 l 109.4917,0.59984 2.4704,1.54538 4.8183,0.0681 2.9974,1.06323 2.0872,1.82919 3.0025,0.31171 4.4951,3.72216 3.4,0.125 5.324,3.76798 6.2955,-1.88463 2.2908,0.99142 v 46.46521 H 1518.45 Z"
         id="path61318"
         sodipodi:nodetypes="cacacaccccccccccccccc" />
      <path
         style="fill:#bf4d40;fill-opacity:1;stroke-width:0.2"
         d="m 1673.5455,146.71252 -0.3491,11.71085 c 5.932,3.70789 6.8194,9.96256 6.0837,17.03672 0.6281,2.55142 0.155,4.01997 2.8551,8.60875 -1.8453,4.2967 -3.6804,8.22212 -5.5046,11.7544 -0.5676,5.74208 -2.1626,11.70329 -6.181,18.18138 h -90.7287 c -0.6056,-1.80485 -1.4385,-4.21476 -2.2603,-6.59518 -1.5491,-15.40457 -4.066,-32.04444 -5.6989,-43.81757 z"
         id="path61320"
         sodipodi:nodetypes="cccccccccc" />
      <path
         style="fill:#661400;fill-opacity:1;stroke-width:0.2"
         d="m 1679.6419,121.83724 1.7535,-0.92387 1.5227,1.79524 -0.1931,4.27967 3.8058,5.0796 -2.988,5.36395 0.056,3.72295 -3.1452,1.12866 -1.304,3.74429 -1.1516,5.52066 -3.7137,2.12288 -2.3185,5.31585 0.2199,-11.98507 z"
         id="path61322"
         sodipodi:nodetypes="cccccccccccccc" />
      <path
         style="fill:url(#linearGradient61612);fill-opacity:1;stroke-width:0.2"
         d="m 1547.3601,49.266991 -0.1106,34.012835 c 2.887,12.17407 2.8993,33.330014 4.3155,50.099494 27.1461,56.47256 81.3582,60.5188 121.4115,12.09639 4.5221,-8.16167 5.574,-16.32335 6.7912,-24.48502 l 2.3675,-31.935884 -2.1945,-45.371335 -17.9564,-44.9856011 -92.9369,1.72790001 z"
         id="path61324"
         sodipodi:nodetypes="cccccccccc" />
      <path
         style="fill:url(#linearGradient61610);fill-opacity:1;stroke-width:0.2"
         d="m 1620.3189,-2.8017991 13.0986,177.9894391 c -18.8605,6.05903 -54.8309,12.41207 -81.8525,-41.80832 -2.0659,-19.07068 -6.0661,-40.548114 -4.3001,-54.851119 l 6.6435,-21.01583 27.4633,-52.5219711 z"
         id="path61326"
         sodipodi:nodetypes="ccccccc" />
      <path
         style="fill:url(#linearGradient61608);fill-opacity:1;stroke-width:0.2"
         d="m 1586.4385,32.315451 c 0,0 18.2967,1.80346 27.4554,1.46654 7.3599,-0.27075 24.7635,-18.227631 34.274,-19.555131 12.4137,-1.73273 16.2508,13.108611 16.2508,13.108611 l -1.6935,17.10077 c 0,0 -30.5871,5.09253 -45.9513,4.30711 -11.5875,-0.59235 -34.1439,-6.76539 -34.1439,-6.76539 z"
         id="path61328"
         sodipodi:nodetypes="cssccacc" />
      <path
         style="fill:#571d0f;fill-opacity:1;stroke-width:0.2"
         d="m 1622.6853,50.267271 -2.4736,-7.09932 5.6739,0.063 5.6392,-2.3151 17.9032,1.83256 12.5223,1.16364 10.5553,7.1397 -0.6908,2.6079 -9.3895,-4.99829 -19.9326,0.42695 z"
         id="path61330"
         sodipodi:nodetypes="ccccccccccc" />
      <path
         style="fill:url(#linearGradient61606);fill-opacity:1;stroke-width:0.2"
         d="m 1684.4354,-1.3021301 4.0121,9.46672 1.4485,13.7507001 -0.7562,9.433121 3.0693,8.22376 c 0,0 -0.4909,1.77632 -0.3301,2.65279 0.209,1.13993 1.6256,3.07338 1.6256,3.07338 l -0.1252,1.78475 c 0,0 -0.2688,1.13531 -0.248,1.71135 0.054,1.4905 0.959,4.37041 0.959,4.37041 0,0 -1.8775,3.59775 -2.0573,5.56829 -0.1718,1.88268 -0.3313,4.2168 0.9703,5.58787 1.2546,1.32152 5.3301,1.21382 5.3301,1.21382 l 0.5523,2.18953 c 0,0 -0.9326,-0.14428 -1.1478,0.17755 -0.6896,1.03123 0.2901,2.52455 0.8793,3.61625 0.9963,1.84582 3.7599,1.48168 3.7232,1.17649 0,0 -1.0757,2.2075 -2.0964,2.73372 -0.3038,0.15666 -0.2623,1.04941 -0.2622,1.04945 l -4.8682,0.68203 c 0,0 0.2454,2.05464 0.7678,2.911735 0.5365,0.88028 2.2967,2.07131 2.2967,2.07131 l -2.0076,3.86171 h -1.7613 l -0.2935,7.3398 -3.0705,5.50816 -3.6362,0.45049 -1.9255,-3.63157 -1.4545,8.510734 -4.5075,-7.341314 1.5164,-30.471765 -10.6399,-19.10082 1.5151,-10.49134 -8.2694,-5.28127 c -2.2462,-3.81668 -3.6516,-7.718771 -4.2438,-11.703491 -3.8113,4.51676 -8.2662,6.988171 -13.2336,7.830691 L 1627.4349,23.7785 c 0,0 -20.4771,-8.55181 -29.9466,-4.98359 -5.4467,2.05236 -9.2884,7.817961 -11.0498,13.520541 -1.2995,6.43861 -1.8527,9.367 -0.4034,13.02705 3.109,2.82696 5.9937,5.93711 10.4006,7.12505 4.5106,-0.37442 8.2575,-3.96225 12.2816,-6.384 l -7.3488,9.4001 -13.3316,-0.60153 -18.1295,1.0266 -15.999,1.60365 -6.6435,21.01589 1.0872,18.652885 2.4703,25.238404 c 0,0 -4.121,-3.25918 -4.3316,-5.61316 -0.113,-1.26337 1.6031,-2.11784 1.7532,-3.37735 0.2953,-2.47865 -1.7919,-7.27102 -1.7919,-7.27102 0,0 -1.3403,2.21265 -1.548,3.45852 -0.394,2.36339 -0.077,4.87552 0.6498,7.15856 0.3415,1.07259 1.6956,2.92042 1.6956,2.92042 0,0 -3.9385,-2.73519 -4.8928,-4.81492 -1.325,-2.88809 -0.78,-6.33701 -0.6373,-9.51137 0.1108,-2.46229 1.8956,-9.654404 1.1546,-7.303654 -0.4317,1.36956 -5.334,4.252394 -4.0275,3.109724 0,0 2.6541,-3.820734 2.8415,-6.036884 0.1821,-2.15333 -1.7365,-6.24613 -1.7365,-6.24613 l -8.2548,0.0896 -4.224,-1.46897 c 0,0 2.8322,-0.26061 4.2338,-0.49352 1.5763,-0.26195 3.3564,-0.12727 4.6853,-1.01477 0.5825,-0.38904 0.9821,-1.06025 1.1977,-1.72674 0.5343,-1.65186 -0.694,-3.66346 0.1,-5.207375 0.2855,-0.55512 1.5021,-1.11836 1.5021,-1.11836 l -1.4302,-2.45367 -0.1387,-2.3026 -1.6608,-0.18587 -1.7861,-1.96101 0.5174,-1.96115 0.389,-5.76135 -0.1693,-5.3989 -1.4492,-3.77957 -3.6493,-4.15537 c 0,0 1.281,-0.40763 1.4423,-0.9627 0.1469,-0.50588 -0.2512,-1.08926 -0.6396,-1.44517 -0.6529,-0.59829 -2.5138,-0.85955 -2.5138,-0.85955 l 3.4008,-2.89642 -1.7109,-2.87824 5.9837,-1.46723 -2.3903,-2.39731 0.7827,-3.13317 c 0,0 -2.1167,-1.82644 -2.2705,-3.09728 -0.3286,-2.7165 1.6512,-5.28746 3.1343,-7.587011 1.1144,-1.72788 2.4876,-3.39265 4.2219,-4.49696 1.0446,-0.66516 3.5301,-1.15828 3.5301,-1.15828 0,0 -2.8666,1.7105 -3.0312,3.16103 -0.1115,0.98224 1.2512,1.59501 1.5205,2.54618 0.1076,0.37992 -0.1688,0.83546 0.016,1.18444 0.2621,0.495081 0.817,0.980081 1.3769,0.963461 0.568,-0.0169 0.7698,-1.013311 1.3363,-1.058521 0.4302,-0.0343 0.7024,0.694111 1.1296,0.632721 0.9982,-0.14344 2.1164,-2.161971 2.1164,-2.161971 l 7.6157,-12.673 9.3338,-13.7317291 19.3775,-13.8430899 18.64,-10.06065 16.1402,-1.06183 c 1.8439,0.8962 4.1279,2.28165 5.5316,2.68859 1.5767,0.40964 3.8003,0.54328 6.2092,0.59789 l 11.1476,4.01837 8.0995,2.31336 7.1237,4.96732 1.4935,-0.94669 3.3501,0.92871 c 0,0 -0.193,0.90526 0.08,1.19724 1.0611,1.13332 4.6166,0.61685 4.6166,0.61685 0,0 -0.027,2.7562299 0.6441,3.8841799 1.2576,2.11437 5.8216,4.53636 5.8216,4.53636 0,0 1.5925,8.146459 3.1448,11.968009 1.6604,4.0878101 6.5159,11.5216001 6.5159,11.5216001 z"
         id="path61332"
         sodipodi:nodetypes="cccccaccacaaccascsccaccccccccccccccccacccccccccccaacaacaascacccaaaaccccccccccaaccccccaaacaaaaaacccccccccccccacacacc" />
      <path
         style="fill:url(#linearGradient82672);fill-opacity:1;stroke-width:0.2"
         d="m 1625.5132,121.30854 21.3747,5.04072 6.4201,-5.04072 -7.8559,-8.00416 -13.2718,4.55922 z"
         id="path61334" />
      <path
         style="fill:#bf4d40;fill-opacity:1;stroke-width:0.2"
         d="m 1585.9366,128.34376 c 6.6348,-4.3284 13.9897,-5.56636 21.58,-5.79432 l 7.1758,0.858 8.3321,-1.65015 c 6.9448,-1.4183 16.2965,1.40637 23.8634,4.59197 l -7.4456,0.35147 -18.1721,2.44317 -5.3804,0.9771 -22.4356,-1.64071 z"
         id="path61336"
         sodipodi:nodetypes="cccccccccc" />
      <path
         style="fill:#ac4439;fill-opacity:1;stroke-width:0.2"
         d="m 1623.0245,121.75729 0.2983,7.17518 -7.4175,0.74964 -22.5015,-1.55396 -4.0445,0.27777 -1.1933,-0.72517 -1.6703,0.30656 21.0209,-5.43787 7.1758,0.858 4.166,-0.82507 z"
         id="path61338"
         sodipodi:nodetypes="ccccccccccc" />
      <path
         style="fill:#571d0f;fill-opacity:1;stroke-width:0.2"
         d="m 1553.9084,57.512371 c 0,0 -6.4401,12.99638 -12.1664,16.93723 -1.1303,0.7779 -3.9806,1.04888 -3.9806,1.04888 l 1.4302,2.45367 c 0,0 4.0515,-0.0133 5.5807,-1.13846 3.9654,-2.91759 7.1243,-12.9372 7.1243,-12.9372 z"
         id="path61340"
         sodipodi:nodetypes="caccacc" />
      <path
         style="fill:#c56053;fill-opacity:1;stroke-width:0.2"
         d="m 1547.3048,66.273401 6.2025,23.014845 c 1.9871,3.94462 5.4503,3.75088 12.0055,4.2118 l 23.5771,-0.75218 c 5.7697,0.26015 9.8687,-4.28261 12.6922,-10.69712 1.7812,-5.742035 3.7515,-11.385415 2.3349,-18.795105 -0.708,-3.23315 -5.4016,-5.603 -5.8051,-5.55066 -16.6635,-2.15126 -31.7794,-1.25781 -45.9065,4.56211 z"
         id="path61342"
         sodipodi:nodetypes="ccccccccc" />
      <path
         style="fill:#ac4539;fill-opacity:1;stroke-width:0.2"
         d="m 1558.8091,77.952151 c 0,0 13.3209,8.152605 20.8425,9.137385 7.1226,0.93254 21.2991,-3.27994 21.2991,-3.27994 -1.4857,2.50111 -2.3009,5.06247 -5.0395,7.45101 0,0 -12.5677,3.39937 -18.6098,1.86335 -7.8353,-1.99189 -20.049,-13.64829 -20.049,-13.64829 z"
         id="path61344"
         sodipodi:nodetypes="caccacc" />
      <path
         id="path61346"
         style="fill:url(#linearGradient61604);fill-opacity:1;stroke-width:0.2"
         d="m 1566.4861,58.103091 c -1.1027,0.20986 -2.2011,0.43499 -3.291,0.69335 -0.7487,0.17746 -1.4935,0.3752 -2.2363,0.57617 -0.2932,0.0787 -0.6031,0.16697 -0.9043,0.25 -2.583,0.7348 -5.1314,1.60759 -7.6485,2.64453 l -5.1015,4.00586 6.2028,23.015245 c 1.9704,3.91151 5.4108,3.75507 11.8597,4.20156 0.1738,-0.001 0.3475,4.1e-4 0.5214,-0.002 l 2.9688,-0.0957 c -10.3361,-17.960595 -9.0212,-28.356705 -2.3711,-35.289015 z"
         sodipodi:nodetypes="csccccccccc" />
      <path
         style="fill:url(#linearGradient61602);fill-opacity:1;stroke-width:0.2"
         d="m 1634.236,94.168656 c 4.2715,7.929834 4.4843,13.686594 19.072,27.139884 0.6771,4.90186 -1.338,15.45216 -2.3289,23.85361 6.8932,-8.33332 13.4589,-18.25037 17.9212,-38.33937 0.1459,-9.963774 1.6089,-15.844714 -8.3109,-16.257734 -14.7566,5.07093 -20.718,4.44285 -26.3534,3.60361 z"
         id="path61348"
         sodipodi:nodetypes="cccccc" />
      <path
         style="fill:url(#linearGradient61600);fill-opacity:1;stroke-width:0.2"
         d="m 1591.3934,99.003146 c -3.8839,6.913514 0.1346,8.972184 -17.3615,24.248324 -1.8349,6.24541 -0.2697,12.24348 2.7766,18.13379 -8.747,-7.36389 -14.6498,-15.63369 -20.0543,-24.0622 -4.0716,-7.70232 -3.5449,-13.98572 3.6943,-18.197824 5.4894,2.714874 16.4196,2.322824 30.9449,-0.12209 z"
         id="path61350"
         sodipodi:nodetypes="cccccc" />
      <path
         style="fill:url(#linearGradient61598);fill-opacity:1;stroke-width:0.2"
         d="m 1598.23,150.12221 32.7353,-2.14885 -2.679,-8.02312 c 0,0 -8.0867,-2.11551 -12.2263,-2.18937 -5.1735,-0.0923 -15.3677,2.18937 -15.3677,2.18937 z"
         id="path61352"
         sodipodi:nodetypes="cccacc" />
      <path
         style="fill:url(#linearGradient61596);fill-opacity:1;stroke-width:0.2"
         d="m 1598.23,100.30592 c 3.3533,-2.129604 6.6837,-3.253334 9.9108,0.15501 0,1.4483 -1.582,2.65146 -3.5397,3.79741 -5.8646,3.17929 -5.9121,-0.63383 -6.3711,-3.95242 z"
         id="path61354"
         sodipodi:nodetypes="cccc" />
      <path
         style="fill:url(#linearGradient61594);fill-opacity:1;stroke-width:0.2"
         d="m 1619.6221,101.92202 c 2.2517,-2.126234 4.8294,-4.482774 9.0432,-2.471284 0.7418,0.35408 1.4786,1.014354 1.6708,1.813524 0.2702,1.12421 -0.2855,2.75413 -0.9339,3.34068 -1.0042,0.90853 -3.4601,0.27261 -4.9986,-0.37953 -0.8906,-0.37752 -1.2927,-1.51939 -2.1701,-1.92673 -0.7977,-0.37036 -2.6114,-0.37666 -2.6114,-0.37666 z"
         id="path61356"
         sodipodi:nodetypes="csasaac" />
      <path
         style="fill:url(#linearGradient83187);fill-opacity:1;stroke-width:0.2"
         d="m 1570.0479,73.579621 c 2.2667,-3.3561 7.4699,-6.36389 12.9856,-7.44533 6.6505,-0.57428 9.8556,1.98475 13.2981,3.76291 -3.6378,1.60631 -6.1141,3.42499 -14.4108,4.17951 -6.4113,0.75465 -9.4618,0.24872 -11.8729,-0.49709 z"
         id="path61358"
         sodipodi:nodetypes="ccccc" />
      <path
         style="fill:#cc7066;fill-opacity:1;stroke-width:0.2"
         d="m 1626.4509,191.08914 2.2898,22.91548 h 12.5597 l 9.1988,-24.11947 14.6545,-5.18282 3.9046,14.3564 4.6351,-6.08884 -1.5077,-45.96784 c -13.1214,20.18302 -27.6287,28.87924 -35.748,34.05566 -3.421,2.18098 -7.4913,3.42495 -11.4846,4.83827 z"
         id="path61360"
         sodipodi:nodetypes="ccccccccscc" />
      <path
         style="fill:#993d33;fill-opacity:1;stroke-width:0.2"
         d="m 1608.5594,198.90977 c 7.566,3.24109 17.8762,3.82133 24.6797,-0.81138 7.4447,-5.06938 10.7218,-24.80223 10.7218,-24.80223 l 8.8186,-8.56872 c -10.0305,6.64159 -20.2127,13.44538 -39.912,14.33868 -26.0316,0.10314 -37.2886,-14.81713 -37.2886,-14.81713 l 15.5059,15.07448 c 0,0 9.432,16.14104 17.4746,19.5863 z"
         id="path61362"
         sodipodi:nodetypes="aaccccca" />
      <path
         style="fill:#e8887d;fill-opacity:1;stroke-width:0.2"
         d="m 1575.9529,62.030491 5.4188,5.35533 c 0,0 -8.2473,1.78874 -11.3238,6.1938 2.7,0.96074 5.6703,1.12086 8.809,0.78243 l -3.4886,7.454545 -14.0419,-5.231995 z"
         id="path61364"
         sodipodi:nodetypes="ccccccc" />
      <path
         style="fill:#330a00;fill-opacity:1;stroke-width:0.2"
         d="m 1577.7013,67.807201 c -0.2719,2.02184 -0.1938,4.53301 1.1556,6.55485 2.7619,-0.0405 5.8659,-0.43275 9.3304,-1.26079 1.4039,-1.77014 1.097,-4.60033 0.9911,-6.5181 -7.1787,-1.10595 -9.2861,0.70314 -11.4771,1.22404 z"
         id="path61366"
         sodipodi:nodetypes="ccccc" />
      <path
         style="fill:#993c33;fill-opacity:1;stroke-width:0.2"
         d="m 1575.9529,62.030491 7.0806,4.1038 c 4.8122,-0.80806 9.6586,1.07476 13.2981,3.76291 -4.4056,1.88044 -7.8876,2.35025 -17.4747,4.46485 l -3.4886,7.454545 c 2.8939,0.34418 5.6587,0.75734 18.1834,-4.040315 1.627,-1.66972 3.2453,-3.15422 5.0331,-8.20442 l -2.6908,-6.36158 c -12.0185,-3.77503 -15.3274,-2.06669 -19.9411,-1.17979 z"
         id="path61368"
         sodipodi:nodetypes="ccccccccc" />
      <path
         style="fill:#eb9b93;fill-opacity:1;stroke-width:0.2"
         d="m 1613.6968,55.150291 -4.3081,12.02248 c 0,0 -2.2697,15.562545 -6.2033,22.140535 -2.1315,3.56455 -7.1108,4.9292 -8.9787,8.63872 -0.7677,1.52471 -0.655,5.079214 -0.655,5.079214 0,0 2.7369,-3.802624 6.0487,-6.606054 2.0191,-1.7092 3.6978,-2.2427 5.6119,-1.80015 2.5702,0.5943 1.329,4.00032 5.7099,5.480094 1.728,0.58366 4.5573,0.15053 5.5846,1.81689 1.0543,1.7101 -0.9087,5.95794 -0.9087,5.95794 0.2655,0.56384 -0.5717,0.48048 0,0 1.9813,-2.76019 4.2657,-4.39564 6.6354,-9.242094 l 5.8995,-1.32271 3.8144,4.583374 -1.6065,3.26065 3.8951,-7.598944 -12.9658,-42.605155 z"
         id="path61370"
         sodipodi:nodetypes="ccaacsasaccccccccc" />
      <path
         style="fill:url(#linearGradient61592);fill-opacity:1;stroke-width:0.2"
         d="m 1663.6438,31.495711 -1.2185,17.1657 10.0803,20.69798 v 13.253805 l -18.434,4.94804 14.8287,19.261544 -17.9212,38.33937 c 0.8264,8.53841 -4.1774,28.66241 21.2066,1.8399 5.007,-7.63069 5.908,-16.98309 7.582,-26.01136 l 2.3675,-31.935884 c 0,0 0.9825,-15.406185 -1.0972,-22.685665 -2.0021,-7.00773 -10.6399,-19.10082 -10.6399,-19.10082 l 1.5151,-10.49134 z"
         id="path61372"
         sodipodi:nodetypes="ccccccccccaccc" />
      <path
         style="fill:#c75d52;fill-opacity:1;stroke-width:0.2"
         d="m 1622.2366,61.937611 c 0.01,-1.03246 -0.3335,-2.22753 4.2997,-4.11391 11.0582,-4.42417 25.9537,-4.4134 40.8696,-3.74482 4.6662,0.48966 6.6046,2.19407 7.3071,4.44883 l 0.6668,18.06009 c 0.1821,4.025205 -1.0808,5.494575 -2.8742,6.025395 -11.7006,6.22041 -33.5851,5.06365 -37.0479,4.42567 -4.5564,-0.0352 -5.5303,-2.15634 -6.7101,-4.15763 -5.0283,-5.710395 -5.8379,-13.415145 -6.511,-20.943625 z"
         id="path61374"
         sodipodi:nodetypes="ccccccccc" />
      <path
         style="fill:#bf4d40;fill-opacity:1;stroke-width:0.2"
         d="m 1627.3953,81.158846 c 0,0 19.8751,3.69532 28.8661,0.26694 3.6346,-1.38591 8.6346,-7.849955 8.6346,-7.849955 l 3.2996,0.76756 c 0,0 -5.8841,10.061745 -10.8688,12.344075 -7.5184,3.44242 -24.8059,0.24524 -24.8059,0.24524 -5.4259,-0.75978 -4.0011,-3.66623 -5.1256,-5.77386 z"
         id="path61376"
         sodipodi:nodetypes="caccacc" />
      <path
         style="fill:url(#linearGradient61590);fill-opacity:1;stroke-width:0.2"
         d="m 1648.7533,126.78436 -6.3604,1.00627 -2.0647,2.33037 -11.0737,6.29096 2.9855,22.77562 1.175,16.04874 c 5.5956,-2.12227 9.5359,-3.88209 14.9108,-7.59466 0.3932,-13.42308 1.1164,-27.64158 0.4275,-40.8573 z"
         id="path61378"
         sodipodi:nodetypes="cccccccc" />
      <path
         style="fill:#660022;fill-opacity:1;stroke-width:0.2"
         d="m 1693.1396,164.53964 c 0,0 1.8402,4.88295 2.2053,7.44547 0.475,3.3338 -0.05,10.10229 -0.05,10.10229 3.636,-3.89871 7.8651,-8.04891 9.0164,-10.89394 0,0 -2.837,0.35156 -3.9663,-0.34546 -2.0595,-1.27116 -3.8058,-6.18336 -3.8058,-6.18336 z"
         id="path61380"
         sodipodi:nodetypes="caccacc" />
      <path
         style="fill:#660022;fill-opacity:1;stroke-width:0.2"
         d="m 1688.4496,164.53964 4.69,6.52361 c 0,0 -1.4041,2.85901 -1.258,4.3667 0.2407,2.48223 3.4137,6.65745 3.4137,6.65745 l -5.7429,-3.08863 c 0,0 0.8731,-3.01316 0.8665,-4.56051 -0.014,-3.36417 -1.9693,-9.89862 -1.9693,-9.89862 z"
         id="path61382"
         sodipodi:nodetypes="ccaccac" />
      <path
         style="fill:#660022;fill-opacity:1;stroke-width:0.2"
         d="m 1705.2329,174.74017 c -2.6193,3.61326 -4.6792,7.81525 -5.5173,12.19861 -0.1692,0.88519 -0.3496,1.93572 0.1269,2.70068 2.1343,3.42661 10.6074,5.84437 10.6074,5.84437 v -25.51738 c 0,0 -3.8336,2.86525 -5.217,4.77372 z"
         id="path61384"
         sodipodi:nodetypes="aaacca" />
      <path
         style="fill:#ff0055;fill-opacity:1;stroke-width:0.2"
         d="m 1521.3834,169.30032 c 2.9327,0.0711 5.7935,-1.94653 8.6824,-1.4369 2.6154,0.46139 4.348,3.33751 6.9409,3.91203 2.4417,0.54101 5.0603,0.0522 7.4805,-0.5782 2.8047,-0.73055 5.6858,-1.76741 7.8943,-3.64424 0.8294,-0.70479 1.1335,-1.86763 1.8288,-2.70491 2.8636,-3.44786 9.5667,-9.44807 9.5667,-9.44807 0,0 -4.9336,3.92033 -7.8544,4.93489 -2.3393,0.81258 -4.9515,0.34617 -7.3863,0.79833 -2.0575,0.38211 -3.9791,1.48388 -6.0679,1.61139 -2.4961,0.15237 -4.9436,-1.28544 -7.4312,-1.02926 -3.8744,0.39902 -7.1871,3.15587 -11.0046,3.92851 -1.8268,0.36973 -5.5826,0.31579 -5.5826,0.31579 v 2.70769 c 0,0 1.9334,0.60869 2.9334,0.63295 z"
         id="path61386"
         sodipodi:nodetypes="aaaaaacaaaaacca" />
      <path
         style="fill:#660022;fill-opacity:1;stroke-width:0.2"
         d="m 1555.2165,174.96503 c 2.4952,12.77452 0.7995,39.03959 0.7995,39.03959 h 4.2228 c 0,0 3.9593,-26.83661 3.5382,-40.32253 -0.091,-2.92073 -1.827,-5.79207 -1.3097,-8.66808 0.4292,-2.38661 3.525,-6.36358 3.525,-6.36358 l -2.2153,-3.2504 c -3.344,2.97909 -6.5663,6.09172 -9.5667,9.44807 0,0 -1.7043,1.62367 -1.8288,2.70491 -0.3025,2.62788 2.3279,4.81585 2.835,7.41202 z"
         id="path61388"
         sodipodi:nodetypes="accaacccaa" />
      <path
         style="fill:#4d001a;fill-opacity:1;stroke-width:0.2"
         d="m 1679.2483,158.98712 c 0,0 2.3555,0.68251 3.4239,1.26452 1.4122,0.76927 3.1073,1.47399 3.8586,2.89578 2.2729,4.30084 1.2752,9.75284 0.6615,14.57845 -0.1919,1.50888 -1.3412,4.36153 -1.3412,4.36153 0,0 6.2988,-0.0751 8.8287,1.51036 1.419,0.88927 2.1906,2.58035 2.9216,4.08704 0.8054,1.66037 0.3688,3.89404 1.5445,5.31649 2.6954,3.2611 11.304,5.77219 11.304,5.77219 v 1.6108 c 0,0 -8.8309,-2.50418 -11.7243,-5.75762 -1.5787,-1.77524 -1.2782,-4.61209 -2.3732,-6.72041 -0.6042,-1.16333 -1.129,-2.5773 -2.2804,-3.20392 -2.8901,-1.57284 -6.5787,-0.21367 -9.8612,-0.43986 -0.6932,-0.0478 -2.0756,-0.19363 -2.0756,-0.19363 -1.8646,-2.62825 -2.3567,-5.61935 -2.8551,-8.60875 0.9161,-8.3319 -1.004,-14.10794 -6.0837,-17.03672 l 0.9568,-0.50168 c 0,0 3.0237,1.92076 4.25,3.2024 0.4402,0.46017 0.8359,0.98748 1.0813,1.57517 1.5126,3.62208 1.753,3.93551 2.2187,11.56471 0,0 2.3101,-1.82332 2.6417,-3.15403 0.7166,-2.87617 -0.4636,-6.07587 -1.8437,-8.69907 -0.733,-1.39316 -3.2529,-3.42375 -3.2529,-3.42375 z"
         id="path61390"
         sodipodi:nodetypes="caaacaaaccaaaaccccaacaac" />
      <rect
         style="fill:url(#linearGradient61588);fill-opacity:1;stroke-width:0.233577"
         id="rect61392"
         width="9.9938335"
         height="7.6094098"
         x="1594.7566"
         y="65.769127" />
      <path
         style="fill:#822217;fill-opacity:1;stroke-width:0.2"
         d="m 1547.3048,66.273401 c 14.5817,-8.6361 35.4677,-10.19284 54.1656,-6.31243 0.7804,0.16197 1.7995,1.82011 2.5608,2.04817 0.4606,5.38783 -0.3019,10.2761 -1.0575,15.16718 l 1.0575,0.0864 c 0.6332,-4.18253 1.7573,-6.77235 1.3302,-14.39467 l 16.2649,-1.31378 c -0.3257,5.04158 1.0772,10.00053 2.8431,14.94211 l 1.2684,-0.28046 c -2.0417,-5.24659 -2.2546,-12.18018 -2.1801,-16.87283 17.6254,-7.49131 38.1773,-6.6948 50.2301,-2.5799 l 0.9252,1.76452 0.097,2.62951 0.7546,-0.52523 -0.1674,-2.46134 -1.0677,-2.61693 c -15.1546,-4.58702 -32.5114,-3.38962 -49.9075,1.48444 l -4.6105,1.57137 -15.4638,0.29572 -5.6324,-1.25261 c -18.9153,-1.99305 -36.9537,-1.03946 -52.9238,6.86564 l 2.2082,7.09434 0.6983,-0.16931 z"
         id="path61394"
         sodipodi:nodetypes="cscccccccccccccccccccccc" />
      <path
         style="fill:#e8887d;fill-opacity:1;stroke-width:0.2"
         d="m 1625.3165,59.734891 c -0.8136,0.89043 -1.668,1.7168 -1.6389,3.93093 -0.084,4.19159 3.7937,13.63418 6.7348,21.835735 l -3.0171,-1.69234 c -2.5397,-6.568695 -4.5495,-13.116775 -5.154,-20.139415 -0.6841,-3.1417 0.9614,-4.16027 2.5334,-5.17428 7.3383,-3.0199 15.423,-3.70089 23.3932,-4.74062 0,0 -20.8938,3.7049 -22.8514,5.97999 z"
         id="path61396"
         sodipodi:nodetypes="cccccccc" />
      <path
         style="fill:url(#linearGradient83179);fill-opacity:1;stroke-width:0.2"
         d="m 1633.415,68.835101 c 3.0503,-2.3454 6.8028,-4.32087 10.6964,-4.96225 2.4241,0.44059 5.3634,2.09117 8.4332,3.40632 1.4119,0.60483 2.1995,1.8438 2.7952,2.74793 -1.8699,0.89741 -4.1565,1.72063 -10.9817,1.73576 l -9.4384,-1.46898 z"
         id="path61398"
         sodipodi:nodetypes="ccscccc" />
      <path
         style="fill:#330a00;fill-opacity:1;stroke-width:0.2"
         d="m 1638.1726,66.078821 c -0.4906,1.81565 0.1314,3.44294 1.4663,4.94955 2.604,0.40776 5.6954,1.05067 6.799,0.73449 2.1035,-0.97769 2.9241,-3.79019 3.334,-5.90447 -3.4756,-2.5288 -7.6306,-2.14408 -11.5993,0.22043 z"
         id="path61400"
         sodipodi:nodetypes="ccccc" />
      <path
         style="fill:#e8887d;fill-opacity:1;stroke-width:0.2"
         d="m 1654.0716,54.078881 -2.4244,6.85838 -7.7613,3.52907 c 5.5972,0.23221 10.2893,2.42072 15.426,3.64827 l -1.3501,3.64826 -13.5844,2.68674 14.0028,6.029865 6.475,-6.029865 -3.4462,-12.26596 2.1716,-7.77229 z"
         id="path61402"
         sodipodi:nodetypes="ccccccccccc" />
      <path
         style="fill:#993c33;fill-opacity:1;stroke-width:0.2"
         d="m 1654.0716,54.078881 -2.4244,6.85838 -7.7613,3.52907 c -3.714,-0.11445 -8.4453,2.3114 -10.4709,4.36877 l 1.5047,1.45878 c 2.6165,-0.571 3.4696,0.0908 9.7478,1.55355 l 1.8308,5.41529 -14.6915,-3.30044 -1.9608,-7.74432 -0.3351,-7.88362 z"
         id="path61404"
         sodipodi:nodetypes="ccccccccccc" />
      <path
         style="fill:url(#linearGradient61586);fill-opacity:1;stroke-width:0.2"
         d="m 1634.236,94.168656 c 5.9589,7.598504 5.0535,12.925864 22.3975,24.291314 -1.7862,4.12559 -3.7466,16.68643 -5.6544,26.70218 l 2.3289,-23.85361 c -16.7161,-16.11113 -14.3694,-19.22178 -19.072,-27.139884 z"
         id="path61406"
         sodipodi:nodetypes="ccccc" />
      <path
         style="fill:#602620;fill-opacity:1;stroke-width:0.2"
         d="m 1591.0599,104.36245 c -5.2929,5.42556 -10.7301,10.65028 -17.6185,13.85707 l -5.3246,2.47135 8.6917,20.69439 -5.2316,-20.25276 2.4442,-1.37833 c 7.4161,-3.9294 12.4276,-9.52211 17.0388,-15.39172 z"
         id="path61408"
         sodipodi:nodetypes="ccccccc" />
      <path
         style="fill:#c65f53;fill-opacity:1;stroke-width:0.2"
         d="m 1635.9751,150.71222 c -15.336,-1.36763 -29.3269,-0.32333 -43.2479,0.84641 l 5.5028,-1.43642 c 11.7727,-1.95974 22.6039,-2.55966 32.7353,-2.14885 z"
         id="path61410"
         sodipodi:nodetypes="ccccc" />
      <path
         style="fill:#381915;fill-opacity:1;stroke-width:0.2"
         d="m 1580.8963,123.19965 -4.6395,2.7531 3.1014,-0.63254 4.0085,3.3678 4.474,1.43299 1.4171,-0.97715 3.6609,-0.73393 -3.5602,-0.004 -1.1925,-0.72517 -3.2541,0.59728 -4.6052,-3.33154 z"
         id="path61412"
         sodipodi:nodetypes="cccccccccccc" />
      <path
         style="fill:url(#linearGradient61584);fill-opacity:1;stroke-width:0.2"
         d="m 1613.8734,120.10872 c -9.2568,-0.78338 -14.1876,-1.11332 -19.5827,-3.0562 l 7.7533,-5.32465 c 7.5398,0.65604 15.3269,0.83131 23.8771,-0.47778 l 7.318,3.51262 c -6.5561,2.5425 -9.4685,4.25375 -19.3657,5.34601 z"
         id="path61414"
         sodipodi:nodetypes="cccccc" />
      <path
         style="fill:#df5f53;fill-opacity:1;stroke-width:0.2"
         d="m 1619.9239,102.54167 c 0,0 -1.4074,6.12843 -3.8639,7.49383 -1.2462,0.69269 -3.0863,0.46194 -4.2636,-0.3423 -2.0387,-1.39264 -3.237,-6.66196 -3.237,-6.66196 0,0 2.0275,3.97964 3.914,4.84872 0.7602,0.35021 2.0078,1.21673 3.1247,0 2.3581,-2.56902 3.2973,-5.04381 4.3258,-5.33829 z"
         id="path61416"
         sodipodi:nodetypes="caacssc" />
      <path
         style="fill:#c65f53;fill-opacity:1;stroke-width:0.2"
         d="m 1632.2729,91.109476 1.9631,6.45076 -3.8951,7.598944 5.7963,-7.120974 z"
         id="path61418" />
      <path
         style="fill:#e47367;fill-opacity:1;stroke-width:0.2"
         d="m 1603.4985,89.530166 0.2562,-1.25174 c -0.1478,0.64772 -7.0708,6.98569 -10.6823,9.07771 -1.822,1.05541 -1.1831,4.286914 -0.5444,6.293324 0.3925,1.23294 2.5085,2.96227 2.5085,2.96227 0,0 -1.3142,-2.29975 -1.4848,-3.58049 -0.2254,-1.69214 -0.2008,-3.602124 0.655,-5.079214 0.2994,-0.51669 0.9529,-0.70796 1.4274,-1.08246 2.6542,-2.09469 5.2697,-4.60575 7.8644,-7.3394 z"
         id="path61420"
         sodipodi:nodetypes="ccsacaasc" />
      <path
         style="fill:#57160f;fill-opacity:1;stroke-width:0.2"
         d="m 1634.3307,67.922711 c 3.2655,-1.33896 6.2863,-3.38102 9.5552,-3.45638 l 12.6917,3.16136 2.221,-0.76341 -13.9971,-3.31034 c -2.736,-0.0491 -6.5802,1.08665 -10.4708,4.36877 z"
         id="path61422"
         sodipodi:nodetypes="cccccc" />
      <path
         style="fill:#4d1e19;fill-opacity:1;stroke-width:0.2"
         d="m 1590.1981,66.624871 c -6.7669,-0.3498 -13.3677,0.72446 -19.5644,5.26186 l 0.4823,-1.7743 c 7.1086,-4.33649 13.2656,-4.63453 19.0821,-3.48756 z"
         id="path61424"
         sodipodi:nodetypes="cccc" />
      <path
         style="fill:#4a1c1c;fill-opacity:1;stroke-width:0.2"
         d="m 1589.3593,128.40592 4.0445,-0.27777 22.5015,1.55396 5.3076,-0.94726 19.6868,-2.29978 0.3535,0.65044 -19.983,2.05839 -5.3804,0.9771 -22.4356,-1.64071 -4.1141,0.43352 z"
         id="path61426"
         sodipodi:nodetypes="ccccccccccc" />
      <path
         style="fill:#381915;fill-opacity:1;stroke-width:0.2"
         d="m 1650.3845,122.06617 2.241,2.06231 -2.5815,-1.09818 -3.5928,3.8465 -1.0769,0.44214 -2.9814,0.47169 -1.1397,-0.70512 -6.6627,0.26753 6.3092,-0.91797 0.4259,-1.39754 4.1092,1.18327 4.0918,-3.68536 -0.5245,-2.51341 z"
         id="path61428"
         sodipodi:nodetypes="cccccccccccccc" />
      <path
         style="fill:#bf4d40;fill-opacity:1;stroke-width:0.2"
         d="m 1583.3667,128.68801 4.2445,2.49424 c 0,0 13.3599,3.58742 20.2109,3.77789 2.51,0.0698 7.4702,-0.97057 7.4702,-0.97057 0,0 4.1483,0.47504 6.2148,0.29914 6.4025,-0.54497 18.8211,-4.16771 18.8211,-4.16771 l 2.0647,-2.33037 4.0583,-0.91383 -5.198,0.20871 -19.983,2.05839 -5.3804,0.9771 -22.4356,-1.64071 z"
         id="path61430"
         sodipodi:nodetypes="ccacacccccccc" />
      <path
         style="fill:#602620;fill-opacity:1;stroke-width:0.2"
         d="m 1596.4028,70.120751 c 0,0 -0.9639,2.80344 -3.895,4.94764 -4.9045,3.07056 -9.1031,3.99478 -13.9669,4.617715 -3.5638,0.45644 -10.7562,-0.695165 -10.7562,-0.695165 0,0 7.2308,0.413485 10.7669,-0.20421 4.5245,-0.79035 9.503,-1.92941 13.0492,-4.42468 1.9273,-1.35613 4.802,-4.2413 4.802,-4.2413 z"
         id="path61432"
         sodipodi:nodetypes="ccacasc" />
      <path
         style="fill:#6d1c13;fill-opacity:1;stroke-width:0.2"
         d="m 1633.415,70.658061 c 2.7396,1.94449 2.5612,2.70242 7.3157,4.42378 3.2058,0.63294 8.5312,1.34715 12.5473,0.178 1.1264,-0.32792 1.5697,-0.0273 2.9426,-1.93103 0,0 -2.3225,0.96732 -3.5552,1.13383 -4.0144,0.54229 -8.2066,0.46826 -12.143,-0.48829 -2.5404,-0.61732 -7.1074,-3.31629 -7.1074,-3.31629 z"
         id="path61434"
         sodipodi:nodetypes="ccacaac" />
      <path
         style="fill:#571d0f;fill-opacity:1;stroke-width:0.2"
         d="M 1646.1664,27.622911 C 1628.6471,21.9371 1611.0178,6.2236099 1593.5517,11.74853 c -9.3647,2.96228 -16.3436,15.841661 -18.1834,23.186651 0.819,4.981 2.248,9.93974 6.0034,14.81359 1.8223,1.87901 3.7994,3.69298 6.6652,5.13335 3.8203,1.07622 8.36,1.14204 13.3316,0.60153 5.4783,-4.20948 5.7439,-6.56689 7.3488,-9.4001 -4.0205,2.37635 -7.6765,5.98473 -12.2816,6.384 -5.1564,-1.8419 -7.8782,-4.45201 -10.4006,-7.12505 -1.9454,-3.68459 0.4034,-13.02705 0.4034,-13.02705 1.1259,-4.77107 5.5884,-11.507721 11.0498,-13.520541 7.8668,-2.89934 19.607,1.9915 29.9466,4.98359 9.9974,2.893101 18.7315,3.844411 18.7315,3.844411 z"
         id="path61436"
         sodipodi:nodetypes="caccccccccssc" />
      <path
         style="fill:#571d0f;fill-opacity:1;stroke-width:0.2"
         d="m 1548.9917,30.487191 c 0,0 8.1605,0.33244 11.7966,-1.21877 7.5032,-3.20101 18.6617,-15.831571 18.6617,-15.831571 0,0 -11.8468,11.438511 -19.1977,14.786331 -3.4843,1.58686 -11.2606,2.26401 -11.2606,2.26401 z"
         id="path61438"
         sodipodi:nodetypes="cacac" />
      <path
         style="fill:#571d0f;fill-opacity:1;stroke-width:0.2"
         d="m 1577.9492,20.49123 c 0,0 -7.4925,16.223461 -14.7561,20.459351 -2.6963,1.57235 -6.2128,1.4358 -9.3072,1.02738 -3.9846,-0.52594 -11.2312,-4.38723 -11.2312,-4.38723 l -2.9857,-7.22524 c 0,0 2.1901,5.10183 4.328,6.66694 2.9788,2.18077 6.9901,2.76032 10.6774,2.94215 2.9797,0.14694 6.2492,-0.004 8.8205,-1.51709 6.6247,-3.89771 14.4543,-17.966261 14.4543,-17.966261 z"
         id="path61440"
         sodipodi:nodetypes="caaccaaac" />
      <path
         style="fill:#571d0f;fill-opacity:1;stroke-width:0.2"
         d="m 1581.3717,49.748771 c 0,0 -9.2001,8.13063 -14.8856,8.35432 -7.0174,0.27608 -15.5681,-2.78124 -19.126,-8.8361 -2.2287,-3.79284 -0.981,-9.22969 0.9953,-13.15998 1.5629,-3.10825 7.8848,-6.83859 7.8848,-6.83859 0,0 -3.4826,5.26508 -3.6758,8.27804 -0.1972,3.07658 0.5164,6.63102 2.6431,8.863 2.3088,2.42325 6.1359,3.5941 9.4726,3.33108 5.171,-0.40761 13.6899,-7.39857 13.6899,-7.39857 z"
         id="path61442"
         sodipodi:nodetypes="caaacaaacc" />
      <path
         style="fill:#571d0f;fill-opacity:1;stroke-width:0.2"
         d="m 1556.9231,53.685041 c 0,0 -11.8957,2.22569 -16.2578,-1.00754 -2.5699,-1.90488 -3.3727,-5.7929 -3.3535,-8.99175 0.026,-4.35654 4.7143,-12.19004 4.7143,-12.19004 0,0 -2.0517,9.79492 1.2573,12.19004 1.2643,0.9151 4.5744,-0.99875 4.5744,-0.99875 z"
         id="path61444"
         sodipodi:nodetypes="caacacc" />
      <path
         style="fill:#571d0f;fill-opacity:1;stroke-width:0.2"
         d="m 1538.1416,41.540201 -4.755,-4.45416 c 0,0 -0.011,-6.76586 2.14,-8.95419 0.8292,-0.84343 3.4366,-0.88336 3.4366,-0.88336 0,0 -1.9546,1.05671 -2.2582,2.01993 -0.4475,1.41968 1.0196,4.34767 1.0196,4.34767 l 1.9444,3.97464 z"
         id="path61446"
         sodipodi:nodetypes="ccacaccc" />
      <path
         style="fill:#571d0f;fill-opacity:1;stroke-width:0.2"
         d="m 1556.9231,53.685041 c 0,0 -10.7245,8.37535 -16.6496,7.18164 -4.9301,-0.99327 -10.4591,-10.87402 -10.4591,-10.87402 0,0 6.7579,5.22806 10.7827,5.49099 2.3822,0.15562 6.7505,-2.39203 6.7505,-2.39203 z"
         id="path61448"
         sodipodi:nodetypes="cacacc" />
      <path
         style="fill:#571d0f;fill-opacity:1;stroke-width:0.2"
         d="m 1529.7932,40.950581 c 0,0 3.5453,7.05398 6.7346,9.04208 0.9698,0.60457 3.3705,0.62809 3.3705,0.62809 l -1.9184,-5.1437 c 0,0 -1.6067,0.4026 -2.3589,0.16688 -2.3801,-0.74587 -5.8278,-4.69335 -5.8278,-4.69335 z"
         id="path61450"
         sodipodi:nodetypes="caccac" />
      <path
         style="fill:#571d0f;fill-opacity:1;stroke-width:0.2"
         d="m 1553.9084,57.512371 -16.2857,15.68351 c 0,0 -1.1646,0.0673 -1.6608,-0.18587 -0.7876,-0.4018 -1.5756,-1.10227 -1.7861,-1.96101 -0.161,-0.65665 0.4079,-1.29399 0.5174,-1.96115 0.3118,-1.8994 0.389,-5.76135 0.389,-5.76135 l -0.1693,-5.3989 1.5526,11.81595 15.9224,-14.1023 4.5352,-1.95621 6.27,2.89669 z"
         id="path61452"
         sodipodi:nodetypes="ccaaaccccccc" />
      <path
         style="fill:#571d0f;fill-opacity:1;stroke-width:0.2"
         d="m 1547.8686,71.191021 c 0,0 -4.3785,10.430585 -8.1996,14.432075 -0.7544,0.78999 -1.7246,1.43719 -2.7716,1.74838 -3.0118,0.89509 -9.4247,0.14144 -9.4247,0.14144 l 4.224,1.46897 c 0,0 5.8185,1.18979 8.2548,-0.0896 3.7434,-1.96587 7.3134,-10.364035 7.3134,-10.364035 l 1.8043,-5.7077 -0.3712,-1.37721 -0.6982,0.16928 z"
         id="path61454"
         sodipodi:nodetypes="caaccaccccc" />
      <path
         style="fill:#732e26;fill-opacity:1;stroke-width:0.2"
         d="m 1570.0479,73.579621 -8.0235,-1.65608 8.6396,0.88025 z"
         id="path61456" />
      <path
         style="fill:#822217;fill-opacity:1;stroke-width:0.2"
         d="m 1659.3119,68.114601 4.1218,-2.4438 -5.0267,2.22979 z"
         id="path61458" />
      <path
         style="fill:#571d0f;fill-opacity:1;stroke-width:0.2"
         d="m 1663.6438,31.495711 c 5.1275,0.52941 10.2908,0.81674 16.0719,-3.06973 1.2001,-0.19716 2.0086,-3.05802 2.4196,-8.623811 l 2.3001,-21.1043001 c 0.5449,10.895 7.3091,23.6650801 1.2843,32.7978411 -2.7133,4.11302 -8.9712,5.36197 -13.8065,5.28127 -6.2881,-1.80561 -6.4839,-3.81614 -8.2694,-5.28127 z"
         id="path61460"
         sodipodi:nodetypes="ccccacc" />
      <path
         style="fill:#822d17;fill-opacity:1;stroke-width:0.2"
         d="m 1671.9132,36.776981 c 0,0 4.6006,6.06003 8.0275,6.90649 4.0191,0.99273 12.1033,-2.78491 12.1033,-2.78491 0,0 -7.0346,9.45819 -11.8231,8.57729 -4.9748,-0.91518 -8.3077,-12.69887 -8.3077,-12.69887 z"
         id="path61462"
         sodipodi:nodetypes="cacac" />
      <path
         style="fill:url(#linearGradient61582);fill-opacity:1;stroke-width:0.2"
         d="m 1671.9132,36.776981 c 0,0 0.4706,10.77954 3.6515,14.70072 1.2528,1.54432 3.387,2.43597 5.3687,2.60118 1.6567,0.13811 4.7863,-1.40138 4.7863,-1.40138 0,0 -2.8321,2.11644 -4.4419,2.80615 -1.5187,0.65068 -4.8073,1.20769 -4.8073,1.20769 l -6.0724,-9.42302 z"
         id="path61464"
         sodipodi:nodetypes="caacaccc" />
      <path
         style="fill:#822d17;fill-opacity:1;stroke-width:0.2"
         d="m 1676.4705,56.691341 c 0,0 3.1168,0.57076 4.1778,1.62249 1.8748,1.85846 2.4573,4.76008 2.9317,7.35697 1.4126,7.73264 -0.4204,23.578085 -0.4204,23.578085 l -0.8896,12.068294 -0.9314,-1.516914 0.7966,-10.74546 c 0,0 0.7365,-15.340375 -1.0972,-22.685665 -0.864,-3.46095 -4.5675,-9.6778 -4.5675,-9.6778 z"
         id="path61466"
         sodipodi:nodetypes="caaccccac" />
      <path
         style="fill:#e36d4f;fill-opacity:1;stroke-width:0.2"
         d="m 1684.4354,-1.3021301 c 0,0 1.7248,6.99532 2.1714,10.56166 0.6029,4.8151001 0.7884,9.6910701 0.6748,14.5424401 -0.079,3.368771 1.0331,7.333941 -0.9405,10.065221 -1.765,2.44263 -8.2822,3.62473 -8.2822,3.62473 0,0 8.1706,-1.1421 10.6355,-4.02113 0.4702,-0.5491 0.4454,-2.12238 0.4454,-2.12238 0,0 0.7956,-6.2789 0.7562,-9.433121 -0.058,-4.60857 -0.2952,-9.28839 -1.4485,-13.7507001 -0.8575,-3.31826 -4.0121,-9.46672 -4.0121,-9.46672 z"
         id="path61468"
         sodipodi:nodetypes="caaacacaac" />
      <path
         style="fill:url(#linearGradient61580);fill-opacity:1;stroke-width:0.2"
         d="m 1602.2165,-27.427789 c 0,0 11.4892,0.43231 16.9393,2.06015 1.3259,0.39602 2.4171,1.37719 3.7209,1.84099 3.8075,1.35451 11.8207,2.69431 11.8207,2.69431 0,0 -2.5701,1.31225 -3.9706,1.39643 -4.4497,0.26746 -8.6096,-2.58061 -13.0563,-2.89373 -5.176,-0.36448 -10.4599,0.0557 -15.5198,1.20532 -4.7982,1.09019 -13.7663,5.32865 -13.7663,5.32865 0,0 11.3782,-3.39391 17.2526,-3.88643 6.0949,-0.51102 12.2587,0.19067 18.3218,0.99537 7.5024,0.99574 19.4547,-2.32504 22.2076,4.72473 0.4961,1.27036 -1.0841,3.80399 -2.3658,3.33795 -4.9351,-1.79449 -9.7706,-3.10862 -14.7128,-3.13348 -8.0245,-0.0404 -24.2225,-0.2797 -24.2755,0.39597 0,0 16.2469,-0.52662 24.2689,0.53189 6.2679,0.82705 12.6856,1.85703 18.421,4.5171199 2.929,1.35848 7.8376,5.691469 7.8376,5.691469 0,0 -3.3502,3.43615001 -5.5353,4.2099 -3.7946,1.34363 -8.0955,1.0004 -12.0708,0.3672 -2.589,-0.4124 -4.8911,-1.90252999 -7.398,-2.66973999 -4.1232,-1.26182001 -12.5411,-3.17081901 -12.5411,-3.17081901 0,0 19.171,8.503069 29.431,9.678429 3.4337,0.39334 7.0141,0.0576 10.3268,-0.92769 4.1987,-1.2488 7.5593,-7.850699 11.6039,-6.16833 4.7393,1.97137001 5.7097,9.76046 4.4599,14.7389801 -0.8099,3.22645 -7.4613,3.75223 -7.059,7.05438 0.6193,5.084331 13.1585,7.934751 13.1585,7.934751 1.8435,-0.47989 1.8583,-5.182771 2.4196,-8.623811 0,0 -4.8555,-7.43379 -6.5159,-11.5216001 -1.5523,-3.82155 -0.8743,-8.52437999 -3.1448,-11.968009 -1.3541,-2.05388 -4.564,-2.42199 -5.8216,-4.53636 -0.6709,-1.12795 0.2984,-2.9708999 -0.6441,-3.8841799 -1.115,-1.08038 -3.5555,0.51647 -4.6166,-0.61685 -0.2734,-0.29198 0.1722,-0.88716 -0.08,-1.19724 -0.732,-0.89833 -2.2038,-1.09873 -3.3501,-0.92871 -0.583,0.0865 -1.4935,0.94669 -1.4935,0.94669 0,0 -4.5341,-3.67344 -7.1237,-4.96732 -6.0418,-3.01874 -12.6372,-4.94424 -19.2471,-6.33173 -2.0349,-0.42716 -4.2075,-0.0349 -6.2092,-0.59789 -1.9735,-0.55514 -3.5197,-2.29464 -5.5316,-2.68859 -5.2912,-1.03606 -16.1402,1.06183 -16.1402,1.06183 z"
         id="path61470"
         sodipodi:nodetypes="caacaaacaaasscaacaaacaaaaaccaaaaaaacaaaacc" />
      <path
         style="fill:#571d0f;fill-opacity:1;stroke-width:0.2"
         d="m 1649.4776,5.9477699 c -6.8997,1.17265 -37.2174,-17.9903489 -52.1771,-16.5718189 -15.9936,1.5165699 -41.7605,24.060899 -41.7605,24.060899 l -8.421,9.39112 c -0.8836,1.4702 -1.4643,1.939971 -1.9859,2.214681 0.492,-0.0902 1.1079,-0.547511 2.074,-2.041631 l 9.716,-9.56417 c 0,0 25.9348,-22.6881291 41.6617,-22.1932491 14.8499,0.46728 46.4593,18.466779 50.8928,14.704169 z"
         id="path61472"
         sodipodi:nodetypes="cscccccsc" />
      <path
         style="fill:#571d0f;fill-opacity:1;stroke-width:0.2"
         d="m 1581.3717,4.9903999 c 0,0 -8.9959,4.51512 -13.0611,7.4458001 -2.7746,2.00028 -7.6387,6.85167 -7.6387,6.85167 0,0 4.8542,-6.99483 8.267,-9.3923801 3.6455,-2.56099 12.4328,-4.90509 12.4328,-4.90509 z"
         id="path61474"
         sodipodi:nodetypes="cacac" />
      <path
         style="fill:#571d0f;fill-opacity:1;stroke-width:0.2"
         d="m 1589.3627,8.5883299 15.2384,0.15226 c 0,0 9.0035,4.6499101 13.7685,6.3236401 5.4755,1.9233 11.1063,4.6987 16.8902,4.22364 6.299,-0.51736 17.3971,-7.53934 17.3971,-7.53934 0,0 -11.5452,5.99239 -17.8469,6.30823 -5.7017,0.28577 -11.2566,-2.1567 -16.6372,-4.06436 -4.6165,-1.63674 -13.2832,-6.2831301 -13.2832,-6.2831301 z"
         id="path61476"
         sodipodi:nodetypes="ccaacaacc" />
      <path
         style="fill:url(#linearGradient61578);fill-opacity:1;stroke-width:0.2"
         d="m 1548.7213,71.529861 c 1.7065,18.265885 9.1217,24.202695 28.5801,21.594095 -12.1488,1.53965 -22.7211,5.47964 -26.479,29.295584 -2.9159,-16.93302 -4.1466,-31.432924 -3.5575,-43.891249 z"
         id="path61478"
         sodipodi:nodetypes="ccccc" />
      <path
         style="fill:#eca593;fill-opacity:1;stroke-width:0.2"
         d="m 1689.2272,99.077816 c 0,0 -0.405,6.114494 -2.1003,8.483714 -1.5408,2.15338 -6.6821,4.29545 -6.6821,4.29545 l 0.8938,-12.056714 2.6905,4.381954 1.4545,-8.510734 1.9255,3.63157 z"
         id="path61480"
         sodipodi:nodetypes="cacccccc" />
      <path
         style="fill:url(#linearGradient71481);fill-opacity:1;stroke-width:0.2"
         d="m 1692.044,40.898561 c 0,0 -7.0346,9.45819 -11.8231,8.57729 -4.9748,-0.91518 -8.3077,-12.69887 -8.3077,-12.69887 0,0 2.3037,10.60789 6.1457,13.91863 1.0263,0.88437 2.565,1.08211 3.9197,1.07436 2.7771,-0.0159 8.0094,-2.29412 8.0094,-2.29412 0,0 -0.1727,4.27503 -1.4565,5.79985 -0.8175,0.97096 -3.4812,1.54303 -3.4812,1.54303 0,0 4.1398,8.33161 4.0552,12.80949 -0.063,3.34226 -2.63,6.18345 -3.3858,9.43973 -1.2402,5.342935 -1.8354,16.352235 -1.8354,16.352235 l 0.1448,8.762034 1.4545,-8.510734 c 0,0 0.7102,2.99886 1.9255,3.63157 1.0833,0.564 2.6232,0.23182 3.6362,-0.45049 1.7435,-1.17432 2.5012,-3.48466 3.0705,-5.50816 0.6631,-2.35705 0.2935,-7.3398 0.2935,-7.3398 0,0 1.2595,0.30472 1.7613,0 1.2401,-0.75298 2.0076,-3.86171 2.0076,-3.86171 0,0 -1.7602,-1.19103 -2.2967,-2.07131 -0.5224,-0.857095 -0.7678,-2.911735 -0.7678,-2.911735 0,0 3.6499,0.4138 4.8682,-0.68203 0.268,-0.24114 -0.072,-0.91486 0.2622,-1.04945 0.7929,-0.31899 2.2172,-2.51849 2.0964,-2.73372 -0.2676,0.56483 -3.0913,0.31655 -3.7232,-1.17649 -0.4835,-1.14245 -1.5689,-2.58502 -0.8793,-3.61625 0.2152,-0.32183 1.1478,-0.17755 1.1478,-0.17755 0,0 -0.014,-1.66349 -0.5523,-2.18953 -1.3033,-1.27346 -4.0755,0.1077 -5.3301,-1.21382 -1.3016,-1.37107 -1.1421,-3.70519 -0.9703,-5.58787 0.1798,-1.97054 1.921,-3.59426 2.0573,-5.56829 0.1028,-1.48792 -0.9053,-2.87991 -0.959,-4.37041 -0.021,-0.57604 0.1865,-1.13823 0.248,-1.71135 0.064,-0.59297 0.2485,-1.20126 0.1252,-1.78475 -0.2396,-1.1339 -1.4166,-1.93345 -1.6256,-3.07338 -0.08,-0.43824 0.165,-1.3264 0.165,-1.3264 z"
         id="path61482"
         sodipodi:nodetypes="cacaacacaacccaaacacacascsacaaaaaaaac" />
      <path
         style="fill:#e06e52;fill-opacity:1;stroke-width:0.2"
         d="m 1681.3386,99.800266 c 0,0 -1.0148,7.235604 0.6946,10.173624 0.1969,0.33835 0.979,0.64856 0.979,0.64856 l -2.5674,1.23453 z"
         id="path61484"
         sodipodi:nodetypes="caccc" />
      <path
         style="fill:url(#linearGradient83107);fill-opacity:1;stroke-width:0.2"
         d="m 1669.0583,199.05873 c 0,0 -3.9046,-14.3564 -3.9046,-14.3564 l -4.1453,-23.27338 11.1773,-14.4269 1.5077,45.96784 z"
         id="path61486" />
      <path
         style="fill:#e47467;fill-opacity:1;stroke-width:0.2"
         d="m 1643.151,177.26812 0.6792,30.10335 -2.5298,6.63315 h -12.5597 l -1.3315,-13.32515 c 13.6015,-4.6112 11.8123,-15.10397 15.7418,-23.41135 z"
         id="path61488"
         sodipodi:nodetypes="cccccc" />
      <path
         style="fill:#f7d7d4;fill-opacity:1;stroke-width:0.2"
         d="m 1619.1805,61.751831 c 0,0 1.2942,17.553485 4.0677,25.809405 0.5624,1.67424 2.6684,2.91208 2.5023,4.67044 -0.3897,4.12637 -7.8206,9.666854 -7.8206,9.666854 1.3386,0.97425 -0.3504,2.89874 -0.3504,2.89874 0.047,0.0565 0.03,-0.23495 2.1452,-2.86045 0.8862,-1.10005 1.9119,-1.74943 2.8793,-2.409784 1.2553,-0.85695 2.9968,-0.99747 4.4678,-0.67407 1.9295,0.4242 4.9331,3.256844 4.9492,3.260664 0,0 2.0824,-2.870754 2.215,-4.553394 0.1766,-2.24067 -0.8267,-4.51158 -1.9631,-6.45076 -1.032,-1.76104 -3.1717,-2.67896 -4.2395,-4.41853 -1.8832,-3.068 -3.564,-10.194565 -3.564,-10.194565 -2.4311,-5.2791 -2.2585,-10.03444 -2.8431,-14.94211 z"
         id="path61490"
         sodipodi:nodetypes="caaccssacaaaccc" />
      <path
         style="fill:#713528;fill-opacity:1;stroke-width:0.2"
         d="m 1642.3489,87.592696 c -4.0164,0.3676 -8.7032,0.65113 -11.9794,-1.70118 -3.0501,-2.18999 -5.0659,-10.061285 -5.0659,-10.061285 0.7716,5.132295 1.3529,7.566575 3.7922,10.288595 0.8413,0.93879 2.172,1.34238 3.3843,1.68765 3.2609,0.92865 6.7389,1.02313 10.1284,0.93748 1.4262,-0.036 2.8236,-0.41086 4.2365,-0.60921 7.5679,-1.06252 22.7144,-3.11174 22.7144,-3.11174 2e-4,-1.7e-4 -15.3126,1.48075 -27.2105,2.56969 z"
         id="path61492"
         sodipodi:nodetypes="sacaaaacs" />
      <path
         style="fill:url(#linearGradient61576);fill-opacity:1;stroke-width:0.2"
         d="m 1653.7423,87.198686 c 3.8095,6.84722 6.9194,13.866574 15.158,19.624094 0,0 5.0168,0.57038 6.8177,-0.84402 4.7448,-3.72652 6.1171,-9.359994 6.4172,-16.923954 -0.3495,-5.00503 -2.7195,-8.17018 -6.5705,-9.986855 -1.8185,5.191795 -9.3319,6.007545 -21.8224,8.130735 z"
         id="path61494"
         sodipodi:nodetypes="ccaccc" />
      <path
         style="fill:#602620;fill-opacity:1;stroke-width:0.2"
         d="m 1596.2922,63.886221 c 0,0 -9.4728,-2.82764 -14.3513,-2.87294 -4.9144,-0.0456 -14.5082,2.62513 -14.5082,2.62513 0,0 9.4942,-3.27969 14.4325,-3.35107 4.9435,-0.0714 14.5386,2.93563 14.5386,2.93563 z"
         id="path61496"
         sodipodi:nodetypes="cacacc" />
      <path
         style="fill:#6d1c13;fill-opacity:1;stroke-width:0.2"
         d="m 1633.5542,63.872851 c 0,0 9.3463,-3.22148 14.2187,-3.47083 4.9081,-0.25116 14.6052,2.01586 14.6052,2.01586 0,0 -9.623,-2.87962 -14.56,-2.74434 -4.9421,0.13548 -14.4031,3.5413 -14.4031,3.5413 z"
         id="path61498"
         sodipodi:nodetypes="cacacc" />
      <path
         style="fill:#cc7066;fill-opacity:1;stroke-width:0.2"
         d="m 1547.3048,66.273401 c 4.1167,9.9929 1.6539,23.167705 18.0622,27.216405 -6.7095,0.0102 -10.7174,-1.16181 -11.8597,-4.20156 -2.8343,-5.80535 -4.2707,-15.705565 -6.2025,-23.014845 z"
         id="path61500"
         sodipodi:nodetypes="cccc" />
      <path
         style="fill:#733726;fill-opacity:1;stroke-width:0.2"
         d="m 1556.7914,92.671346 c 0,0 29.9523,0.80989 31.1268,0.69506 1.2506,-0.12227 5.5623,0.0361 7.993,-2.1058 4.3723,-3.85273 6.6006,-11.57325 6.6006,-11.57325 -0.8409,6.93513 -3.8376,12.07942 -9.5144,13.98802 -1.9182,0.64493 -4.1425,0.92041 -6.6929,0.77068 -1.0477,0.0293 -2.0716,0.0438 -3.0749,0.0455 -9.8154,0.0166 -17.657,-1.19388 -26.4382,-1.82022 z"
         id="path61502"
         sodipodi:nodetypes="csscscscc" />
      <path
         style="fill:url(#linearGradient61574);fill-opacity:1;stroke-width:0.2"
         d="m 1607.5166,122.54944 -13.7195,4.45667 1.7508,1.27192 -2.1441,-0.14988 -4.0445,0.27777 -1.1933,-0.72517 -1.6703,0.30657 c 9.2562,-5.85544 21.0222,-5.44496 21.0209,-5.43788 z"
         id="path61504"
         sodipodi:nodetypes="cccccccc" />
      <path
         style="fill:url(#linearGradient61572);fill-opacity:1;stroke-width:0.2"
         d="m 1630.3282,121.57584 7.3959,3.89756 -1.7629,1.53858 4.9385,-0.57691 0.4259,-1.39754 4.1092,1.18327 0.3598,-0.32402 c -7.4195,-2.92364 -11.8074,-3.78582 -15.4664,-4.32094 z"
         id="path61506"
         sodipodi:nodetypes="cccccccc" />
      <path
         style="fill:url(#linearGradient61570);fill-opacity:1;stroke-width:0.2"
         d="m 1589.4225,128.40158 -0.8732,1.23084 6.4836,3.31348 c -4.5597,-0.93405 -9.4027,-1.8086 -11.6662,-4.25789 z"
         id="path61508"
         sodipodi:nodetypes="ccccc" />
      <path
         style="fill:url(#linearGradient61568);fill-opacity:1;stroke-width:0.2"
         d="m 1623.3228,128.93246 6.2766,4.01344 10.7288,-2.8249 0.4941,-2.99111 z"
         id="path61510"
         sodipodi:nodetypes="ccccc" />
      <path
         style="fill:url(#linearGradient61566);fill-opacity:1;stroke-width:0.2"
         d="m 1637.7451,126.89405 0.3224,2.32307 -10.1846,4.09099 c 3.7447,-1.02785 7.9223,-0.29408 12.4453,-3.18711 l 2.0647,-2.33037 4.0583,-0.91383 z"
         id="path61512"
         sodipodi:nodetypes="ccccccc" />
      <path
         style="fill:#80002b;fill-opacity:1;stroke-width:0.2"
         d="m 1518.45,170.2387 c 0,0 2.3749,1.06557 3.6445,1.11784 2.5631,0.10553 4.9915,-2.08761 7.5181,-1.6442 2.8687,0.50344 4.5136,4.20519 7.3902,4.66175 5.4297,0.8618 15.9886,-4.04761 15.9886,-4.04761 l -0.6099,-2.77347 c 0,0 -10.1,4.87242 -15.3748,4.22244 -2.6359,-0.32481 -4.3255,-3.45064 -6.9409,-3.91203 -2.8889,-0.50963 -5.7497,1.50803 -8.6824,1.4369 -1,-0.0243 -2.9334,-0.63295 -2.9334,-0.63295 z"
         id="path61514"
         sodipodi:nodetypes="caaaccaaacc" />
      <path
         style="fill:#80002b;fill-opacity:1;stroke-width:0.2"
         d="m 1571.7617,163.59187 c 0,0 -4.6044,0.54143 -5.7694,2.24472 -0.9743,1.42457 -0.1407,3.45755 0,5.17771 0.6782,8.29025 1.732,16.63525 4.0556,24.62207 1.8593,6.39092 7.8304,18.36825 7.8304,18.36825 h 1.8426 c 0,0 -2.0265,-4.28305 -2.2603,-6.59518 -1.4585,-14.42371 -5.5007,-43.82613 -5.6989,-43.81757 z"
         id="path61516"
         sodipodi:nodetypes="caaaccsc" />
      <path
         style="fill:#80002b;fill-opacity:1;stroke-width:0.2"
         d="m 1697.5056,192.03059 c -1.3581,8.50837 -4.0826,16.04275 -9.056,21.97403 h 22.0003 v -13.62034 c -9.1084,-2.77706 -12.7166,-5.56273 -12.9443,-8.35369 z"
         id="path61518"
         sodipodi:nodetypes="ccccc" />
      <path
         style="fill:#b2003b;fill-opacity:1;stroke-width:0.2"
         d="m 1696.3524,187.90625 -11.4559,26.09837 h 3.5531 c 5.61,-6.42259 7.4688,-14.15105 9.056,-21.97403 -0.3433,-1.50086 -0.6199,-3.20703 -1.1532,-4.12434 z"
         id="path61520"
         sodipodi:nodetypes="ccccc" />
      <path
         style="fill:#990033;fill-opacity:1;stroke-width:0.2"
         d="m 1682.1352,184.06884 c 5.7962,0.58156 13.0315,-2.20665 14.2172,3.83741 0,0 -4.1847,9.53345 -6.2771,14.30018 -1.7262,3.93273 -1.7998,8.96646 -5.1788,11.79819 h -14.4469 c 3.1008,-5.3278 5.6528,-11.04204 6.181,-18.18138 1.8906,-3.71073 3.7363,-7.58853 5.5046,-11.7544 z"
         id="path61522"
         sodipodi:nodetypes="ccacccc" />
      <path
         style="fill:#c65e53;fill-opacity:1;stroke-width:0.2"
         d="m 1615.9053,129.68211 4.0186,-0.73664 -1.0655,-6.3631 -2.7984,0.45303 z"
         id="path61524"
         sodipodi:nodetypes="ccccc" />
      <path
         style="fill:url(#linearGradient61564);fill-opacity:1;stroke-width:0.2"
         d="m 1672.6817,162.12498 3.2052,14.49989 2.585,-11.75124 c 1.2035,3.09417 1.1037,6.79478 0.8082,10.58646 l 2.8551,8.60875 c -1.5162,3.51868 -3.1822,7.22509 -5.5046,11.7544 l -2.9372,-2.85335 z"
         id="path61526"
         sodipodi:nodetypes="cccccccc" />
      <path
         style="fill:#ad2d1f;fill-opacity:1;stroke-width:0.2"
         d="m 1577.8289,69.215381 c 0.045,2.37922 0.4945,3.37811 1.0767,3.99115 0.2195,0.25883 0.4444,0.43755 1.2378,0.47419 -0.7601,-1.70712 -1.3403,-3.49018 -0.8708,-5.71663 -0.04,-0.25043 -1.5232,0.7589 -1.4437,1.25129 z"
         id="path61528"
         sodipodi:nodetypes="ccccc" />
      <path
         style="fill:#6d1c13;fill-opacity:1;stroke-width:0.2"
         d="m 1588.6403,67.055331 c 0.4084,1.6653 0.4492,2.94892 -0.091,4.7492 -0.5529,0.40436 -1.0524,0.41089 -1.5728,0.57383 0.7063,-1.64016 0.7731,-3.84549 0.3038,-5.60228 0.7229,-0.004 1.1446,0.10069 1.3603,0.27925 z"
         id="path61530"
         sodipodi:nodetypes="ccccc" />
      <path
         style="fill:#6d1c13;fill-opacity:1;stroke-width:0.2"
         d="m 1638.4655,66.255051 c -0.3598,1.35568 -0.035,2.67594 1.0245,3.95821 l 0.9174,0.18434 c -1.0779,-1.95492 -1.4471,-3.63604 -0.4913,-4.80531 z"
         id="path61532"
         sodipodi:nodetypes="ccccc" />
      <path
         style="fill:#ad2d1f;fill-opacity:1;stroke-width:0.2"
         d="m 1648.5004,65.737571 c 0.4653,0.34222 0.6518,0.72734 0.6501,1.17493 -0.01,1.65789 -1.0578,3.419 -2.4404,4.33383 -0.3908,0.25855 -1.0127,0.15304 -1.397,0.15584 2.2115,-1.66781 2.9206,-3.62378 3.1873,-5.6646 z"
         id="path61534"
         sodipodi:nodetypes="caacc" />
      <ellipse
         style="fill:#e35f4f;fill-opacity:1;stroke-width:0.110095"
         id="ellipse61536"
         cx="1583.1897"
         cy="70.250832"
         rx="0.46174198"
         ry="0.4983803" />
      <ellipse
         style="fill:#e35f4f;fill-opacity:1;stroke-width:0.110095"
         id="ellipse61538"
         cx="1643.8888"
         cy="67.987038"
         rx="0.46174198"
         ry="0.4983803" />
      <path
         style="fill:url(#linearGradient61562);fill-opacity:1;stroke-width:0.2"
         d="m 1689.1055,69.628221 c 3.6514,2.39066 8.0313,7.80206 10.8764,6.8496 -0.8059,0.64729 -2.3866,0.89623 -4.8682,0.68203 -2.1823,-3.71709 -4.0984,-5.64551 -6.0082,-7.53163 z"
         id="path61540"
         sodipodi:nodetypes="cccc" />
      <path
         style="fill:url(#linearGradient61560);fill-opacity:1;stroke-width:0.2"
         d="m 1685.7197,79.067951 c 4.158,1.119055 8.7275,9.663885 12.4585,3.074945 -0.6966,2.20608 -1.098,4.69519 -3.7689,3.86171 l -9.1796,-4.36196 c 0.1297,-0.85243 0.2986,-1.71163 0.49,-2.574695 z"
         id="path61542"
         sodipodi:nodetypes="ccccc" />
      <path
         style="fill:url(#linearGradient61558);fill-opacity:1;stroke-width:0.2"
         d="m 1684.4465,88.059386 c 1.5055,2.43374 2.9196,4.901 4.659,7.24897 2.4532,3.10022 3.6844,0.34124 5.0103,-1.96395 -1.2936,6.37131 -6.9735,9.508624 -8.6322,2.32708 l -1.2937,-4.67929 z"
         id="path61544"
         sodipodi:nodetypes="cccccc" />
      <path
         style="fill:#4d1e19;fill-opacity:1;stroke-width:0.2"
         d="m 1570.6337,71.886731 c 0.9072,1.08828 4.0422,1.85685 8.2232,2.47532 -3.0933,0.25526 -6.048,0.0547 -8.809,-0.78243 z"
         id="path61546"
         sodipodi:nodetypes="cccc" />
      <path
         style="fill:#57160f;fill-opacity:1;stroke-width:0.2"
         d="m 1649.6905,65.817761 c 2.0231,1.15831 4.3546,1.77712 5.6493,4.20934 l 1.2378,-2.39941 z"
         id="path61548"
         sodipodi:nodetypes="cccc" />
      <rect
         style="fill:url(#linearGradient61556);fill-opacity:1;stroke-width:0.188868"
         id="rect61550"
         width="7.2226357"
         height="6.2694802"
         x="1674.7452"
         y="59.401329" />
      <rect
         style="fill:url(#linearGradient61554);fill-opacity:1;stroke-width:0.18043"
         id="rect61552"
         width="6.5916777"
         height="6.2694802"
         x="1510.8295"
         y="312.1694"
         transform="rotate(-9.1646694)" />
      <path
         style="fill:#9c4530;fill-opacity:1;stroke-width:0.2"
         d="m 1575.3683,34.935181 c 4.1389,-12.379434 10.3699,-20.847421 19.6565,-23.602876 13.6286,-3.2820864 24.1387,3.84004 36.1593,9.091396 -12.153,-3.400803 -24.399,-13.0116094 -36.4262,-8.003131 -8.512,3.204296 -14.1132,11.965219 -19.3896,22.514611 z"
         id="path80827"
         sodipodi:nodetypes="ccccc" />
      <path
         style="fill:#c5593a;fill-opacity:1;stroke-width:0.2"
         d="m 1630.3357,-0.71371386 c -0.1847,-0.275829 9.9266,4.71425666 16.8179,6.23371326 3.7989,0.837595 8.3431,0.216765 11.656,-1.4944752 3.166,-1.6353845 4.9486,-4.74226466 8.1707,-5.7367108 1.607,-0.495998 4.4494,1.67949074 4.5849,2.22719075 0,0 -2.9344,-1.03268959 -4.3688,-0.69154371 -3.2323,0.76874814 -4.998,4.60563726 -8.0891,5.82362726 -3.7392,1.4733477 -7.9901,2.1478575 -11.9604,1.5236666 -6.1145,-0.9612973 -16.8112,-7.88546816 -16.8112,-7.88546816 z"
         id="path82539"
         sodipodi:nodetypes="cssscaaac" />
      <path
         style="fill:url(#linearGradient83099);fill-opacity:1;stroke-width:0.2"
         d="m 1641.3004,214.00462 9.1988,-24.11947 14.6545,-5.18282 3.9046,14.3564 4.6351,-6.08884 2.9372,2.85335 c -0.9081,5.09525 -0.9835,9.49295 -6.181,18.18138 z"
         id="path83091"
         sodipodi:nodetypes="cccccccc" />
      <path
         style="fill:url(#linearGradient83171);fill-opacity:1;stroke-width:0.2"
         d="m 1661.0084,161.42895 4.1453,23.27338 -14.6545,5.18282 c 0,0 -6.8991,18.0896 -6.7554,17.71274 0.1438,-0.37687 -0.5929,-30.32958 -0.5929,-30.32958 l 0.1511,-0.67098 c 7.7006,-4.89909 12.1866,-10.07887 17.7064,-15.16838 z"
         id="path83163"
         sodipodi:nodetypes="cccsccc" />
    </g>
  </g>
</svg>
