<svg width="60" height="60" viewBox="0 0 60 60" fill="none" xmlns="http://www.w3.org/2000/svg">
<path fill-rule="evenodd" clip-rule="evenodd" d="M29.7122 47.1932C30.5912 47.9201 31.6216 48.23 32.734 48.2874C33.1941 48.3115 33.6674 48.2889 34.1201 48.2065C34.8382 48.076 35.5543 47.9122 36.2527 47.7018C37.6751 47.2726 38.9042 46.531 39.8219 45.3333C40.3448 44.6505 40.7739 43.9124 41.0496 43.0962C41.2772 42.4228 41.491 41.7425 41.6612 41.0534C41.7956 40.5104 41.8623 39.9498 41.9437 39.3951C41.9982 39.0282 42.031 38.6574 42.0649 38.2871C42.1198 37.6863 42.1772 37.0864 42.2169 36.4841C42.2449 36.0652 42.2439 35.6444 42.2601 35.225C42.2655 35.097 42.2861 34.97 42.2983 34.843C42.3086 34.7248 42.3685 34.6841 42.4891 34.686C42.9129 34.6924 43.3377 34.7032 43.7609 34.6841C44.2352 34.663 44.713 34.6424 45.1799 34.5644C45.8444 34.4531 46.5036 34.3124 47.1555 34.1426C47.9246 33.941 48.6304 33.5805 49.3102 33.1704C50.1008 32.6922 50.8228 32.1316 51.407 31.4091C51.9166 30.7804 52.1579 30.0515 52.0348 29.2564C51.8563 28.1014 50.8856 27.3446 49.757 27.2931C49.348 27.2744 48.933 27.3176 48.5259 27.3691C48.033 27.4319 47.5474 27.5427 47.056 27.6158C46.7165 27.6668 46.3727 27.6894 46.0343 27.7247L46.025 27.6805C46.6577 26.4852 47.3169 25.3037 47.9153 24.0922C48.3749 23.1623 48.7672 22.1995 49.1729 21.243C49.8448 19.6598 50.3809 18.028 50.8253 16.3687C51.2505 14.7805 51.6145 13.1752 51.7297 11.5272C51.7758 10.8695 51.8077 10.2088 51.8033 9.55007C51.8003 9.02428 51.7434 8.498 51.691 7.97417C51.6311 7.37383 51.4497 6.80487 51.1985 6.2575C50.8679 5.53552 50.3544 4.94351 49.8144 4.38143C49.3823 3.93117 48.9065 3.52113 48.4352 3.11109C47.7627 2.52645 47.0064 2.05902 46.2217 1.64457C45.3321 1.17207 44.3897 0.806569 43.4142 0.55571C42.8197 0.40583 42.2215 0.271556 41.62 0.153029C41.4062 0.109867 41.1904 0 40.975 0H36.9198C36.7731 0 36.6279 0.0961335 36.4803 0.112319C35.5098 0.218254 34.5515 0.416151 33.6184 0.703343C33.2701 0.810758 32.9523 0.747977 32.6212 0.717077C32.3672 0.693534 32.1175 0.628301 31.8634 0.615548C30.8967 0.567481 29.929 0.497834 28.9618 0.508134C28.0358 0.517943 27.1191 0.670972 26.223 0.925039C25.473 1.13889 24.7388 1.39835 24.0659 1.79318C23.7784 1.96191 23.5499 1.93003 23.2522 1.84468C22.2523 1.55177 21.2437 1.2894 20.2279 1.05796C19.5947 0.91621 18.9428 0.844601 18.2959 0.777896C17.675 0.713408 17.0517 0.674627 16.4277 0.661653C15.8185 0.64841 15.2054 0.648901 14.5987 0.702853C13.6329 0.788686 12.6858 0.984877 11.7647 1.30172C10.7493 1.64887 9.80057 2.16654 8.95917 2.8325C8.10084 3.51181 7.41221 4.34023 6.85944 5.28734C6.27626 6.28644 5.87555 7.35617 5.62736 8.47887C5.49248 9.08755 5.54202 9.7134 5.44932 10.3314C5.42087 10.5227 5.47826 10.715 5.47826 10.9072V13.5975C5.47826 13.776 5.42578 13.955 5.44834 14.1346C5.50376 14.5657 5.48464 15.0002 5.55772 15.4284C5.67249 16.1063 5.77598 16.7817 5.91527 17.4546C6.10999 18.3948 6.29588 19.3341 6.51169 20.2699C6.66865 20.9512 6.83884 21.6285 7.02571 22.302C7.31019 23.331 7.5878 24.3615 7.91004 25.3782C8.20972 26.3234 8.55109 27.2548 8.89198 28.1867C9.35906 29.4753 9.93159 30.7232 10.6037 31.9178C11.1899 32.9532 11.8584 33.9228 12.756 34.7199C13.348 35.2457 14.0057 35.6493 14.7713 35.8514C15.3694 36.0102 15.9963 36.0277 16.6023 35.9024C17.3047 35.7596 17.961 35.4454 18.5127 34.9877C18.5774 34.9352 18.6476 34.8945 18.7246 34.9916C19.0159 35.3604 19.4053 35.6066 19.8129 35.819C20.9126 36.3929 22.1108 36.565 23.3277 36.6347C23.623 36.6514 23.9202 36.6092 24.2169 36.6013C24.7962 36.5851 25.3583 36.4723 25.911 36.3124C26.2014 36.2286 26.4844 36.1216 26.7797 36.0226C26.7949 36.337 26.8145 36.6391 26.8243 36.9417L26.865 38.5912C26.8728 38.8423 26.8827 39.0934 26.9057 39.3436C26.9655 39.9881 27.0239 40.6326 27.1009 41.2751C27.1539 41.718 27.2098 42.1638 27.3138 42.5964C27.5228 43.4682 27.8087 44.3197 28.1682 45.141C28.5123 45.9381 29.0416 46.6417 29.7122 47.1932ZM27.9509 38.9689C27.9161 38.1944 27.8901 37.4195 27.8729 36.6445C27.8523 35.692 27.8455 34.739 27.8322 33.7865L27.8298 33.7502C27.3457 34.041 26.8684 34.3589 26.3637 34.6213C25.7717 34.9288 25.1292 35.1068 24.4636 35.1574C23.9423 35.1966 23.413 35.2324 22.8941 35.1912C22.0426 35.122 21.1912 34.9891 20.429 34.5693C20.12 34.3991 19.7972 34.1916 19.5839 33.9204C19.0733 33.2685 19.318 32.445 20.0881 32.0487C20.6203 31.7741 21.201 31.6598 21.7778 31.5264C22.2799 31.4125 22.7767 31.2767 23.2669 31.1193C23.7505 30.9608 24.0556 30.5685 24.3572 30.1834L24.8349 29.5694L24.2606 29.5095C23.6906 29.4566 23.1467 29.2991 22.6268 29.0686C22.1824 28.8719 22.1756 28.8503 21.8489 29.2044C21.3045 29.7955 20.7748 30.4012 20.2406 31.0025C19.8478 31.4449 19.4578 31.8898 19.0659 32.3337C18.6794 32.7727 18.3165 33.2362 17.8991 33.6442C17.2801 34.2505 16.5336 34.6149 15.6429 34.5737C15.0715 34.5472 14.5486 34.3471 14.0778 34.0199C13.1071 33.3441 12.4533 32.3975 11.8574 31.4042C11.0947 30.131 10.5086 28.7748 10.0078 27.3818C9.66104 26.4185 9.31231 25.4548 9.01018 24.4777C8.68107 23.4158 8.39218 22.3417 8.10819 21.2666C7.89337 20.4558 7.70306 19.6382 7.52158 18.8191C7.31267 17.888 7.11939 16.9536 6.94184 16.016C6.82364 15.3828 6.75546 14.7403 6.65982 14.1032C6.53082 13.2434 6.50728 12.3767 6.55436 11.5139C6.59606 10.7365 6.70739 9.96158 6.81824 9.18957C6.97176 8.12131 7.32392 7.11338 7.83009 6.16137C8.14233 5.58123 8.52502 5.04188 8.96947 4.55555C9.70028 3.74675 10.5846 3.16259 11.5685 2.72362C12.2557 2.41707 12.9821 2.23314 13.7222 2.08845C14.8209 1.8746 15.9293 1.88343 17.0378 1.90599C17.5224 1.91629 18.0055 2.00409 18.4896 2.05264C19.5324 2.15614 20.554 2.37587 21.5629 2.64612C22.2987 2.84329 23.0192 3.09932 23.748 3.32102C23.8206 3.34309 23.928 3.34113 23.9884 3.30238C24.9767 2.65691 26.0562 2.23118 27.2054 1.98741C27.6414 1.8952 28.0917 1.85449 28.5375 1.82604C29.079 1.7922 29.6259 1.75983 30.1664 1.79171C30.8163 1.82899 31.4642 1.92463 32.1102 2.01292C32.4241 2.05608 32.7301 2.16447 33.044 2.1939C33.1951 2.20813 33.3545 2.09875 33.5134 2.06147C34.3247 1.87362 35.1325 1.66517 35.9511 1.51753C36.5603 1.40767 37.1832 1.35568 37.8021 1.32036C38.4937 1.28063 39.1892 1.2517 39.8798 1.28505C40.7528 1.32723 41.6195 1.45132 42.4749 1.65045C43.5353 1.89716 44.5516 2.25521 45.5183 2.75255C46.2408 3.12483 46.927 3.55547 47.5455 4.08518C47.9506 4.43293 48.3655 4.77577 48.7309 5.16325C49.1822 5.64097 49.6422 6.11821 49.9257 6.72983C50.1391 7.19137 50.2911 7.66909 50.3333 8.17379C50.3853 8.80209 50.4486 9.43236 50.4432 10.0616C50.4378 10.663 50.3554 11.2638 50.2975 11.8641C50.1646 13.2316 49.8679 14.5696 49.5064 15.89C49.2048 16.9806 48.863 18.0597 48.4818 19.1252C48.134 20.1076 47.7323 21.0719 47.3267 22.0327C47.0277 22.7441 46.7031 23.4445 46.3536 24.1324C45.6895 25.4332 44.9989 26.7207 44.1999 27.9469C44.0621 28.1583 43.9311 28.3751 43.7967 28.5914C44.1455 28.8263 44.5403 28.9092 44.9376 28.9523C45.3157 28.9931 45.7013 29.0181 46.0789 28.9896C46.6837 28.9445 47.2865 28.8582 47.8878 28.7743C48.4832 28.6909 49.0664 28.5217 49.6785 28.5663C50.2887 28.611 50.7262 29.075 50.6845 29.6469C50.658 30.0088 50.4918 30.3193 50.2514 30.5847C49.116 31.8373 47.6906 32.5966 46.0603 32.9708C45.4408 33.1131 44.8022 33.1861 44.168 33.2455C43.6265 33.2933 43.0824 33.3061 42.5392 33.2837C42.1409 33.269 41.7461 33.1778 41.339 33.1189C41.2978 33.4912 41.259 33.8792 41.2119 34.2657L41.0221 35.7484C40.9647 36.2183 40.9201 36.6901 40.8607 37.16C40.8029 37.6161 40.7308 38.0698 40.67 38.5255C40.6135 38.9497 40.5719 39.3764 40.5081 39.8002C40.4115 40.4496 40.3188 41.1005 40.1917 41.745C40.0397 42.515 39.8072 43.2605 39.4261 43.9555C38.9621 44.8036 38.3044 45.4495 37.4667 45.9277C36.6034 46.4207 35.6592 46.6772 34.7033 46.892C34.0255 47.0446 33.3285 47.0691 32.6423 47.0068C31.4529 46.8994 30.4376 46.3908 29.67 45.4682C28.9378 44.5878 28.4419 43.5793 28.2648 42.437C28.1815 41.8935 28.1167 41.3473 28.0706 40.7993C28.0175 40.1901 27.9776 39.5798 27.9509 38.9689ZM29.288 31.1438C29.2953 31.5509 29.2531 31.958 29.2551 32.3651C29.2634 34.2598 29.2772 36.155 29.2934 38.0502C29.2963 38.3597 29.3115 38.6702 29.3336 38.9792C29.3802 39.6266 29.4263 40.2745 29.4891 40.92C29.5342 41.3786 29.5955 41.8357 29.6676 42.2909C29.7706 42.9349 30.0639 43.5087 30.3964 44.0576C30.6829 44.5294 31.0561 44.9296 31.5471 45.2062C32.3819 45.6756 33.2799 45.7149 34.1854 45.5422C34.797 45.426 35.3983 45.2381 35.9918 45.0444C36.5759 44.8571 37.1092 44.5381 37.5505 44.112C37.9669 43.7088 38.2622 43.2169 38.4613 42.6739C38.8473 41.6214 38.9685 40.5124 39.1279 39.4127C39.1877 39.0007 39.2397 38.5878 39.2942 38.1753C39.3565 37.7059 39.4192 37.237 39.4791 36.7676C39.5242 36.4174 39.5644 36.0677 39.6071 35.718C39.6684 35.2157 39.7327 34.714 39.791 34.2117C39.8357 33.8233 39.8729 33.4333 39.9131 33.0439C39.9642 32.5461 40.0186 32.0497 40.0632 31.5509C40.0966 31.1732 40.0829 30.7882 40.1501 30.4169C40.2732 29.7366 40.5949 29.1579 41.1982 28.7831C41.4503 28.6272 41.7358 28.5242 42.0153 28.3917L41.9673 28.3186C41.7088 27.9832 41.4439 27.6531 41.1903 27.3137C40.7921 26.781 40.5056 26.187 40.2177 25.5901C39.945 25.0241 39.6115 24.4885 39.3246 23.9289C38.8238 22.9528 38.3137 21.9792 37.8522 20.985C37.2719 19.7343 36.8148 18.4404 36.6711 17.0553C36.6098 16.4697 36.5941 15.8841 36.7133 15.3039C36.9031 14.3769 37.3867 13.6519 38.2009 13.1546C38.9562 12.6935 39.7974 12.5444 40.6592 12.4978C41.1938 12.4689 41.7318 12.4924 42.2866 12.4924L42.2684 12.3988C41.9231 11.6768 41.6009 10.9425 41.2227 10.2382C40.6901 9.24352 40.0073 8.34693 39.2481 7.51459C38.6878 6.8957 38.0721 6.32929 37.4088 5.82245C36.7525 5.3256 36.0609 4.88171 35.3228 4.51925C34.4459 4.08306 33.5198 3.75372 32.5643 3.5383C31.6398 3.33328 30.7103 3.20772 29.7618 3.19742C28.9535 3.18859 28.1501 3.22586 27.3623 3.40783C26.1734 3.68299 25.086 4.17248 24.1409 4.96509C23.6174 5.40391 23.1497 5.90533 22.7484 6.45811C22.2741 7.10799 21.8925 7.81133 21.5659 8.54754C21.1176 9.55841 20.8101 10.6095 20.5992 11.6905C20.4942 12.23 20.4118 12.773 20.3279 13.3159C20.2985 13.5067 20.2965 13.7005 20.2789 13.9187L20.6379 13.7319L20.9881 13.5749C22.1736 13.0329 23.4013 12.6842 24.7206 12.7239C25.2817 12.7406 25.8173 12.852 26.3166 13.0977C27.2731 13.5695 27.8322 14.3715 28.0755 15.3858C28.2432 16.0862 28.3585 16.8003 28.4703 17.513C28.5576 18.0692 28.6474 18.6312 28.6572 19.1924C28.6714 20.0124 28.6302 20.8345 28.5856 21.6541C28.5474 22.351 28.4032 23.038 28.1579 23.6915C27.7145 24.8765 27.2201 26.0423 26.7586 27.2205C26.606 27.6099 26.4888 28.0126 26.3451 28.4408L26.9278 28.4413C26.9984 28.4427 27.0705 28.4447 27.1387 28.4609C27.6689 28.586 28.1295 28.8263 28.5066 29.2344C29.0108 29.7759 29.2747 30.4096 29.288 31.1438ZM19.1611 25.5254C18.8606 24.8182 18.6792 24.0661 18.6245 23.2996C18.5735 22.5766 18.6593 21.8576 18.7339 21.1376C18.8055 20.4406 18.8663 19.7402 18.8869 19.0408C18.9217 17.8896 18.8442 16.7414 18.7893 15.5913C18.7564 14.9066 18.8359 14.2135 18.8967 13.5273C18.9517 12.9093 19.0203 12.2899 19.1375 11.6807C19.3332 10.6585 19.5937 9.65111 19.964 8.67457C20.3147 7.74855 20.7188 6.84754 21.2878 6.03581C21.6787 5.47862 22.1211 4.95921 22.5464 4.41478L22.4198 4.36966C21.0352 3.93019 19.6275 3.58587 18.1792 3.43628C17.4949 3.36516 16.8078 3.32396 16.1216 3.28276C15.9107 3.2705 15.6968 3.29895 15.4855 3.31906C14.9621 3.36957 14.4319 3.38919 13.9169 3.48729C13.0404 3.65405 12.1993 3.9346 11.4209 4.39124C10.732 4.79658 10.1281 5.33138 9.64241 5.96616C9.09945 6.66803 8.73306 7.46162 8.47066 8.3072C8.16068 9.30532 8.01255 10.3329 7.97282 11.3692C7.938 12.2781 7.92083 13.1919 8.07778 14.0973C8.19403 14.7707 8.27201 15.452 8.40052 16.1234C8.57327 17.039 8.76722 17.9503 8.98222 18.8569C9.2927 20.1537 9.60366 21.4515 9.97201 22.7326C10.3242 23.9593 10.721 25.1752 11.1526 26.3769C11.5047 27.3573 11.9123 28.3196 12.3415 29.2687C12.6211 29.8872 12.9595 30.4826 13.3146 31.0614C13.6918 31.6765 14.1214 32.2601 14.7031 32.7065C15.4384 33.2695 16.0068 33.3573 16.7543 32.7388C17.0741 32.4745 17.3444 32.1468 17.623 31.8354C18.0649 31.341 18.4916 30.8318 18.932 30.335C19.4926 29.7028 20.0601 29.0769 20.6237 28.4467C20.7429 28.3137 20.8581 28.1764 20.9739 28.042L20.7811 27.8738C20.0862 27.21 19.5349 26.4107 19.1611 25.5254ZM40.4188 6.68961C40.8798 7.22509 41.3171 7.78052 41.7294 8.35429C42.5197 9.4625 43.1558 10.6729 43.6202 11.9524C43.8262 12.5189 43.991 13.0908 43.9174 13.7103C43.8664 14.1444 43.8698 14.5843 43.8321 15.0208C43.8002 15.3838 43.7423 15.7448 43.6957 16.1068C43.6251 16.6522 43.5231 17.1966 43.4926 17.7445C43.4632 18.2663 43.4941 18.7931 43.527 19.3155C43.5598 19.8466 43.6315 20.3754 43.68 20.9051C43.7349 21.5069 43.8095 22.1073 43.8262 22.71C43.8399 23.2044 43.7958 23.7013 43.7531 24.1957C43.6983 24.7881 43.5544 25.3688 43.3264 25.9183C43.168 26.3077 42.9791 26.6844 42.8011 27.0738L42.8727 27.1494L42.9816 27.2337L43.0919 27.0375C44.0181 25.5802 44.841 24.0598 45.5546 22.4874C46.0121 21.4724 46.4461 20.4471 46.8563 19.4121C47.4959 17.8032 48.0125 16.1482 48.4018 14.4612C48.5784 13.7039 48.7138 12.9348 48.8334 12.1658C48.9271 11.5645 49.0046 10.9563 49.0223 10.3495C49.0404 9.70604 49.0051 9.05763 48.9458 8.41609C48.9011 7.9315 48.7815 7.44396 48.4783 7.04913C47.9898 6.41494 47.4631 5.80871 46.8151 5.32854C46.2692 4.92488 45.7248 4.50944 45.1397 4.17003C44.2112 3.631 43.2062 3.27295 42.1561 3.02869C41.1305 2.78983 40.0927 2.68683 39.0479 2.66476C38.4319 2.65152 37.8129 2.71773 37.1984 2.7761C36.6412 2.82809 36.0874 2.91735 35.5268 2.99093C36.1286 3.32936 36.7226 3.63051 37.2817 3.98512C38.4589 4.73065 39.5144 5.62773 40.4188 6.68961ZM25.1258 27.5658C25.5059 26.3494 26.0243 25.187 26.5261 24.0186C26.9337 23.0705 27.1559 22.0724 27.2299 21.0464C27.2667 20.5407 27.2569 20.0286 27.2319 19.5215C27.2075 18.9572 27.1558 18.3945 27.0769 17.8352C26.9714 17.122 26.8518 16.4084 26.683 15.7085C26.5001 14.9512 26.039 14.4234 25.2484 14.2287C24.7672 14.1105 24.2885 14.1154 23.8015 14.1924C22.6131 14.3793 21.5252 14.8173 20.5119 15.4588C20.3078 15.5878 20.195 15.6923 20.2308 15.9841C20.3054 16.6041 20.3216 17.2339 20.3186 17.8592C20.3147 18.7445 20.2769 19.6299 20.2436 20.5147C20.2328 20.8026 20.1911 21.09 20.1597 21.3769C20.1126 21.8164 20.0209 22.2554 20.0238 22.6944C20.0268 23.1466 20.0729 23.6091 20.1827 24.0471C20.5315 25.4361 21.2692 26.5721 22.4792 27.374C23.2232 27.8674 24.0462 28.1156 24.9502 28.1632C25.01 27.9557 25.0654 27.76 25.1258 27.5658ZM23.7054 15.6526C23.5459 15.3186 23.6372 15.0414 24.006 14.9129C24.0963 14.882 24.1885 14.8477 24.2817 14.8389C24.4107 14.8261 24.5406 14.8354 24.6706 14.8354C25.139 14.8384 25.5893 14.9036 25.9753 15.2009C26.2235 15.3921 26.2902 15.6447 26.1293 15.9057C25.9012 16.275 25.5544 16.4604 25.1277 16.4957C24.4563 16.5511 23.9849 16.2382 23.7054 15.6526ZM42.3312 15.5305L42.4837 14.1939C42.5058 14.0154 42.4121 13.9663 42.262 13.9619C41.7897 13.9492 41.3179 13.932 40.8455 13.9241C40.3139 13.9143 39.7954 13.9997 39.303 14.2018C38.7566 14.4269 38.3407 14.7869 38.1705 15.3818C38.046 15.8202 38.0067 16.2784 38.0547 16.7316C38.1211 17.4329 38.2799 18.1222 38.5271 18.7818C38.8576 19.6612 39.2029 20.5402 39.6164 21.3828C40.176 22.5232 40.8088 23.6277 41.4032 24.7509C41.5616 25.0506 41.696 25.364 41.8613 25.7137C42.1951 25.018 42.3773 24.2594 42.3959 23.4879C42.4121 22.8498 42.3616 22.2103 42.3243 21.5721C42.3013 21.1817 42.2459 20.7933 42.2081 20.4038C42.1556 19.8614 42.0752 19.3184 42.0624 18.7745C42.0502 18.2212 42.0894 17.665 42.1365 17.1122C42.1806 16.5835 42.2679 16.0582 42.3312 15.5305ZM41.2674 15.1018C41.0918 15.5859 40.717 15.8596 40.2305 15.9395C39.7773 16.0146 39.38 15.8473 39.0847 15.4853C38.8743 15.2278 38.9548 14.9232 39.2701 14.7486C39.6321 14.5485 40.0299 14.498 40.4993 14.4676C40.6273 14.4906 40.8186 14.5107 41.001 14.5622C41.2654 14.6368 41.3635 14.8369 41.2674 15.1018ZM27.2407 30.0137C26.9817 29.8018 26.6384 29.7896 26.3922 30.0221C26.0861 30.3115 25.8169 30.642 25.5476 30.9677C25.2371 31.3444 24.9448 31.7358 24.5446 32.0276C23.9614 32.4519 23.2801 32.6275 22.5964 32.7938C22.0529 32.9262 21.5065 33.0493 20.9616 33.1758L20.9548 33.2465C21.1166 33.321 21.2731 33.4147 21.4423 33.4682C22.2737 33.7311 23.1197 33.8625 23.9987 33.788C24.6324 33.7335 25.2366 33.5952 25.809 33.324C26.5972 32.9507 27.2039 32.3587 27.7194 31.6711C27.8057 31.5563 27.845 31.3866 27.8548 31.2385C27.8896 30.7156 27.6243 30.3267 27.2407 30.0137ZM42.4185 29.7871C42.0109 29.924 41.6794 30.1324 41.5808 30.5734C41.5136 30.8716 41.489 31.1801 41.4631 31.4857C41.4581 31.5396 41.5253 31.6387 41.5764 31.6524C41.8903 31.7353 42.2061 31.8329 42.5269 31.8619C42.9217 31.8977 43.3229 31.8864 43.7202 31.8668C44.1489 31.8452 44.5805 31.8172 45.0033 31.7466C45.9985 31.5788 46.9623 31.3071 47.8177 30.7421C48.1267 30.5385 48.4317 30.3306 48.7388 30.1236L48.7133 30.08C48.3861 30.1285 48.06 30.1879 47.7313 30.2227C47.0623 30.2943 46.3928 30.3698 45.7214 30.4086C45.3972 30.4272 45.0685 30.3649 44.7419 30.3384C44.1935 30.2938 43.6579 30.1722 43.1944 29.8789C42.9271 29.7101 42.7035 29.6915 42.4185 29.7871Z" fill="white"/>
<path d="M0 48.6466C0.704222 48.5324 1.41672 48.4769 2.13014 48.4808C3.22635 48.4808 4.03025 48.7359 4.54034 49.1949C5.01218 49.603 5.29273 50.2279 5.29273 50.9935C5.29273 51.7714 5.0627 52.3835 4.62912 52.8299C4.04251 53.4547 3.08608 53.7735 2.00213 53.7735C1.67056 53.7735 1.36451 53.7608 1.10995 53.697V57.1407H0V48.6466ZM1.10995 52.7911C1.35224 52.8549 1.6583 52.8804 2.02812 52.8804C3.36663 52.8804 4.18327 52.23 4.18327 51.044C4.18327 49.9091 3.37987 49.3607 2.15564 49.3607C1.67105 49.3607 1.30123 49.399 1.10995 49.45V52.7911ZM12.0132 54.0026C12.0132 56.2853 10.4315 57.2805 8.93943 57.2805C7.26886 57.2805 5.98087 56.0562 5.98087 54.1046C5.98087 52.0387 7.33262 50.8272 9.04144 50.8272C10.8145 50.8268 12.0132 52.1152 12.0132 54.0026ZM7.11632 54.0664C7.11632 55.4181 7.89422 56.4383 8.99093 56.4383C10.0621 56.4383 10.865 55.4309 10.865 54.0409C10.865 52.9952 10.3427 51.6689 9.01594 51.6689C7.6892 51.6689 7.11632 52.8931 7.11632 54.0664ZM13.2752 55.992C13.6068 56.2088 14.1934 56.4383 14.7545 56.4383C15.5707 56.4383 15.9532 56.0302 15.9532 55.5201C15.9532 54.9845 15.6349 54.6912 14.8055 54.3852C13.6961 53.9898 13.1732 53.3777 13.1732 52.6381C13.1732 51.6434 13.9766 50.8272 15.3029 50.8272C15.9277 50.8272 16.4766 51.0058 16.8209 51.2098L16.5403 52.026C16.1608 51.7921 15.7237 51.6685 15.2779 51.6689C14.6147 51.6689 14.2449 52.0515 14.2449 52.5106C14.2449 53.0207 14.6152 53.2502 15.4186 53.5563C16.4898 53.9643 17.0382 54.4999 17.0382 55.4181C17.0382 56.5021 16.1965 57.2672 14.73 57.2672C14.0541 57.2672 13.4292 57.1014 12.9957 56.8464L13.2752 55.992ZM19.8305 49.1945V50.967H21.4368V51.8214H19.8305V55.1498C19.8305 55.915 20.0468 56.3485 20.6721 56.3485C20.8913 56.3517 21.11 56.326 21.3225 56.272L21.3735 57.1137C21.1572 57.203 20.8124 57.2667 20.3793 57.2667C19.8565 57.2667 19.4351 57.1009 19.1673 56.7949C18.849 56.4633 18.7338 55.915 18.7338 55.1881V51.8214H17.7773V50.967H18.7338V49.4878L19.8305 49.1945ZM27.941 50.9675C27.915 51.4139 27.89 51.9112 27.89 52.6636V56.247C27.89 57.6625 27.6094 58.5297 27.0101 59.0658C26.4107 59.6269 25.5435 59.8054 24.7656 59.8054C24.026 59.8054 23.2098 59.6269 22.712 59.2953L22.9926 58.4409C23.4006 58.696 24.0383 58.9255 24.8034 58.9255C25.9511 58.9255 26.7928 58.3261 26.7928 56.7704V56.0817H26.7673C26.423 56.6556 25.7598 57.1147 24.8034 57.1147C23.2731 57.1147 22.1764 55.8139 22.1764 54.1046C22.1764 52.0132 23.5409 50.8272 24.9564 50.8272C26.0281 50.8272 26.6147 51.3884 26.8825 51.8985H26.908L26.959 50.9675H27.941ZM26.7805 53.4032C26.7805 53.2119 26.7678 53.0462 26.7168 52.8931C26.5127 52.2428 25.9644 51.7072 25.1482 51.7072C24.0765 51.7072 23.3119 52.6126 23.3119 54.0409C23.3119 55.2523 23.924 56.2598 25.1355 56.2598C25.8241 56.2598 26.449 55.8262 26.6912 55.1121C26.755 54.9208 26.781 54.704 26.781 54.5127L26.7805 53.4032ZM29.6748 52.8931C29.6748 52.1663 29.6621 51.5414 29.6238 50.9675H30.6062L30.644 52.179H30.695C30.9756 51.3501 31.6514 50.8272 32.4038 50.8272C32.5314 50.8272 32.6201 50.84 32.7221 50.8655V51.924C32.5967 51.8967 32.4685 51.8838 32.3401 51.8857C31.5494 51.8857 30.9878 52.4851 30.8353 53.3267C30.8038 53.4993 30.7867 53.6742 30.7843 53.8496V57.1397H29.6748V52.8931ZM34.3427 54.2576C34.3682 55.7752 35.3369 56.4 36.4591 56.4C37.263 56.4 37.7471 56.2598 38.1679 56.0812L38.3592 56.8846C37.9639 57.0632 37.288 57.2672 36.3061 57.2672C34.406 57.2672 33.271 56.0175 33.271 54.1556C33.271 52.2938 34.3677 50.8268 36.1658 50.8268C38.1807 50.8268 38.7163 52.5993 38.7163 53.7343C38.7163 53.9638 38.6908 54.1424 38.678 54.2572L34.3427 54.2576ZM37.6328 53.4542C37.6451 52.7401 37.339 51.6306 36.077 51.6306C34.942 51.6306 34.4447 52.6763 34.3549 53.4542H37.6328ZM39.9915 55.7879C40.5927 56.1491 41.2796 56.3428 41.9809 56.349C43.1158 56.349 43.779 55.7497 43.779 54.8825C43.779 54.0791 43.3199 53.62 42.1594 53.1737C40.7566 52.6763 39.8895 51.9495 39.8895 50.738C39.8895 49.399 40.9989 48.4043 42.6695 48.4043C43.5494 48.4043 44.187 48.6083 44.5696 48.8251L44.2636 49.7305C43.7619 49.4609 43.2008 49.3206 42.6312 49.3225C41.458 49.3225 41.0117 50.0239 41.0117 50.6105C41.0117 51.4139 41.534 51.8092 42.7205 52.2683C44.1743 52.8299 44.9139 53.5308 44.9139 54.7932C44.9139 56.1195 43.932 57.2672 41.9044 57.2672C41.0755 57.2672 40.17 57.0249 39.7105 56.7189L39.9915 55.7879ZM53.5218 58.4022C52.4132 58.1113 51.3157 57.7795 50.2317 57.4075C50.0531 57.3437 49.8746 57.28 49.7088 57.28C47.6684 57.2034 45.9214 55.6987 45.9214 52.9314C45.9214 50.1769 47.6047 48.4043 49.9256 48.4043C52.2593 48.4043 53.7773 50.2151 53.7773 52.7529C53.7773 54.959 52.7571 56.3745 51.3289 56.8719V56.9229C52.1833 57.1397 53.1142 57.3437 53.8411 57.4712L53.5218 58.4022ZM52.6036 52.8039C52.6036 51.0823 51.7114 49.3092 49.8874 49.3092C48.0128 49.3092 47.0946 51.0435 47.1073 52.9059C47.0946 54.7295 48.102 56.3745 49.8363 56.3745C51.6094 56.3745 52.6036 54.7677 52.6036 52.8039ZM55.2174 48.5446H56.3273V56.2088H60V57.1397H55.2174V48.5446Z" fill="white"/>
</svg>
