<svg width="60" height="47" viewBox="0 0 60 47" fill="none" xmlns="http://www.w3.org/2000/svg">
<path fill-rule="evenodd" clip-rule="evenodd" d="M30 40.1841C13.4316 40.1841 0 31.1888 0 20.092C0 8.99578 13.4316 0 30 0C46.5684 0 60 8.99531 60 20.092C60 31.1883 46.5684 40.1841 30 40.1841ZM34.5919 7.85578C21.9984 7.85578 11.7891 14.0053 11.7891 21.5916C11.7891 29.1773 21.9984 35.3273 34.5919 35.3273C47.1853 35.3273 56.4792 31.1227 56.4792 21.5916C56.4792 12.0633 47.1853 7.85578 34.5919 7.85578Z" fill="white"/>
<path fill-rule="evenodd" clip-rule="evenodd" d="M45.6888 31.1143C45.6888 31.1143 47.5048 31.6623 48.5595 32.1962C48.9251 32.3813 49.5588 32.7507 50.0154 33.2363C50.2835 33.5203 50.5079 33.8425 50.681 34.1926L57.837 46.2582L46.271 46.2629L40.863 36.107C40.863 36.107 39.7554 34.2038 39.0738 33.6521C38.5052 33.1918 38.2629 33.0282 37.7009 33.0282H34.953L34.9549 46.2559L24.7207 46.2601V12.4707H45.2726C45.2726 12.4707 54.6335 12.6395 54.6335 21.5452C54.6335 30.451 45.6888 31.1143 45.6888 31.1143ZM41.2371 19.8001L35.0412 19.7959L35.0384 25.5418L41.2371 25.5395C41.2371 25.5395 44.1077 25.5305 44.1077 22.6168C44.1077 19.6449 41.2371 19.8001 41.2371 19.8001Z" fill="white"/>
</svg>
