<svg width="60" height="44" viewBox="0 0 60 44" fill="none" xmlns="http://www.w3.org/2000/svg">
<path d="M53.4 36.9C53.4 36.9 58.8 36.3 58.8 29.7C58.8 23.1 52.5 22.2 52.5 22.2H41.1V43.8H46.8V38.7L51.9 43.8H60L53.4 36.9ZM51 32.7H46.5V27.9H51C51 27.9 52.2 28.5 52.2 30.3C52.5 32.1 51 32.7 51 32.7ZM57.9 11.4V12C33.6 5.1 24 26.4 25.8 42.9H6.9C9 26.7 29.4 -5.4 57.9 11.4ZM55.5 7.5C53.4 6.6 51.3 5.7 49.2 5.1L49.5 1.2L55.8 3.6L55.5 7.5ZM49.5 12.9C51.6 12.9 53.7 13.2 55.8 13.8L55.5 17.4L50.1 16.8L49.5 12.9ZM35.7 4.2L34.5 0.599999L40.8 0L42 3.9C41.4 3.9 36.3 4.2 35.7 4.2ZM39.6 15.3C40.8 14.7 42.9 13.8 45.6 13.2L46.8 16.8L41.4 18.9L39.6 15.3ZM29.4 6.3C27.6 7.2 25.8 8.1 24 9.3L21.6 5.4L27 2.4L29.4 6.3ZM36.9 17.1L39.3 20.7L36 24.6L32.7 21.6C33.6 19.8 35.1 18.3 36.9 17.1ZM28.8 31.8C29.1 29.4 29.7 27.3 30.6 24.9L34.2 27.9L33.3 33.6L28.8 31.8ZM17.7 14.7C16.2 16.2 14.7 18 13.5 19.5L9.6 16.2L14.1 11.4L17.7 14.7ZM8.4 27.9C7.2 30.3 6.3 32.7 5.4 34.8L0 32.7L2.7 25.8L8.4 27.9ZM28.5 35.7L33.9 37.5L34.8 43.5L28.8 42C28.8 41.4 28.5 39.3 28.5 35.7Z" fill="white"/>
</svg>
