<svg width="40" height="30" viewBox="0 0 40 30" fill="none" xmlns="http://www.w3.org/2000/svg">
<path d="M35.6 24.6C35.6 24.6 39.2 24.2 39.2 19.8C39.2 15.4 35 14.8 35 14.8H27.4V29.2H31.2V25.8L34.6 29.2H40L35.6 24.6ZM34 21.8H31V18.6H34C34 18.6 34.8 19 34.8 20.2C35 21.4 34 21.8 34 21.8ZM38.6 7.6V8C22.4 3.4 16 17.6 17.2 28.6H4.6C6 17.8 19.6 -3.6 38.6 7.6ZM37 5C35.6 4.4 34.2 3.8 32.8 3.4L33 0.8L37.2 2.4L37 5ZM33 8.6C34.4 8.6 35.8 8.8 37.2 9.2L37 11.6L33.4 11.2L33 8.6ZM23.8 2.8L23 0.4L27.2 0L28 2.6C27.6 2.6 24.2 2.8 23.8 2.8ZM26.4 10.2C27.2 9.8 28.6 9.2 30.4 8.8L31.2 11.2L27.6 12.6L26.4 10.2ZM19.6 4.2C18.4 4.8 17.2 5.4 16 6.2L14.4 3.6L18 1.6L19.6 4.2ZM24.6 11.4L26.2 13.8L24 16.4L21.8 14.4C22.4 13.2 23.4 12.2 24.6 11.4ZM19.2 21.2C19.4 19.6 19.8 18.2 20.4 16.6L22.8 18.6L22.2 22.4L19.2 21.2ZM11.8 9.8C10.8 10.8 9.8 12 9 13L6.4 10.8L9.4 7.6L11.8 9.8ZM5.6 18.6C4.8 20.2 4.2 21.8 3.6 23.2L0 21.8L1.8 17.2L5.6 18.6ZM19 23.8L22.6 25L23.2 29L19.2 28C19.2 27.6 19 26.2 19 23.8Z" fill="white"/>
</svg>
