<svg width="60" height="60" viewBox="0 0 60 60" fill="none" xmlns="http://www.w3.org/2000/svg">
<path d="M50.3961 0.0299976C57.9555 1.3199 60.1153 6.50949 59.9953 11.9391V11.8191L56.5756 56.6056L12.239 59.6353H12.269C8.57933 59.4854 0.38997 59.1254 0 47.6663L4.10968 40.1669L12.419 59.5454L19.4985 36.6871L19.3485 36.7171L19.4085 36.6571L42.5367 44.0366L36.5671 20.6984L58.6154 19.3185L41.2468 5.0996L50.3961 0V0.0299976ZM12.839 12.509C21.7183 3.65971 33.2074 -1.55988 37.6171 2.90977C41.9967 7.31943 37.3771 18.1786 28.4978 26.9979C19.4985 35.8172 8.18936 41.3368 3.7797 36.8971C-0.629951 32.4275 3.8997 21.3283 12.809 12.509H12.839Z" fill="white"/>
</svg>
