<svg width="40" height="40" viewBox="0 0 40 40" fill="none" xmlns="http://www.w3.org/2000/svg">
<path d="M33.5974 0.0199984C38.637 0.879931 40.0769 4.33966 39.9969 7.95938V7.87939L37.7171 37.7371L8.15936 39.7569H8.17936C5.71955 39.6569 0.25998 39.4169 0 31.7775L2.73979 26.7779L8.27935 39.6969L12.999 24.4581L12.899 24.4781L12.939 24.4381L28.3578 29.3577L24.3781 13.7989L39.077 12.879L27.4979 3.39973L33.5974 0V0.0199984ZM8.55933 8.33935C14.4789 2.43981 22.1383 -1.03992 25.078 1.93985C27.9978 4.87962 24.9181 12.1191 18.9985 17.9986C12.999 23.8781 5.45957 27.5578 2.5198 24.5981C-0.419967 21.6183 2.5998 14.2189 8.53933 8.33935H8.55933Z" fill="white"/>
</svg>
